<svg width="55" height="55" fill="none" xmlns="http://www.w3.org/2000/svg"><path d="M27.509 0C16.028 0 12.6702 0.0118472 12.0175 0.0660056C9.66145 0.261907 8.19534 0.632977 6.5981 1.42843C5.36718 2.03983 4.3964 2.74854 3.43831 3.74201C1.69345 5.55378 0.635953 7.78274 0.25314 10.4323C0.0670216 11.7185 0.0128779 11.9809 0.00187999 18.551C-0.00234999 20.741 0.00187999 23.6232 0.00187999 27.4892C0.00187999 38.964 0.0145699 42.3193 0.0695596 42.9709C0.259908 45.2642 0.619456 46.707 1.38085 48.2852C2.83596 51.3062 5.61506 53.5741 8.88906 54.4203C10.0227 54.7123 11.2748 54.8731 12.8822 54.9492C13.5632 54.9788 20.5046 55 27.4502 55C34.3958 55 41.3414 54.9915 42.0055 54.9577C43.8667 54.8701 44.9475 54.725 46.1424 54.4161C47.7658 53.9997 49.2788 53.2338 50.5756 52.1719C51.8724 51.1101 52.9219 49.7778 53.6506 48.2683C54.3972 46.7281 54.7758 45.2303 54.9471 43.0568C54.9843 42.5829 55 35.0274 55 27.482C55 19.9354 54.9831 12.3938 54.9459 11.9199C54.7724 9.71128 54.3938 8.22616 53.6231 6.65641C52.9908 5.37142 52.2886 4.4118 51.2692 3.4306C49.4503 1.69245 47.2253 0.634669 44.5735 0.252175C43.2889 0.0664287 43.033 0.011424 36.4596 0H27.509Z" fill="url(#paint0_radial_398_12067)"/><path d="M27.509 0C16.028 0 12.6702 0.0118472 12.0175 0.0660056C9.66145 0.261907 8.19534 0.632977 6.5981 1.42843C5.36718 2.03983 4.3964 2.74854 3.43831 3.74201C1.69345 5.55378 0.635953 7.78274 0.25314 10.4323C0.0670216 11.7185 0.0128779 11.9809 0.00187999 18.551C-0.00234999 20.741 0.00187999 23.6232 0.00187999 27.4892C0.00187999 38.964 0.0145699 42.3193 0.0695596 42.9709C0.259908 45.2642 0.619456 46.707 1.38085 48.2852C2.83596 51.3062 5.61506 53.5741 8.88906 54.4203C10.0227 54.7123 11.2748 54.8731 12.8822 54.9492C13.5632 54.9788 20.5046 55 27.4502 55C34.3958 55 41.3414 54.9915 42.0055 54.9577C43.8667 54.8701 44.9475 54.725 46.1424 54.4161C47.7658 53.9997 49.2788 53.2338 50.5756 52.1719C51.8724 51.1101 52.9219 49.7778 53.6506 48.2683C54.3972 46.7281 54.7758 45.2303 54.9471 43.0568C54.9843 42.5829 55 35.0274 55 27.482C55 19.9354 54.9831 12.3938 54.9459 11.9199C54.7724 9.71128 54.3938 8.22616 53.6231 6.65641C52.9908 5.37142 52.2886 4.4118 51.2692 3.4306C49.4503 1.69245 47.2253 0.634669 44.5735 0.252175C43.2889 0.0664287 43.033 0.011424 36.4596 0H27.509Z" fill="#454545"/><path d="M27.4965 7.19238C21.9824 7.19238 21.2903 7.2165 19.1246 7.31509C16.9631 7.41409 15.4877 7.75639 14.1967 8.25863C12.8613 8.77736 11.7285 9.47127 10.5999 10.6006C9.47052 11.7294 8.7768 12.8625 8.25651 14.1979C7.75315 15.4896 7.41052 16.9659 7.31323 19.1271C7.21679 21.2935 7.19141 21.9861 7.19141 27.5018C7.19141 33.0175 7.21594 33.7076 7.31408 35.8739C7.41348 38.036 7.75568 39.5118 8.25736 40.8032C8.77638 42.139 9.47009 43.2721 10.5991 44.4009C11.7272 45.5306 12.86 46.2262 14.1946 46.745C15.4864 47.2472 16.9622 47.5895 19.1233 47.6885C21.2891 47.7871 21.9807 47.8112 27.4944 47.8112C33.0091 47.8112 33.699 47.7871 35.8647 47.6885C38.0262 47.5895 39.5033 47.2472 40.7952 46.745C42.1301 46.2262 43.2612 45.5306 44.3894 44.4009C45.5188 43.2721 46.2125 42.139 46.7328 40.8036C47.2319 39.5119 47.5745 38.0356 47.6761 35.8744C47.7734 33.708 47.7987 33.0175 47.7987 27.5018C47.7987 21.9861 47.7734 21.2939 47.6761 19.1275C47.5745 16.9654 47.2319 15.4896 46.7328 14.1983C46.2125 12.8625 45.5188 11.7294 44.3894 10.6006C43.26 9.47084 42.1306 8.77694 40.7939 8.25863C39.4995 7.75639 38.0233 7.41409 35.8617 7.31509C33.696 7.2165 33.0065 7.19238 27.4906 7.19238H27.4965ZM25.6751 10.8523C26.2157 10.8515 26.8189 10.8523 27.4965 10.8523C32.9177 10.8523 33.5602 10.8718 35.701 10.9691C37.6806 11.0596 38.755 11.3905 39.4708 11.6685C40.4183 12.0366 41.0938 12.4766 41.804 13.1875C42.5147 13.8983 42.9546 14.5753 43.3234 15.523C43.6013 16.2381 43.9325 17.3128 44.0226 19.293C44.1199 21.4339 44.1411 22.0771 44.1411 27.4971C44.1411 32.9172 44.1199 33.5603 44.0226 35.7013C43.9321 37.6815 43.6013 38.7562 43.3234 39.4712C42.9554 40.419 42.5147 41.0939 41.804 41.8043C41.0934 42.5151 40.4187 42.9551 39.4708 43.3232C38.7559 43.6025 37.6806 43.9325 35.701 44.0231C33.5606 44.1204 32.9177 44.1416 27.4965 44.1416C22.075 44.1416 21.4325 44.1204 19.2921 44.0231C17.3125 43.9317 16.2381 43.6008 15.5219 43.3228C14.5744 42.9547 13.8976 42.5147 13.187 41.8039C12.4763 41.093 12.0364 40.4177 11.6676 39.4695C11.3897 38.7545 11.0584 37.6798 10.9684 35.6996C10.8711 33.5587 10.8516 32.9155 10.8516 27.4921C10.8516 22.0686 10.8711 21.4289 10.9684 19.2879C11.0589 17.3077 11.3897 16.233 11.6676 15.5171C12.0356 14.5694 12.4763 13.8924 13.187 13.1815C13.8976 12.4707 14.5744 12.0307 15.5219 11.6617C16.2376 11.3825 17.3125 11.0524 19.2921 10.9615C21.1651 10.8768 21.891 10.8515 25.6751 10.8472V10.8523ZM38.3346 14.2245C37.8527 14.2245 37.3816 14.3675 36.9809 14.6353C36.5802 14.9031 36.2679 15.2838 36.0835 15.7292C35.8991 16.1746 35.8509 16.6646 35.945 17.1374C36.0391 17.6102 36.2712 18.0445 36.612 18.3853C36.9529 18.7261 37.3871 18.9581 37.8598 19.0521C38.3325 19.146 38.8224 19.0976 39.2676 18.913C39.7128 18.7284 40.0932 18.4159 40.3608 18.015C40.6285 17.6141 40.7712 17.1429 40.7711 16.6608C40.7711 15.3153 39.6797 14.2237 38.3346 14.2237V14.2245ZM27.4965 17.0721C21.7383 17.0721 17.0697 21.742 17.0697 27.5018C17.0697 33.2616 21.7383 37.9294 27.4965 37.9294C33.2548 37.9294 37.9222 33.2616 37.9222 27.5018C37.9222 21.742 33.2548 17.0721 27.4965 17.0721ZM27.4965 20.732C31.2342 20.732 34.2645 23.7627 34.2645 27.5018C34.2645 31.2404 31.2342 34.2716 27.4965 34.2716C23.7585 34.2716 20.7286 31.2404 20.7286 27.5018C20.7286 23.7627 23.7585 20.732 27.4965 20.732Z" fill="white"/><defs><radialGradient id="paint0_radial_398_12067" cx="0" cy="0" r="1" gradientUnits="userSpaceOnUse" gradientTransform="translate(14.6094 59.2362) rotate(-90) scale(54.5091 50.6977)"><stop stop-color="#FFDD55"/><stop offset="0.1" stop-color="#FFDD55"/><stop offset="0.5" stop-color="#FF543E"/><stop offset="1" stop-color="#C837AB"/></radialGradient></defs></svg>