<svg width="69" height="69" fill="none" xmlns="http://www.w3.org/2000/svg"><path d="M34.5113 0C20.1078 0 15.8954 0.0148628 15.0766 0.082807C12.1207 0.328574 10.2814 0.794098 8.27762 1.79203C6.73337 2.55906 5.51548 3.44817 4.31352 4.69452C2.12451 6.96747 0.797832 9.7638 0.317576 13.0878C0.0840816 14.7014 0.0161559 15.0305 0.00235853 23.273C-0.00294816 26.0205 0.00235853 29.6364 0.00235853 34.4865C0.00235853 48.8821 0.0182786 53.0915 0.0872656 53.909C0.326067 56.786 0.777136 58.596 1.73234 60.576C3.55784 64.366 7.04434 67.2112 11.1517 68.2728C12.5739 68.6391 14.1447 68.8408 16.1612 68.9363C17.0156 68.9735 25.7239 69 34.4375 69C43.1511 69 51.8647 68.9894 52.6978 68.9469C55.0328 68.837 56.3886 68.655 57.8878 68.2675C59.9244 67.7451 61.8224 66.7842 63.4494 65.4521C65.0763 64.1199 66.3929 62.4486 67.3072 60.5548C68.2438 58.6226 68.7187 56.7435 68.9337 54.0167C68.9804 53.4222 69 43.9435 69 34.4774C69 25.0098 68.9788 15.5486 68.9321 14.9541C68.7145 12.1832 68.2395 10.3201 67.2727 8.35077C66.4793 6.73869 65.5984 5.5348 64.3195 4.30384C62.0376 2.12326 59.2463 0.796221 55.9195 0.316365C54.3079 0.0833378 53.9868 0.014332 45.7402 0H34.5113Z" fill="url(#paint0_radial_398_10444)"/><path d="M34.5113 0C20.1078 0 15.8954 0.0148628 15.0766 0.082807C12.1207 0.328574 10.2814 0.794098 8.27762 1.79203C6.73337 2.55906 5.51548 3.44817 4.31352 4.69452C2.12451 6.96747 0.797832 9.7638 0.317576 13.0878C0.0840816 14.7014 0.0161559 15.0305 0.00235853 23.273C-0.00294816 26.0205 0.00235853 29.6364 0.00235853 34.4865C0.00235853 48.8821 0.0182786 53.0915 0.0872656 53.909C0.326067 56.786 0.777136 58.596 1.73234 60.576C3.55784 64.366 7.04434 67.2112 11.1517 68.2728C12.5739 68.6391 14.1447 68.8408 16.1612 68.9363C17.0156 68.9735 25.7239 69 34.4375 69C43.1511 69 51.8647 68.9894 52.6978 68.9469C55.0328 68.837 56.3886 68.655 57.8878 68.2675C59.9244 67.7451 61.8224 66.7842 63.4494 65.4521C65.0763 64.1199 66.3929 62.4486 67.3072 60.5548C68.2438 58.6226 68.7187 56.7435 68.9337 54.0167C68.9804 53.4222 69 43.9435 69 34.4774C69 25.0098 68.9788 15.5486 68.9321 14.9541C68.7145 12.1832 68.2395 10.3201 67.2727 8.35077C66.4793 6.73869 65.5984 5.5348 64.3195 4.30384C62.0376 2.12326 59.2463 0.796221 55.9195 0.316365C54.3079 0.0833378 53.9868 0.014332 45.7402 0H34.5113Z" fill="#F4EFEC"/><path d="M34.4952 9.02317C27.5774 9.02317 26.7092 9.05343 23.9922 9.17711C21.2805 9.30132 19.4295 9.73075 17.8099 10.3608C16.1346 11.0116 14.7134 11.8821 13.2976 13.2989C11.8807 14.7151 11.0104 16.1366 10.3577 17.8119C9.72621 19.4324 9.29637 21.2844 9.17432 23.9958C9.05332 26.7136 9.02148 27.5826 9.02148 34.5023C9.02148 41.4219 9.05226 42.2877 9.17538 45.0055C9.30009 47.7179 9.7294 49.5694 10.3588 51.1895C11.0099 52.8652 11.8802 54.2868 13.2966 55.703C14.7119 57.1202 16.133 57.9929 17.8072 58.6437C19.4279 59.2738 21.2794 59.7032 23.9906 59.8274C26.7076 59.9511 27.5753 59.9813 34.4926 59.9813C41.4109 59.9813 42.2764 59.9511 44.9935 59.8274C47.7052 59.7032 49.5583 59.2738 51.1789 58.6437C52.8537 57.9929 54.2727 57.1202 55.688 55.703C57.1049 54.2868 57.9752 52.8652 58.6279 51.19C59.2541 49.5694 59.684 47.7174 59.8113 45.006C59.9334 42.2882 59.9652 41.4219 59.9652 34.5023C59.9652 27.5826 59.9334 26.7141 59.8113 23.9964C59.684 21.2839 59.2541 19.4324 58.6279 17.8124C57.9752 16.1366 57.1049 14.7151 55.688 13.2989C54.2711 11.8816 52.8543 11.0111 51.1773 10.3608C49.5535 9.73075 47.7015 9.30132 44.9897 9.17711C42.2727 9.05343 41.4077 9.02317 34.4878 9.02317H34.4952ZM32.2101 13.6147C32.8883 13.6137 33.6451 13.6147 34.4952 13.6147C41.2963 13.6147 42.1024 13.6391 44.7881 13.7612C47.2716 13.8748 48.6195 14.2899 49.5174 14.6387C50.7061 15.1005 51.5536 15.6525 52.4446 16.5443C53.3361 17.436 53.888 18.2853 54.3507 19.4744C54.6994 20.3714 55.1149 21.7197 55.2279 24.2039C55.35 26.8898 55.3765 27.6967 55.3765 34.4964C55.3765 41.2961 55.35 42.103 55.2279 44.7889C55.1144 47.2731 54.6994 48.6214 54.3507 49.5185C53.8891 50.7075 53.3361 51.5541 52.4446 52.4454C51.5531 53.3371 50.7066 53.8892 49.5174 54.351C48.6206 54.7013 47.2716 55.1154 44.7881 55.229C42.1029 55.351 41.2963 55.3776 34.4952 55.3776C27.6936 55.3776 26.8875 55.351 24.2023 55.229C21.7188 55.1143 20.3709 54.6992 19.4725 54.3505C18.2838 53.8886 17.4347 53.3366 16.5432 52.4448C15.6517 51.5531 15.0998 50.7059 14.637 49.5163C14.2884 48.6193 13.8729 47.271 13.7598 44.7868C13.6378 42.1009 13.6134 41.294 13.6134 34.49C13.6134 27.6861 13.6378 26.8835 13.7598 24.1976C13.8734 21.7133 14.2884 20.3651 14.637 19.4669C15.0987 18.2779 15.6517 17.4286 16.5432 16.5368C17.4347 15.6451 18.2838 15.093 19.4725 14.6302C20.3704 14.2798 21.7188 13.8658 24.2023 13.7517C26.5522 13.6455 27.4628 13.6137 32.2101 13.6083V13.6147ZM48.092 17.8453C47.4874 17.8453 46.8964 18.0246 46.3937 18.3607C45.891 18.6967 45.4993 19.1742 45.2679 19.733C45.0366 20.2917 44.9762 20.9065 45.0942 21.4997C45.2122 22.0928 45.5034 22.6376 45.931 23.0651C46.3586 23.4927 46.9033 23.7838 47.4964 23.9017C48.0894 24.0195 48.704 23.9588 49.2625 23.7272C49.821 23.4957 50.2983 23.1036 50.6341 22.6007C50.9698 22.0977 51.1489 21.5065 51.1487 20.9017C51.1487 19.2137 49.7796 17.8442 48.092 17.8442V17.8453ZM34.4952 21.4177C27.2712 21.4177 21.4142 27.2763 21.4142 34.5023C21.4142 41.7282 27.2712 47.5842 34.4952 47.5842C41.7192 47.5842 47.5746 41.7282 47.5746 34.5023C47.5746 27.2763 41.7192 21.4177 34.4952 21.4177ZM34.4952 26.0092C39.1842 26.0092 42.9859 29.8114 42.9859 34.5023C42.9859 39.1925 39.1842 42.9953 34.4952 42.9953C29.8057 42.9953 26.0045 39.1925 26.0045 34.5023C26.0045 29.8114 29.8057 26.0092 34.4952 26.0092Z" fill="white"/><path d="M34.5113 0C20.1078 0 15.8954 0.0148628 15.0766 0.082807C12.1207 0.328574 10.2814 0.794098 8.27762 1.79203C6.73337 2.55906 5.51548 3.44817 4.31352 4.69452C2.12451 6.96747 0.797832 9.7638 0.317576 13.0878C0.0840816 14.7014 0.0161559 15.0305 0.00235853 23.273C-0.00294816 26.0205 0.00235853 29.6364 0.00235853 34.4865C0.00235853 48.8821 0.0182786 53.0915 0.0872656 53.909C0.326067 56.786 0.777136 58.596 1.73234 60.576C3.55784 64.366 7.04434 67.2112 11.1517 68.2728C12.5739 68.6391 14.1447 68.8408 16.1612 68.9363C17.0156 68.9735 25.7239 69 34.4375 69C43.1511 69 51.8647 68.9894 52.6978 68.9469C55.0328 68.837 56.3886 68.655 57.8878 68.2675C59.9244 67.7451 61.8224 66.7842 63.4494 65.4521C65.0763 64.1199 66.3929 62.4486 67.3072 60.5548C68.2438 58.6226 68.7187 56.7435 68.9337 54.0167C68.9804 53.4222 69 43.9435 69 34.4774C69 25.0098 68.9788 15.5486 68.9321 14.9541C68.7145 12.1832 68.2395 10.3201 67.2727 8.35077C66.4793 6.73869 65.5984 5.5348 64.3195 4.30384C62.0376 2.12326 59.2463 0.796221 55.9195 0.316365C54.3079 0.0833378 53.9868 0.014332 45.7402 0H34.5113Z" fill="url(#paint1_radial_398_10444)"/><path d="M34.5113 0C20.1078 0 15.8954 0.0148628 15.0766 0.082807C12.1207 0.328574 10.2814 0.794098 8.27762 1.79203C6.73337 2.55906 5.51548 3.44817 4.31352 4.69452C2.12451 6.96747 0.797832 9.7638 0.317576 13.0878C0.0840816 14.7014 0.0161559 15.0305 0.00235853 23.273C-0.00294816 26.0205 0.00235853 29.6364 0.00235853 34.4865C0.00235853 48.8821 0.0182786 53.0915 0.0872656 53.909C0.326067 56.786 0.777136 58.596 1.73234 60.576C3.55784 64.366 7.04434 67.2112 11.1517 68.2728C12.5739 68.6391 14.1447 68.8408 16.1612 68.9363C17.0156 68.9735 25.7239 69 34.4375 69C43.1511 69 51.8647 68.9894 52.6978 68.9469C55.0328 68.837 56.3886 68.655 57.8878 68.2675C59.9244 67.7451 61.8224 66.7842 63.4494 65.4521C65.0763 64.1199 66.3929 62.4486 67.3072 60.5548C68.2438 58.6226 68.7187 56.7435 68.9337 54.0167C68.9804 53.4222 69 43.9435 69 34.4774C69 25.0098 68.9788 15.5486 68.9321 14.9541C68.7145 12.1832 68.2395 10.3201 67.2727 8.35077C66.4793 6.73869 65.5984 5.5348 64.3195 4.30384C62.0376 2.12326 59.2463 0.796221 55.9195 0.316365C54.3079 0.0833378 53.9868 0.014332 45.7402 0H34.5113Z" fill="url(#paint2_radial_398_10444)"/><path d="M34.4952 9.02317C27.5774 9.02317 26.7092 9.05343 23.9922 9.17711C21.2805 9.30132 19.4295 9.73075 17.8099 10.3608C16.1346 11.0116 14.7134 11.8821 13.2976 13.2989C11.8807 14.7151 11.0104 16.1366 10.3577 17.8119C9.72621 19.4324 9.29637 21.2844 9.17432 23.9958C9.05332 26.7136 9.02148 27.5826 9.02148 34.5023C9.02148 41.4219 9.05226 42.2877 9.17538 45.0055C9.30009 47.7179 9.7294 49.5694 10.3588 51.1895C11.0099 52.8652 11.8802 54.2868 13.2966 55.703C14.7119 57.1202 16.133 57.9929 17.8072 58.6437C19.4279 59.2738 21.2794 59.7032 23.9906 59.8274C26.7076 59.9511 27.5753 59.9813 34.4926 59.9813C41.4109 59.9813 42.2764 59.9511 44.9935 59.8274C47.7052 59.7032 49.5583 59.2738 51.1789 58.6437C52.8537 57.9929 54.2727 57.1202 55.688 55.703C57.1049 54.2868 57.9752 52.8652 58.6279 51.19C59.2541 49.5694 59.684 47.7174 59.8113 45.006C59.9334 42.2882 59.9652 41.4219 59.9652 34.5023C59.9652 27.5826 59.9334 26.7141 59.8113 23.9964C59.684 21.2839 59.2541 19.4324 58.6279 17.8124C57.9752 16.1366 57.1049 14.7151 55.688 13.2989C54.2711 11.8816 52.8543 11.0111 51.1773 10.3608C49.5535 9.73075 47.7015 9.30132 44.9897 9.17711C42.2727 9.05343 41.4077 9.02317 34.4878 9.02317H34.4952ZM32.2101 13.6147C32.8883 13.6137 33.6451 13.6147 34.4952 13.6147C41.2963 13.6147 42.1024 13.6391 44.7881 13.7612C47.2716 13.8748 48.6195 14.2899 49.5174 14.6387C50.7061 15.1005 51.5536 15.6525 52.4446 16.5443C53.3361 17.436 53.888 18.2853 54.3507 19.4744C54.6994 20.3714 55.1149 21.7197 55.2279 24.2039C55.35 26.8898 55.3765 27.6967 55.3765 34.4964C55.3765 41.2961 55.35 42.103 55.2279 44.7889C55.1144 47.2731 54.6994 48.6214 54.3507 49.5185C53.8891 50.7075 53.3361 51.5541 52.4446 52.4454C51.5531 53.3371 50.7066 53.8892 49.5174 54.351C48.6206 54.7013 47.2716 55.1154 44.7881 55.229C42.1029 55.351 41.2963 55.3776 34.4952 55.3776C27.6936 55.3776 26.8875 55.351 24.2023 55.229C21.7188 55.1143 20.3709 54.6992 19.4725 54.3505C18.2838 53.8886 17.4347 53.3366 16.5432 52.4448C15.6517 51.5531 15.0998 50.7059 14.637 49.5163C14.2884 48.6193 13.8729 47.271 13.7598 44.7868C13.6378 42.1009 13.6134 41.294 13.6134 34.49C13.6134 27.6861 13.6378 26.8835 13.7598 24.1976C13.8734 21.7133 14.2884 20.3651 14.637 19.4669C15.0987 18.2779 15.6517 17.4286 16.5432 16.5368C17.4347 15.6451 18.2838 15.093 19.4725 14.6302C20.3704 14.2798 21.7188 13.8658 24.2023 13.7517C26.5522 13.6455 27.4628 13.6137 32.2101 13.6083V13.6147ZM48.092 17.8453C47.4874 17.8453 46.8964 18.0246 46.3937 18.3607C45.891 18.6967 45.4993 19.1742 45.2679 19.733C45.0366 20.2917 44.9762 20.9065 45.0942 21.4997C45.2122 22.0928 45.5034 22.6376 45.931 23.0651C46.3586 23.4927 46.9033 23.7838 47.4964 23.9017C48.0894 24.0195 48.704 23.9588 49.2625 23.7272C49.821 23.4957 50.2983 23.1036 50.6341 22.6007C50.9698 22.0977 51.1489 21.5065 51.1487 20.9017C51.1487 19.2137 49.7796 17.8442 48.092 17.8442V17.8453ZM34.4952 21.4177C27.2712 21.4177 21.4142 27.2763 21.4142 34.5023C21.4142 41.7282 27.2712 47.5842 34.4952 47.5842C41.7192 47.5842 47.5746 41.7282 47.5746 34.5023C47.5746 27.2763 41.7192 21.4177 34.4952 21.4177ZM34.4952 26.0092C39.1842 26.0092 42.9859 29.8114 42.9859 34.5023C42.9859 39.1925 39.1842 42.9953 34.4952 42.9953C29.8057 42.9953 26.0045 39.1925 26.0045 34.5023C26.0045 29.8114 29.8057 26.0092 34.4952 26.0092Z" fill="white"/><defs><radialGradient id="paint0_radial_398_10444" cx="0" cy="0" r="1" gradientUnits="userSpaceOnUse" gradientTransform="translate(18.3282 74.3144) rotate(-90) scale(68.3841 63.6026)"><stop stop-color="#FFDD55"/><stop offset="0.1" stop-color="#FFDD55"/><stop offset="0.5" stop-color="#FF543E"/><stop offset="1" stop-color="#C837AB"/></radialGradient><radialGradient id="paint1_radial_398_10444" cx="0" cy="0" r="1" gradientUnits="userSpaceOnUse" gradientTransform="translate(18.3282 74.3144) rotate(-90) scale(68.3841 63.6026)"><stop stop-color="#FFDD55"/><stop offset="0.1" stop-color="#FFDD55"/><stop offset="0.5" stop-color="#FF543E"/><stop offset="1" stop-color="#C837AB"/></radialGradient><radialGradient id="paint2_radial_398_10444" cx="0" cy="0" r="1" gradientUnits="userSpaceOnUse" gradientTransform="translate(-11.5579 4.97064) rotate(78.6806) scale(30.568 126.002)"><stop stop-color="#3771C8"/><stop offset="0.128" stop-color="#3771C8"/><stop offset="1" stop-color="#6600FF" stop-opacity="0"/></radialGradient></defs></svg>