<svg xmlns="http://www.w3.org/2000/svg" width="55" height="55" fill="none"><mask id="a" width="55" height="55" x="0" y="0" maskUnits="userSpaceOnUse" style="mask-type:luminance"><path fill="#fff" d="M54.73 0H.27v55h54.46V0Z"/></mask><g mask="url(#a)"><path fill="currentColor" d="M.27 26.4c0-12.45 0-18.67 3.83-22.53C7.93 0 14.09 0 26.4 0h2.18c12.32 0 18.48 0 22.3 3.87 3.84 3.86 3.84 10.08 3.84 22.53v2.2c0 12.45 0 18.67-3.83 22.53C47.07 55 40.9 55 28.59 55H26.4C14.09 55 7.93 55 4.1 51.13.27 47.27.27 41.05.27 28.6v-2.2Z"/><path fill="#fff" d="M29.25 39.62c-12.41 0-19.5-8.6-19.79-22.9h6.22c.2 10.5 4.79 14.95 8.42 15.87V16.73h5.85v9.05c3.58-.39 7.35-4.51 8.62-9.05h5.86c-.98 5.6-5.06 9.72-7.97 11.41a18.04 18.04 0 0 1 9.33 11.48h-6.45c-1.38-4.35-4.83-7.72-9.39-8.18v8.18h-.7Z"/></g></svg>