<svg width="76" height="28" fill="none" xmlns="http://www.w3.org/2000/svg"><path fill-rule="evenodd" clip-rule="evenodd" d="M9.57527 0.759766C9.3373 0.761658 9.03875 0.76495 8.63304 0.770209C7.98548 0.788409 7.49422 0.830106 7.01276 0.921144C6.42612 1.0319 5.89501 1.2142 5.38721 1.48648C4.87117 1.76254 4.3986 2.12378 3.98859 2.5557C3.57904 2.98622 3.23535 3.48401 2.97175 4.02873C2.71266 4.56432 2.53917 5.12459 2.43296 5.74494C2.34623 6.25272 2.30688 6.76879 2.28968 7.44344L2.28378 7.7245C2.28221 7.82099 2.281 7.92084 2.28015 8.02596L2.27734 8.63647L2.27738 18.6216L2.27912 19.057C2.28047 19.3342 2.28371 19.5728 2.28968 19.802C2.30692 20.4762 2.34626 20.9924 2.43292 21.4994C2.5392 22.1202 2.71273 22.6808 2.97172 23.2161C3.23542 23.7606 3.57897 24.2582 3.98887 24.6896C4.39928 25.1214 4.87188 25.4828 5.38782 25.7588C5.89501 26.0308 6.42612 26.2131 7.01297 26.3238C7.45046 26.4066 7.89623 26.4486 8.45255 26.4691L8.86945 26.4799C9.08624 26.4831 9.40664 26.4849 10.0463 26.487L19.1173 26.4855C19.3578 26.4837 19.6484 26.4805 20.0922 26.4748C20.7398 26.4565 21.2311 26.4149 21.7125 26.3238C22.2991 26.2131 22.8303 26.0308 23.3381 25.7585C23.8536 25.4825 24.3264 25.121 24.7364 24.6896C25.1466 24.2579 25.4901 23.7601 25.7532 23.216C26.0125 22.6809 26.1862 22.1199 26.292 21.499C26.3708 21.0378 26.4108 20.5676 26.4303 19.9811L26.4356 19.8015C26.4392 19.6643 26.4418 19.5235 26.4436 19.3731L26.4477 18.1896L26.4471 8.40153L26.4436 7.87184C26.4418 7.72144 26.4392 7.58049 26.4356 7.44295C26.4184 6.77155 26.3787 6.2534 26.292 5.74528C26.1862 5.12485 26.0126 4.56421 25.7529 4.02835C25.4902 3.48451 25.1465 2.98648 24.7361 2.5551C24.3271 2.1242 23.8543 1.76288 23.3377 1.48629C22.8303 1.2142 22.2991 1.0319 21.7123 0.921107C21.2748 0.838393 20.829 0.796393 20.2727 0.775923L19.7939 0.764268C19.7558 0.763776 19.7146 0.763323 19.6692 0.762906L9.57527 0.759766Z" fill="#1A1A1A" fill-opacity="0.01"/><path fill-rule="evenodd" clip-rule="evenodd" d="M8.64197 1.52601L9.61501 1.51538L19.7394 1.51954C19.8929 1.52121 19.9883 1.52325 20.0838 1.52601C20.5857 1.5402 21.092 1.57149 21.5884 1.66537C22.0923 1.76049 22.561 1.91612 23.0185 2.16146C23.4681 2.40219 23.88 2.71677 24.2368 3.09273C24.5937 3.46777 24.8926 3.90087 25.1214 4.37441C25.3549 4.85631 25.5024 5.34949 25.5928 5.87979C25.682 6.40214 25.7117 6.93493 25.7252 7.46315C25.7316 7.70554 25.7343 7.94796 25.7355 8.19077L25.7369 8.62246L25.7371 18.1888C25.7371 18.4767 25.7371 18.7646 25.7355 19.0529C25.7343 19.2953 25.7316 19.5377 25.7252 19.7801C25.7117 20.3079 25.682 20.8411 25.5928 21.363C25.5024 21.8933 25.3549 22.3869 25.1214 22.8688C24.8926 23.3419 24.5937 23.775 24.2368 24.1505C23.88 24.526 23.4681 24.841 23.0185 25.0818C22.561 25.3271 22.0923 25.4827 21.5884 25.5779C21.092 25.6717 20.5857 25.703 20.0838 25.7172L18.5716 25.7297L8.98611 25.7237C8.8326 25.722 8.7373 25.72 8.64197 25.7172C8.14004 25.703 7.63373 25.6717 7.13735 25.5779C6.63346 25.4827 6.16483 25.3271 5.7073 25.0818C5.2573 24.841 4.84576 24.526 4.48892 24.1505C4.13212 23.775 3.83315 23.3419 3.60399 22.8688C3.37089 22.3869 3.22338 21.8933 3.13259 21.363C3.04338 20.8411 3.01405 20.3079 3.00058 19.7801C2.99422 19.5377 2.99144 19.2953 2.99027 19.0529L2.98853 18.6207L2.98828 9.05446C2.98828 8.76655 2.98828 8.47826 2.99027 8.19077C2.99144 7.94796 2.99422 7.70554 3.00058 7.46315C3.01405 6.93493 3.04338 6.40214 3.13259 5.87979C3.22338 5.34949 3.37089 4.85631 3.60399 4.37441C3.83315 3.90087 4.13212 3.46777 4.48892 3.09273C4.84576 2.71677 5.2573 2.40219 5.7073 2.16146C6.16483 1.91612 6.63346 1.76049 7.13735 1.66537C7.63373 1.57149 8.14004 1.5402 8.64197 1.52601Z" fill="#1A1A1A" fill-opacity="0.01"/><mask id="mask0_398_9878" style="mask-type:alpha" maskUnits="userSpaceOnUse" x="2" y="1" width="24" height="25"><path fill-rule="evenodd" clip-rule="evenodd" d="M8.64197 1.52601L9.61501 1.51538L19.7394 1.51954C19.8929 1.52121 19.9883 1.52325 20.0838 1.52601C20.5857 1.5402 21.092 1.57149 21.5884 1.66537C22.0923 1.76049 22.561 1.91612 23.0185 2.16146C23.4681 2.40219 23.88 2.71677 24.2368 3.09273C24.5937 3.46777 24.8926 3.90087 25.1214 4.37441C25.3549 4.85631 25.5024 5.34949 25.5928 5.87979C25.682 6.40214 25.7117 6.93493 25.7252 7.46315C25.7316 7.70554 25.7343 7.94796 25.7355 8.19077L25.7369 8.62246L25.7371 18.1888C25.7371 18.4767 25.7371 18.7646 25.7355 19.0529C25.7343 19.2953 25.7316 19.5377 25.7252 19.7801C25.7117 20.3079 25.682 20.8411 25.5928 21.363C25.5024 21.8933 25.3549 22.3869 25.1214 22.8688C24.8926 23.3419 24.5937 23.775 24.2368 24.1505C23.88 24.526 23.4681 24.841 23.0185 25.0818C22.561 25.3271 22.0923 25.4827 21.5884 25.5779C21.092 25.6717 20.5857 25.703 20.0838 25.7172L18.5716 25.7297L8.98611 25.7237C8.8326 25.722 8.7373 25.72 8.64197 25.7172C8.14004 25.703 7.63373 25.6717 7.13735 25.5779C6.63346 25.4827 6.16483 25.3271 5.7073 25.0818C5.2573 24.841 4.84576 24.526 4.48892 24.1505C4.13212 23.775 3.83315 23.3419 3.60399 22.8688C3.37089 22.3869 3.22338 21.8933 3.13259 21.363C3.04338 20.8411 3.01405 20.3079 3.00058 19.7801C2.99422 19.5377 2.99144 19.2953 2.99027 19.0529L2.98853 18.6207L2.98828 9.05446C2.98828 8.76655 2.98828 8.47826 2.99027 8.19077C2.99144 7.94796 2.99422 7.70554 3.00058 7.46315C3.01405 6.93493 3.04338 6.40214 3.13259 5.87979C3.22338 5.34949 3.37089 4.85631 3.60399 4.37441C3.83315 3.90087 4.13212 3.46777 4.48892 3.09273C4.84576 2.71677 5.2573 2.40219 5.7073 2.16146C6.16483 1.91612 6.63346 1.76049 7.13735 1.66537C7.63373 1.57149 8.14004 1.5402 8.64197 1.52601Z" fill="white"/></mask><g mask="url(#mask0_398_9878)"><path d="M25.7371 1.51331H2.98828V25.7295H25.7371V1.51331Z" fill="#19AA1E"/><path fill-rule="evenodd" clip-rule="evenodd" d="M2.98828 1.51331H25.7371V9.45925L2.98828 5.67547V1.51331Z" fill="#FFB919"/><path fill-rule="evenodd" clip-rule="evenodd" d="M2.98828 23.0803L25.7371 19.2965V25.7289H2.98828V23.0803Z" fill="#82D714"/><path fill-rule="evenodd" clip-rule="evenodd" d="M2.98828 5.1969L10.9289 6.51763C11.9174 5.85157 13.0934 5.4864 14.3627 5.4864C16.1207 5.4864 17.6998 6.18696 18.8495 7.41715C18.9946 7.5724 19.1314 7.73472 19.2598 7.90329L25.7371 8.98064V9.93806L19.9175 8.97013C20.3498 9.85334 20.5831 10.8374 20.5831 11.8416C20.5831 13.139 20.3104 14.4326 19.7469 15.7313L19.7298 15.7707L19.4905 16.3166H18.9245C17.7559 16.3166 16.9807 16.6887 16.4739 17.3482C16.0759 17.866 15.8458 18.5641 15.7684 19.3257L15.766 19.3495L15.7547 19.4712L15.7499 19.5241L15.7407 19.6277C15.7111 19.9677 15.6913 20.2561 15.6812 20.4911L25.7371 18.8185V19.7759L2.98828 23.5597V22.6023L13.0555 20.9278L13.0511 20.7128L13.0498 20.6522L13.0489 20.6212L13.0474 20.5732C13.0383 20.3125 13.0159 19.9784 12.9799 19.5735L12.973 19.4968L12.9607 19.3638C12.8885 18.5982 12.6618 17.8913 12.2649 17.3658C11.7634 16.7018 10.9953 16.3242 9.8361 16.3167L9.80088 16.3166H9.23493L8.9956 15.7707C8.42045 14.4587 8.14231 13.1522 8.14231 11.8416C8.14231 10.1936 8.77039 8.6 9.87588 7.41715C9.9078 7.38302 9.94004 7.34927 9.97259 7.31597L2.98828 6.15427V5.1969Z" fill="white"/><path fill-rule="evenodd" clip-rule="evenodd" d="M14.363 6.43323C17.539 6.43323 19.6948 9.03545 19.6948 11.8425C19.6948 12.9695 19.4638 14.1422 18.9248 15.3715C15.7997 15.3715 15.0283 17.754 14.8825 19.253L14.8731 19.3528C14.8237 19.8878 14.7951 20.3171 14.7873 20.6407L13.9408 20.7815L13.9406 20.7524C13.9374 20.4131 13.9073 19.9373 13.8503 19.3248L13.8478 19.2981C13.7131 17.8023 12.9579 15.3715 9.80119 15.3715C9.26222 14.1422 9.03125 12.9695 9.03125 11.8425C9.03125 9.03545 11.1871 6.43323 14.363 6.43323Z" fill="#0073FA"/></g><path fill-rule="evenodd" clip-rule="evenodd" d="M36.2581 7.37891C33.4856 7.37891 31.4062 9.1762 31.4239 12.2978H34.001C33.9654 11.0492 34.7119 9.83837 36.2581 9.83837C37.431 9.83837 38.1775 10.6708 38.1775 11.7303C38.1775 12.8276 37.36 13.433 36.0448 14.114C34.3209 15.0032 33.2901 15.4194 31.4239 16.0816V19.6762H41.0211V17.2167H34.9074C35.7981 16.8215 36.6654 16.3874 37.4488 15.987C39.5282 14.9276 40.7545 13.7357 40.7545 11.5978C40.7545 9.02485 38.9417 7.37891 36.2581 7.37891ZM44.931 10.0276H49.9074V7.5681H42.4429V19.6762H44.931V10.0276ZM53.8173 7.5681H51.3292V19.6762H53.7995L58.4382 11.9384V19.6762H60.9263V7.5681H58.4382L53.8173 15.3059V7.5681ZM73.4204 15.1357H70.8434C70.4524 16.4789 69.2616 17.4059 67.8576 17.4059C65.8137 17.4059 64.4808 15.533 64.4808 13.6221C64.4808 11.7113 65.7782 9.83837 67.9287 9.83837C69.3505 9.83837 70.4524 10.7654 70.8434 12.1086H73.4204C73.0472 9.40323 71.0389 7.37891 67.8576 7.37891C64.3386 7.37891 61.9927 10.0086 61.9927 13.6221C61.9927 17.2357 64.3386 19.8654 67.8576 19.8654C71.0389 19.8654 73.0472 17.8789 73.4204 15.1357Z" fill="white"/></svg>