<svg width="48" height="48" fill="none" xmlns="http://www.w3.org/2000/svg"><path d="M23.9999 47.9984C37.2546 47.9984 47.9997 37.2536 47.9997 23.9992C47.9997 10.7448 37.2546 0 23.9999 0C10.7451 0 0 10.7448 0 23.9992C0 37.2536 10.7451 47.9984 23.9999 47.9984Z" fill="white"/><path d="M11.1679 16.7302V17.585H11.7367V16.7302H11.1679ZM11.1679 16.7302V17.585H11.7367V16.7302H11.1679ZM23.9999 0C10.7453 0 0 10.745 0 23.9992C0 25.9558 0.234018 27.8571 0.676052 29.6772C2.12241 29.3051 3.97343 29.0824 6.05522 29.4188C6.05522 29.4188 5.35804 28.6599 3.91655 28.5397C3.91655 28.5397 5.09477 24.9986 8.57579 23.5767C9.75238 23.0973 11.1922 22.8584 12.9393 23.081C12.9393 23.081 12.5801 22.7138 11.9105 22.4017C11.6587 22.2847 11.3645 22.1742 11.0281 22.0962C11.0281 22.0962 12.1543 19.3645 14.6456 18.0953C14.8146 18.0091 14.9918 17.9279 15.1738 17.858C15.3184 17.8011 15.4647 17.7508 15.6175 17.7053C16.4089 17.468 17.3076 17.3851 18.3217 17.5476C18.3217 17.5476 17.6082 16.6685 16.4869 16.5011C16.4869 16.5011 16.5194 16.1891 16.6592 15.7015C16.9972 14.5201 17.9576 12.3067 20.5757 10.9758C20.5757 10.9758 21.1006 7.92227 23.7496 7.92227C26.3985 7.92227 26.9235 10.9758 26.9235 10.9758C29.4782 12.2742 30.4549 14.4128 30.814 15.6138C30.9749 16.1517 31.0123 16.5011 31.0123 16.5011C29.8909 16.6685 29.1775 17.5476 29.1775 17.5476C30.4094 17.3494 31.4722 17.5151 32.3774 17.8791C32.4391 17.9035 32.4993 17.9295 32.5594 17.9555C32.7983 18.0611 33.0242 18.1798 33.2403 18.3098C35.4619 19.6472 36.4727 22.0962 36.4727 22.0962C36.2062 22.158 35.964 22.2409 35.7511 22.3302C34.9808 22.6536 34.5632 23.081 34.5632 23.081C36.4581 22.8405 37.9922 23.1412 39.2224 23.7051C39.3232 23.7522 39.4223 23.7993 39.5198 23.8497C39.5507 23.8659 39.5832 23.8822 39.6141 23.9001C42.5653 25.4699 43.5859 28.5397 43.5859 28.5397C42.146 28.6616 41.4472 29.4188 41.4472 29.4188C43.7581 29.0451 45.7847 29.3603 47.2895 29.804C47.7527 27.9449 47.9965 26.0013 47.9965 23.9992C47.9981 10.745 37.2528 0 23.9999 0ZM10.1392 16.1972V18.3927H9.51836V18.1164H9.03245V18.5844H8.41165V16.1972H10.1392ZM9.45336 15.9193V15.3863H11.397V15.9193H9.45336ZM12.3558 18.3943H11.735V18.118H11.1662V19.1386H10.5471V16.1972H12.3558V18.3943ZM12.7816 16.1078C11.9934 15.773 11.0557 15.2238 10.4691 14.5445C10.2903 14.7281 10.0937 14.8971 9.89377 15.0515C9.33472 15.4821 8.7253 15.8364 8.09475 16.1468C8.02487 16.1809 7.95662 16.2134 7.88186 16.2476L7.71285 15.929C8.21014 15.6089 8.6928 15.2449 9.12996 14.85C9.44523 14.5607 9.74426 14.2536 9.9799 13.8977C10.053 13.7856 10.1164 13.6718 10.1635 13.5597L10.9306 13.9643C10.8802 14.0456 10.8282 14.122 10.7746 14.1935C10.9127 14.3153 11.0622 14.4226 11.2166 14.5201C11.553 14.733 11.9203 14.902 12.2941 15.045C12.5395 15.1376 12.793 15.2221 13.0481 15.2839L12.7816 16.1078ZM13.0465 9.57335H10.9078C11.1077 9.79436 11.3141 10.0089 11.5238 10.2185C11.9366 10.6248 12.3802 11.0213 12.858 11.3382L12.3315 12.0028C11.8667 11.5641 11.4783 11.0798 11.111 10.5695C11.007 10.4233 10.9046 10.277 10.8055 10.1291V12.791H9.9539V10.1405C9.86614 10.2689 9.77838 10.3973 9.68738 10.524C9.31847 11.0343 8.93169 11.5186 8.46691 11.9573L7.94037 11.2927C8.64567 10.8149 9.26809 10.2071 9.84664 9.57335H7.71285V8.76244H9.9539V7.57613H10.8055V8.76244H13.0465V9.57335ZM11.735 16.7302H11.1662V17.585H11.735V16.7302ZM9.51836 16.7302H9.03245V17.585H9.51836V16.7302Z" fill="url(#paint0_linear_421_10327)"/><path d="M40.1937 31.6014C37.2555 31.6014 33.4218 29.7293 31.2653 28.4926V27.6362H30.313V25.4066H35.9847V24.4851C36.6705 24.5046 38.0161 24.4315 39.2219 23.7035C39.872 23.3118 40.483 22.7284 40.9283 21.8688C40.9576 21.8103 40.9868 21.7534 41.0144 21.6932C41.0063 21.6997 40.9446 21.7469 40.8259 21.8151C40.4196 22.0524 39.3471 22.5529 37.5204 22.5529C36.9614 22.5529 36.3617 22.47 35.749 22.3287C33.7729 21.8769 31.6602 20.8271 30.3097 20.0568V19.3044H30.0383V17.9881H32.3769V17.2097C32.5362 17.1625 33.4251 16.8603 34.0183 15.8072C34.1629 15.5488 34.2913 15.2466 34.3855 14.8923C34.3855 14.8923 33.9825 15.1881 33.2805 15.4237C32.8157 15.5797 32.2176 15.7097 31.5188 15.7097C31.3059 15.7097 31.0703 15.6772 30.8151 15.6138C29.1786 15.2157 26.7783 13.6263 24.7307 12.0841C24.9062 11.9021 25.0134 11.6551 25.0134 11.3821C25.0134 10.8588 24.6185 10.4298 24.1099 10.3746C24.196 10.3079 24.2984 10.1844 24.2984 9.98292C24.2984 9.63677 23.9977 8.30908 23.9977 8.30908C23.9977 8.30908 23.6971 9.63677 23.6971 9.98292C23.6971 10.1861 23.8011 10.3079 23.8856 10.3746C23.3769 10.4298 22.982 10.8605 22.982 11.3821C22.982 11.6551 23.0893 11.9021 23.2648 12.0841C20.988 13.7986 18.2724 15.5716 16.6587 15.7016C16.5953 15.7081 16.5352 15.7097 16.475 15.7097C15.6251 15.7097 14.9247 15.5179 14.429 15.3197C13.9041 15.11 13.6083 14.8939 13.6083 14.8939C13.6766 15.1474 13.7611 15.3749 13.8553 15.5781C14.4404 16.8196 15.4463 17.1625 15.6153 17.2129V17.9913H17.9555V19.3076H17.6825V20.06C16.2556 20.8742 13.9772 22.0004 11.9084 22.4034C11.4128 22.5009 10.9301 22.5562 10.4734 22.5562C8.11539 22.5562 7.01355 21.7225 6.97942 21.6965C7.38733 22.5627 7.95612 23.1639 8.57367 23.58C9.8299 24.4266 11.2893 24.5095 12.0124 24.4884V25.4098H17.6841V27.6394H16.7318V28.4958C14.5769 29.7325 10.7416 31.6046 7.80499 31.6046C4.86676 31.6046 3.51953 30.5483 3.51953 30.5483C5.36892 34.4778 9.92415 33.9756 10.2329 33.9366V34.7849H11.4306V40.1672H19.2605V37.1039H28.7382V40.1672H36.5681V34.7849H37.7642V33.9366C38.073 33.9756 42.6282 34.4761 44.4776 30.5483C44.4776 30.5451 43.1304 31.6014 40.1937 31.6014ZM16.8602 36.1841H13.1305V34.7833H16.8602V36.1841ZM27.0221 17.9881H28.6099V19.3044H27.0221V17.9881ZM28.6099 25.4082V27.6378H27.2935V25.4082H28.6099ZM22.0411 17.9881H25.956V19.3044H24.5714V18.4983H23.4257V19.3044H22.0411V17.9881ZM19.3873 17.9881H20.975V19.3044H19.3873V17.9881ZM19.3873 25.4082H20.7036V27.6378H19.3873V25.4082ZM23.1478 36.1841H19.2589V34.7833H23.1478V36.1841ZM23.4257 26.666V27.6362H22.0411V25.4066H25.956V27.6362H24.5714V26.666H23.4257ZM28.7382 36.1841H24.8493V34.7833H28.7382V36.1841ZM34.8666 36.1841H31.1369V34.7833H34.8666V36.1841Z" fill="#1E1E1C"/><path d="M9.23231 40.1753V42.3366H8.51562C8.57413 42.387 8.63101 42.4342 8.68951 42.4829C8.73502 42.5203 8.7789 42.5577 8.8244 42.595C8.8439 42.6113 8.8634 42.6275 8.88453 42.6438C8.93491 42.6844 8.98366 42.725 9.03404 42.764C9.04867 42.777 9.06329 42.7884 9.07792 42.7998C9.12505 42.8372 9.1738 42.8762 9.22255 42.9136C9.28431 42.9623 9.34606 43.0111 9.40944 43.0582C9.48583 43.1167 9.56221 43.1752 9.63859 43.2321C9.70847 43.2841 9.77835 43.3361 9.84823 43.3865C13.6608 46.1735 18.3249 47.8636 23.3774 47.9919C23.4765 47.9936 23.574 47.9968 23.6732 47.9984C23.6797 47.9984 23.6862 47.9984 23.691 47.9984C23.7918 48.0001 23.8942 48.0001 23.9966 48.0001C24.099 48.0001 24.1997 48.0001 24.3021 47.9984C24.3086 47.9984 24.3151 47.9984 24.32 47.9984C24.4191 47.9968 24.5166 47.9952 24.6157 47.9919C29.6699 47.8636 34.334 46.1735 38.1449 43.3865C38.2148 43.3345 38.2847 43.2824 38.3546 43.2321C38.4309 43.1736 38.5089 43.1167 38.5837 43.0582C38.6471 43.0111 38.7088 42.9623 38.7706 42.9136C38.8193 42.8762 38.8681 42.8372 38.9152 42.7998C38.9299 42.7884 38.9445 42.777 38.9575 42.7657C39.016 42.7185 39.0729 42.673 39.1314 42.6259C39.1915 42.5788 39.2484 42.53 39.3085 42.4813C39.367 42.4342 39.4255 42.3838 39.484 42.335V40.1785H9.23231V40.1753ZM13.6835 42.335H10.9338V41.5014H13.6835V42.335ZM25.7355 42.335H22.9857V41.5014H25.7355V42.335ZM37.7858 42.335H35.0377V41.5014H37.7858V42.335Z" fill="#1E1E1C"/><defs><linearGradient id="paint0_linear_421_10327" x1="4.24497" y1="5.69369" x2="26.4117" y2="35.798" gradientUnits="userSpaceOnUse"><stop stop-color="#8A5C2A"/><stop offset="0.514222" stop-color="#C2A650" stop-opacity="0.81"/><stop offset="0.619294" stop-color="#D1BA5A" stop-opacity="0.92"/><stop offset="0.697308" stop-color="#C8AD53" stop-opacity="0.86"/><stop offset="1" stop-color="#A37C36"/></linearGradient></defs></svg>