<svg width="264" height="264" viewBox="0 0 264 264" fill="none" xmlns="http://www.w3.org/2000/svg">
<g clip-path="url(#clip0_801_4914)">
<path d="M13.3341 2.53329C10.8008 3.86664 6.93414 7.19998 4.66748 9.86664L0.667476 14.9333L0.267476 130.4C0.000809431 241.067 0.134143 246.133 2.40081 250.667C3.86748 253.2 7.20081 257.067 9.86748 259.333L14.9341 263.333L97.7341 263.733C189.201 264.133 188.267 264.267 195.201 255.867C200.667 249.467 201.467 243.6 201.067 212.8L200.667 184L193.067 190.533C186.801 195.867 182.801 198 171.067 201.867C163.067 204.533 154.267 206.667 151.334 206.667C141.601 206.667 133.334 198.4 133.334 188.667C133.334 185.733 135.467 176.8 138.134 168.667L142.934 154L172.134 124.667L201.334 95.2V78.2666V61.3333H172.134C143.334 61.3333 142.801 61.3333 140.801 58.4C139.067 55.8666 138.667 50.6666 138.667 27.7333V-3.05176e-05H78.2675C22.1341 -3.05176e-05 17.6008 0.133301 13.3341 2.53329ZM152.001 80C155.601 83.6 155.334 87.3333 151.201 90.5333C147.734 93.2 146.267 93.3333 92.4008 93.3333H37.2008L34.0008 90C30.0008 86.1333 29.8675 83.4666 33.3341 80C35.8675 77.4666 37.7341 77.3333 92.6675 77.3333C147.601 77.3333 149.467 77.4666 152.001 80ZM120.667 111.333C124.667 115.2 124.801 116 121.201 120.533L118.534 124H77.2008C37.7341 124 35.8675 123.867 33.3341 121.333C31.8675 119.867 30.6675 117.467 30.6675 116C30.6675 114.533 31.8675 112.133 33.3341 110.667C35.8675 108.133 37.7341 108 76.6675 108H117.467L120.667 111.333ZM120.801 142C123.201 144.533 123.867 146.133 123.334 148.4C121.467 154.533 120.534 154.667 77.0675 154.667C37.7341 154.667 35.8675 154.533 33.3341 152C29.8675 148.533 30.0008 145.867 34.0008 142L37.2008 138.667H77.3341H117.467L120.801 142ZM122.134 173.867C123.867 176.8 124.001 177.733 122.401 180.933L120.667 184.667H77.3341H34.1341L32.1341 181.2C30.4008 178 30.4008 177.333 32.4008 174.133L34.6675 170.667H77.3341H120.001L122.134 173.867ZM151.201 218.8C155.334 222 155.601 225.733 152.001 229.333C149.467 231.867 147.601 232 123.601 232C104.267 232 97.2008 231.6 95.4675 230.267C92.0008 227.733 92.2675 221.333 96.0008 218.4C98.6675 216.267 101.734 216 123.334 216C145.867 216 147.867 216.133 151.201 218.8Z" fill="currentColor"/>
<path d="M154.668 23.2V46.6666L177.735 46.4L200.668 46L200.135 42C199.468 35.6 196.535 31.2 185.601 19.7333C173.601 7.19996 165.735 1.46663 159.335 0.399963L154.668 -0.40004V23.2Z" fill="currentColor"/>
<path d="M242 77.8667C239.867 78.9333 235.333 82.5333 232 85.8667L226 92L237.067 102.933L248 114L254.133 108C264.133 98.1333 266.267 91.6 261.733 83.8667C259.333 79.8667 252.667 76 248.4 76C247.067 76.1333 244.267 76.9333 242 77.8667Z" fill="currentColor"/>
<path d="M190.001 128C176.135 141.867 165.068 153.6 165.335 153.867C168.935 158 186.001 174.667 186.535 174.667C187.068 174.667 198.668 163.467 212.401 149.6L237.335 124.667L226.268 113.6L215.335 102.667L190.001 128Z" fill="currentColor"/>
<path d="M151.601 177.6C148.534 186.933 148.267 188.933 149.867 190.4C151.467 192 153.334 191.733 162.134 188.667C168.001 186.667 172.801 184.933 172.934 184.8C173.067 184.667 169.201 180.533 164.267 175.6L155.201 166.667L151.601 177.6Z" fill="currentColor"/>
</g>
<defs>
<clipPath id="clip0_801_4914">
<rect width="264" height="264" fill="white"/>
</clipPath>
</defs>
</svg>
