<svg xmlns="http://www.w3.org/2000/svg" width="55" height="55" fill="none"><path fill="url(#a)" d="M27.5 0C16.04 0 12.68.01 12.03.07 9.66.27 8.2.63 6.6 1.43c-1.23.61-2.2 1.32-3.16 2.31a11.8 11.8 0 0 0-3.19 6.7C.07 11.71.01 11.97 0 18.54v8.94c0 11.47.01 14.83.07 15.48.19 2.3.55 3.74 1.31 5.32a11.59 11.59 0 0 0 7.5 6.13c1.14.3 2.4.45 4 .53.68.03 7.62.05 14.57.05s13.9 0 14.56-.04c1.86-.09 2.94-.23 4.13-.54a11.51 11.51 0 0 0 7.51-6.15 13.6 13.6 0 0 0 1.3-5.21c.03-.48.05-8.03.05-15.58 0-7.54-.02-15.09-.05-15.56-.18-2.2-.56-3.7-1.33-5.26a10.9 10.9 0 0 0-2.35-3.23 11.87 11.87 0 0 0-6.7-3.18C43.3.07 43.03.01 36.46 0h-8.95Z"/><path fill="currentColor" d="M27.5 0C16.04 0 12.68.01 12.03.07 9.66.27 8.2.63 6.6 1.43c-1.23.61-2.2 1.32-3.16 2.31a11.8 11.8 0 0 0-3.19 6.7C.07 11.71.01 11.97 0 18.54v8.94c0 11.47.01 14.83.07 15.48.19 2.3.55 3.74 1.31 5.32a11.59 11.59 0 0 0 7.5 6.13c1.14.3 2.4.45 4 .53.68.03 7.62.05 14.57.05s13.9 0 14.56-.04c1.86-.09 2.94-.23 4.13-.54a11.51 11.51 0 0 0 7.51-6.15 13.6 13.6 0 0 0 1.3-5.21c.03-.48.05-8.03.05-15.58 0-7.54-.02-15.09-.05-15.56-.18-2.2-.56-3.7-1.33-5.26a10.9 10.9 0 0 0-2.35-3.23 11.87 11.87 0 0 0-6.7-3.18C43.3.07 43.03.01 36.46 0h-8.95Z"/><path fill="#fff" d="M27.5 7.2c-5.52 0-6.21.02-8.38.12-2.16.1-3.63.44-4.92.94a9.94 9.94 0 0 0-3.6 2.34 9.97 9.97 0 0 0-2.34 3.6c-.5 1.29-.85 2.77-.95 4.93-.1 2.16-.12 2.86-.12 8.37 0 5.52.03 6.2.12 8.37.1 2.17.45 3.64.95 4.93a9.95 9.95 0 0 0 2.34 3.6 9.94 9.94 0 0 0 3.6 2.34c1.29.5 2.76.85 4.92.95 2.17.1 2.86.12 8.37.12 5.52 0 6.2-.02 8.37-.12 2.17-.1 3.64-.44 4.94-.95a9.94 9.94 0 0 0 3.59-2.34 9.97 9.97 0 0 0 2.34-3.6c.5-1.29.84-2.76.95-4.93.1-2.16.12-2.85.12-8.37 0-5.51-.03-6.2-.12-8.37-.1-2.16-.45-3.64-.95-4.93a9.97 9.97 0 0 0-2.34-3.6 9.92 9.92 0 0 0-3.6-2.34c-1.3-.5-2.77-.85-4.93-.94a144 144 0 0 0-8.37-.13Zm-1.82 3.65h1.82c5.42 0 6.06.02 8.2.12 1.98.09 3.05.42 3.77.7.95.37 1.62.8 2.33 1.52a6.3 6.3 0 0 1 1.52 2.33c.28.72.61 1.8.7 3.77.1 2.14.12 2.79.12 8.2 0 5.43-.02 6.07-.12 8.21a11.23 11.23 0 0 1-.7 3.77c-.36.95-.8 1.62-1.52 2.33a6.28 6.28 0 0 1-2.33 1.52c-.71.28-1.79.61-3.77.7-2.14.1-2.78.12-8.2.12-5.43 0-6.07-.02-8.2-.12-1.99-.09-3.06-.42-3.78-.7a6.29 6.29 0 0 1-2.33-1.52 6.3 6.3 0 0 1-1.52-2.33c-.28-.72-.61-1.79-.7-3.77-.1-2.14-.12-2.78-.12-8.2 0-5.43.02-6.07.12-8.21.09-1.98.42-3.06.7-3.77a6.3 6.3 0 0 1 1.52-2.34 6.3 6.3 0 0 1 2.33-1.52c.72-.28 1.8-.6 3.77-.7 1.88-.08 2.6-.1 6.39-.11Zm12.65 3.37a2.44 2.44 0 1 0 0 4.88 2.44 2.44 0 0 0 0-4.88ZM27.5 17.07a10.43 10.43 0 1 0 0 20.86 10.43 10.43 0 0 0 0-20.86Zm0 3.66a6.77 6.77 0 1 1 0 13.54 6.77 6.77 0 0 1 0-13.54Z"/><defs><radialGradient id="a" cx="0" cy="0" r="1" gradientTransform="matrix(0 -54.5091 50.6977 0 14.6 59.24)" gradientUnits="userSpaceOnUse"><stop stop-color="#FD5"/><stop offset=".1" stop-color="#FD5"/><stop offset=".5" stop-color="#FF543E"/><stop offset="1" stop-color="#C837AB"/></radialGradient></defs></svg>
