<svg width="69" height="69" viewBox="0 0 69 69" fill="none" xmlns="http://www.w3.org/2000/svg">
<path d="M0 33.12C0 17.5071 0 9.70064 4.85031 4.85031C9.70064 0 17.5071 0 33.12 0H35.88C51.4929 0 59.2994 0 64.1497 4.85031C69 9.70064 69 17.5071 69 33.12V35.88C69 51.4929 69 59.2994 64.1497 64.1497C59.2994 69 51.4929 69 35.88 69H33.12C17.5071 69 9.70064 69 4.85031 64.1497C0 59.2994 0 51.4929 0 35.88V33.12Z" fill="#0077FF"/>
<path d="M36.7144 49.7114C20.9882 49.7114 12.0182 38.9302 11.6445 20.9902H19.522C19.7807 34.1576 25.5881 39.7351 30.1881 40.8851V20.9902H37.6059V32.3463C42.1483 31.8576 46.9203 26.6827 48.5303 20.9902H55.948C54.7117 28.0052 49.5367 33.1801 45.8567 35.3076C49.5367 37.0326 55.4308 41.5464 57.6733 49.7114H49.508C47.7543 44.2489 43.3846 40.0226 37.6059 39.4476V49.7114H36.7144Z" fill="white"/>
</svg>
