<svg width="55" height="55" viewBox="0 0 55 55" fill="none" xmlns="http://www.w3.org/2000/svg">
<g clip-path="url(#clip0_398_12093)">
<mask id="mask0_398_12093" style="mask-type:luminance" maskUnits="userSpaceOnUse" x="0" y="0" width="55" height="55">
<path d="M54.7269 0H0.271484V55H54.7269V0Z" fill="white"/>
</mask>
<g mask="url(#mask0_398_12093)">
<path d="M0.271484 26.4C0.271484 13.9549 0.271484 7.7324 4.0994 3.86619C7.92732 0 14.0882 0 26.4101 0H28.5883C40.9102 0 47.0711 0 50.899 3.86619C54.7269 7.7324 54.7269 13.9549 54.7269 26.4V28.6C54.7269 41.0451 54.7269 47.2676 50.899 51.1338C47.0711 55 40.9102 55 28.5883 55H26.4101C14.0882 55 7.92732 55 4.0994 51.1338C0.271484 47.2676 0.271484 41.0451 0.271484 28.6V26.4Z" fill="#454545"/>
<path d="M29.2464 39.6232C16.8351 39.6232 9.75592 31.0295 9.46094 16.7295H15.678C15.8822 27.2253 20.4654 31.6711 24.0957 32.5878V16.7295H29.9499V25.7815C33.5349 25.3919 37.3009 21.267 38.5716 16.7295H44.4257C43.45 22.3212 39.3659 26.4461 36.4616 28.1419C39.3659 29.5169 44.0175 33.1149 45.7873 39.6232H39.3432C37.9591 35.2691 34.5106 31.9003 29.9499 31.4419V39.6232H29.2464Z" fill="white"/>
</g>
</g>
<defs>
<clipPath id="clip0_398_12093">
<rect width="55" height="55" fill="white"/>
</clipPath>
</defs>
</svg>
