<svg width="264" height="264" viewBox="0 0 264 264" fill="none" xmlns="http://www.w3.org/2000/svg">
<path opacity="0.962" fill-rule="evenodd" clip-rule="evenodd" d="M52.6664 15.8171C49.5515 12.0392 45.5515 10.4836 40.6664 11.1504C39.082 12.3019 37.5266 13.6352 35.9998 15.1504C35.3347 20.4653 35.1124 25.7987 35.3331 31.1504C30.4242 30.93 25.5352 31.1523 20.6664 31.8171C16.7442 33.07 14.9663 35.7367 15.3331 39.8171C14.9136 43.4228 16.247 46.0895 19.3331 47.8171C24.648 48.4822 29.9814 48.7044 35.3331 48.4838C35.1124 53.8355 35.3347 59.1688 35.9998 64.4838C38.1094 67.432 40.9983 69.2099 44.6664 69.8171C48.6092 68.4739 52.1648 66.696 55.3331 64.4838C55.1116 72.0523 55.3339 79.6079 55.9998 87.1504C58.3907 90.8775 61.2795 94.2108 64.6664 97.1504L55.9998 105.817C55.3332 124.034 55.111 182.256 55.3331 200.484C52.0764 197.966 48.2987 196.189 43.9998 195.15C40.6306 195.849 37.9639 197.628 35.9998 200.484C35.3347 205.798 35.1124 211.132 35.3331 216.484C29.9814 216.262 24.648 216.485 19.3331 217.15C14.0142 222.424 14.0142 227.757 19.3331 233.15C24.648 233.816 29.9814 234.038 35.3331 233.817C35.1124 239.169 35.3347 244.502 35.9998 249.817C41.7487 255.249 47.3043 255.026 52.6664 249.15C105.111 248.261 157.556 248.261 210 249.15C215.462 254.924 221.017 255.146 226.666 249.817C227.332 244.502 227.554 239.169 227.333 233.817C232.685 234.038 238.018 233.816 243.333 233.15C248.652 227.757 248.652 222.424 243.333 217.15C238.018 216.485 232.685 216.262 227.333 216.484C227.554 211.132 227.332 205.798 226.666 200.484C224.557 197.536 221.668 195.757 218 195.15C214.057 196.493 210.501 198.272 207.333 200.484C209.788 189.724 206.677 181.278 198 175.15C201.586 172.676 204.474 169.565 206.666 165.817C207.333 145.377 207.556 84.9331 207.333 64.4838C210.59 67.0008 214.368 68.7786 218.666 69.8171C222.036 69.1182 224.702 67.3403 226.666 64.4838C227.332 59.1688 227.554 53.8355 227.333 48.4838C232.685 48.7044 238.018 48.4822 243.333 47.8171C244.889 47.1504 246 46.0394 246.666 44.4838C248.61 38.7763 247.056 34.554 242 31.8171C237.13 31.1523 232.242 30.93 227.333 31.1504C227.554 25.7987 227.332 20.4653 226.666 15.1504C221.017 9.82135 215.462 10.0436 210 15.8171C157.556 16.706 105.111 16.706 52.6664 15.8171ZM166 77.1504C142.893 76.4839 119.782 76.2616 96.6664 76.4838C94.6638 78.7171 92.886 81.1615 91.3331 83.8171C91.944 87.014 93.7218 89.2363 96.6664 90.4838C119.777 91.3727 142.889 91.3727 166 90.4838C172.901 86.1838 172.901 81.7392 166 77.1504ZM163.333 145.15C142.004 144.484 120.671 144.262 99.3331 144.484C97.2114 145.442 95.2114 146.776 93.3331 148.484C91.1795 154.604 93.1795 158.381 99.3331 159.817C120.666 160.706 142 160.706 163.333 159.817C165.772 159.453 167.772 158.341 169.333 156.484C171.486 150.364 169.486 146.586 163.333 145.15ZM166 174.484C142.893 173.817 119.782 173.594 96.6664 173.817C90.0794 178.43 90.0794 183.097 96.6664 187.817C119.777 188.706 142.889 188.706 166 187.817C172.901 183.228 172.901 178.784 166 174.484ZM163.334 110.151C142.004 109.484 120.672 109.262 99.3336 109.484C97.2118 110.443 95.2118 111.776 93.3336 113.484C91.18 119.604 93.18 123.381 99.3336 124.817C120.667 125.707 142 125.707 163.334 124.817C165.772 124.453 167.772 123.341 169.334 121.484C171.487 115.364 169.487 111.587 163.334 110.151Z" fill="currentColor"/>
</svg>
