<svg width="264" height="264" viewBox="0 0 264 264" fill="none" xmlns="http://www.w3.org/2000/svg">
<path d="M113.334 2.53336C99.2008 6.93335 87.2008 16.4 80.1341 28.2667L77.0675 33.3333H64.8008C51.0675 33.3333 47.7341 34.8 47.7341 40.4C47.7341 46.6667 50.0008 48 61.3341 48H71.6008L72.4008 59.6C73.2008 71.2 73.0675 71.4667 69.2008 76C56.6675 90.8 50.1341 105.6 48.0008 123.6C47.3341 130.133 46.6675 158.4 46.6675 186.667V237.867L41.3341 245.467C35.4675 253.733 34.6675 258.4 38.4008 261.733C40.6675 263.867 48.9341 264 129.467 264C178.134 264 218.667 263.467 219.467 262.933C224.801 259.333 224.134 254.133 216.667 244L212.134 237.867L211.734 177.333C211.201 123.867 210.934 115.867 208.801 109.333C205.601 99.3333 198.134 86 191.334 78L185.734 71.3333L186.401 59.6L187.067 48H199.734C209.601 48 212.934 48.5333 214.801 50.1333C217.734 52.8 223.201 52.9333 226.001 50.6667C228.801 48.2667 228.801 34.2667 225.867 31.4667C223.201 28.8 218.134 28.6667 215.467 31.3333C214.001 32.9333 210.001 33.3333 197.601 33.3333H181.601L178.267 27.6C165.601 6.13336 136.801 -5.06665 113.334 2.53336ZM134.001 100.267C136.267 104 142.001 111.067 146.801 116C157.201 126.4 173.467 135.2 186.801 137.6C191.467 138.4 195.467 139.333 195.734 139.467C196.801 140.133 191.867 156.4 188.667 162.533C183.867 172.133 170.801 185.467 161.601 190.4C136.001 204 105.867 200.4 84.8008 181.333C73.7341 171.067 65.2008 156 63.7341 143.467C63.3341 139.733 63.6008 139.6 72.0008 137.867C92.0008 133.733 114.534 118 124.001 101.6C126.534 97.0667 128.934 93.4667 129.334 93.3333C129.734 93.3333 131.867 96.5333 134.001 100.267ZM152.534 217.2L156.534 218.8L143.201 232.133L130.001 245.333L116.801 232C109.467 224.8 103.734 218.4 104.267 218C107.467 214.667 144.934 214.133 152.534 217.2Z" fill="currentColor"/>
</svg>
