<svg width="36" height="36" viewBox="0 0 36 36" fill="none" xmlns="http://www.w3.org/2000/svg">
<path d="M0.114141 3.01104C0.205453 2.73977 0.730501 2.60414 1.68928 2.60414C2.64807 2.54989 3.78947 2.52276 5.11351 2.52276C5.98098 2.52276 6.87127 2.57701 7.7844 2.68552C8.69753 2.73977 9.565 2.7669 10.3868 2.7669C11.2543 2.7669 12.0076 2.68552 12.6468 2.52276C13.3773 2.36 14.3589 2.14299 15.5916 1.87173C16.87 1.54621 18.2169 1.24782 19.6322 0.976552C21.0932 0.705288 22.5314 0.488277 23.9467 0.325518C25.3621 0.108506 26.6176 0 27.7134 0C28.5808 0 29.2657 0.0813792 29.7679 0.244137C30.2245 0.406897 30.818 0.678163 31.5485 1.05793C32.279 1.4377 32.9639 1.87173 33.603 2.36C34.2422 2.84828 34.7901 3.36368 35.2467 3.90621C35.7489 4.44874 36 4.93702 36 5.37104C36 5.96782 35.5206 6.4561 34.5618 6.83587C33.6487 7.16139 31.9594 7.32415 29.494 7.32415C23.1021 7.32415 18.1027 7.51403 14.4959 7.8938C10.889 8.21932 8.49207 8.51771 7.30501 8.78898C6.52885 8.89748 5.68421 8.7076 4.77108 8.21932C3.85796 7.67679 3.01332 7.08001 2.23716 6.42897C1.50666 5.72369 0.913126 5.04552 0.456563 4.39449C5.10249e-08 3.6892 -0.114141 3.22805 0.114141 3.01104Z" fill="currentColor"/>
<path d="M0.114141 16.6014C0.205453 16.3301 0.730501 16.1945 1.68928 16.1945C2.64807 16.1402 3.78947 16.1131 5.11351 16.1131C5.98098 16.1131 6.87127 16.1673 7.7844 16.2759C8.69753 16.3301 9.565 16.3572 10.3868 16.3572C11.2543 16.3572 12.0076 16.2759 12.6468 16.1131C13.3773 15.9503 14.3589 15.7333 15.5916 15.4621C16.87 15.1365 18.2169 14.8381 19.6322 14.5669C21.0932 14.2956 22.5314 14.0786 23.9467 13.9159C25.3621 13.6988 26.6176 13.5903 27.7134 13.5903C28.5808 13.5903 29.2657 13.6717 29.7679 13.8345C30.2245 13.9972 30.818 14.2685 31.5485 14.6483C32.279 15.028 32.9639 15.4621 33.603 15.9503C34.2422 16.4386 34.7901 16.954 35.2467 17.4965C35.7489 18.0391 36 18.5273 36 18.9614C36 19.5582 35.5206 20.0464 34.5618 20.4262C33.6487 20.7517 31.9594 20.9145 29.494 20.9145C23.1021 20.9145 18.1027 21.1044 14.4959 21.4841C10.889 21.8097 8.49207 22.108 7.30501 22.3793C6.52885 22.4878 5.68421 22.2979 4.77108 21.8097C3.85796 21.2671 3.01332 20.6703 2.23716 20.0193C1.50666 19.314 0.913126 18.6359 0.456563 17.9848C5.10249e-08 17.2795 -0.114141 16.8184 0.114141 16.6014Z" fill="currentColor"/>
<path d="M0.114141 30.1927C0.205453 29.9214 0.730501 29.7858 1.68928 29.7858C2.64807 29.7315 3.78947 29.7044 5.11351 29.7044C5.98098 29.7044 6.87127 29.7587 7.7844 29.8672C8.69753 29.9214 9.565 29.9485 10.3868 29.9485C11.2543 29.9485 12.0076 29.8672 12.6468 29.7044C13.3773 29.5416 14.3589 29.3246 15.5916 29.0534C16.87 28.7278 18.2169 28.4295 19.6322 28.1582C21.0932 27.8869 22.5314 27.6699 23.9467 27.5072C25.3621 27.2901 26.6176 27.1816 27.7134 27.1816C28.5808 27.1816 29.2657 27.263 29.7679 27.4258C30.2245 27.5885 30.818 27.8598 31.5485 28.2396C32.279 28.6193 32.9639 29.0534 33.603 29.5416C34.2422 30.0299 34.7901 30.5453 35.2467 31.0879C35.7489 31.6304 36 32.1187 36 32.5527C36 33.1495 35.5206 33.6377 34.5618 34.0175C33.6487 34.343 31.9594 34.5058 29.494 34.5058C23.1021 34.5058 18.1027 34.6957 14.4959 35.0754C10.889 35.401 8.49207 35.6994 7.30501 35.9706C6.52885 36.0791 5.68421 35.8892 4.77108 35.401C3.85796 34.8584 3.01332 34.2616 2.23716 33.6106C1.50666 32.9053 0.913126 32.2272 0.456563 31.5761C5.10249e-08 30.8708 -0.114141 30.4097 0.114141 30.1927Z" fill="currentColor"/>
</svg>
