<svg width="20" height="20" viewBox="0 0 20 20" fill="none" xmlns="http://www.w3.org/2000/svg">
<path d="M17.4596 2.54028C16.9005 1.98112 16.1421 1.66699 15.3513 1.66699C14.5605 1.66699 13.8021 1.98112 13.243 2.54028L3.28298 12.5003C2.94447 12.8388 2.70649 13.2646 2.59548 13.7303L1.68298 17.5653C1.65827 17.6692 1.66059 17.7776 1.68971 17.8804C1.71883 17.9831 1.77378 18.0766 1.84932 18.1521C1.92486 18.2275 2.01847 18.2824 2.12123 18.3114C2.22399 18.3404 2.33246 18.3426 2.43631 18.3178L6.27048 17.4044C6.73647 17.2936 7.16255 17.0556 7.50131 16.7169L17.4596 6.75861C18.0188 6.19944 18.3329 5.44105 18.3329 4.65028C18.3329 3.8595 18.0188 3.10111 17.4596 2.54195M14.1263 3.42528C14.2872 3.26441 14.4782 3.1368 14.6883 3.04974C14.8985 2.96268 15.1238 2.91787 15.3513 2.91787C15.5788 2.91787 15.8041 2.96268 16.0143 3.04974C16.2245 3.1368 16.4154 3.26441 16.5763 3.42528C16.7372 3.58615 16.8648 3.77713 16.9519 3.98731C17.0389 4.1975 17.0837 4.42278 17.0837 4.65028C17.0837 4.87778 17.0389 5.10306 16.9519 5.31324C16.8648 5.52343 16.7372 5.71441 16.5763 5.87528L15.833 6.61611L13.383 4.16695L14.1263 3.42528ZM12.4996 5.05195L14.9496 7.50028L6.61631 15.8336C6.44131 16.0086 6.22131 16.1311 5.98048 16.1886L3.13381 16.8669L3.81131 14.0203C3.86881 13.7786 3.99215 13.5586 4.16715 13.3836L12.4996 5.05195Z" fill="currentColor"/>
</svg>
