<svg width="24" height="24" viewBox="0 0 24 24" fill="none" xmlns="http://www.w3.org/2000/svg">
<g clip-path="url(#clip0_398_11639)">
<path d="M0.0490798 11.8873C0.179959 11.7302 0.605317 11.6359 1.32515 11.6045C2.07771 11.5417 2.96114 11.5102 3.97546 11.5102H5.98773C6.60941 11.5102 7.21472 11.526 7.80368 11.5574C8.42536 11.5574 8.99796 11.526 9.52147 11.4631C9.45603 10.929 9.40695 10.4262 9.37423 9.95492C9.34151 9.45219 9.32515 8.98087 9.32515 8.54098C9.32515 7.59836 9.43967 6.68716 9.66871 5.80738C9.76687 5.43033 9.93047 4.97473 10.1595 4.44057C10.3885 3.875 10.6339 3.34085 10.8957 2.83811C11.1902 2.33538 11.4683 1.9112 11.7301 1.56557C11.9918 1.18852 12.2209 1 12.4172 1C12.6462 1 12.8425 1.37705 13.0061 2.13115C13.1697 2.88524 13.2515 4.23634 13.2515 6.18443L13.2515 10.8504C13.7423 10.7876 14.2168 10.7404 14.6748 10.709C15.1329 10.6462 15.591 10.6148 16.0491 10.6148C16.5399 10.6148 17.0143 10.6462 17.4724 10.709C17.9632 10.7404 18.4703 10.8347 18.9939 10.9918C19.3865 11.0861 19.8609 11.2432 20.4172 11.4631C21.0061 11.6831 21.5624 11.9187 22.0859 12.1701C22.6094 12.4214 23.0511 12.6728 23.411 12.9242C23.8037 13.1755 24 13.3955 24 13.584C24 13.8354 23.591 14.0396 22.773 14.1967C21.9877 14.3224 20.5808 14.3852 18.5521 14.3852H13.3006C13.3333 14.9508 13.3497 15.4221 13.3497 15.7992C13.3824 16.1448 13.4151 16.459 13.4479 16.7418C13.4806 16.9932 13.5133 17.2288 13.546 17.4488C13.5787 17.6687 13.6115 17.9044 13.6442 18.1557C13.7423 18.7213 13.6605 19.3654 13.3988 20.0881C13.1697 20.8108 12.8753 21.4863 12.5153 22.1148C12.1554 22.7117 11.7955 23.1988 11.4356 23.5758C11.0757 23.9529 10.7975 24.0786 10.6012 23.9529C10.4376 23.8272 10.3231 23.4187 10.2577 22.7275C10.2249 22.0048 10.2086 21.1564 10.2086 20.1824V18.25C10.2086 17.4645 10.1922 16.7732 10.1595 16.1762C10.1595 15.5478 10.1268 14.9822 10.0613 14.4795C9.47239 14.4795 8.9816 14.4952 8.58896 14.5266C8.19632 14.5581 7.85276 14.5895 7.55828 14.6209C7.29652 14.6523 7.05113 14.6837 6.82209 14.7152C6.59305 14.7466 6.34765 14.778 6.08589 14.8094C5.49693 14.8723 4.82618 14.7937 4.07362 14.5738C3.35378 14.3538 2.66667 14.071 2.01227 13.7254C1.39059 13.3798 0.867076 13.0342 0.441718 12.6885C0.0490798 12.3429 -0.0817996 12.0758 0.0490798 11.8873Z" fill="currentColor"/>
</g>
<defs>
<clipPath id="clip0_398_11639">
<rect width="24" height="24" fill="currentColor"/>
</clipPath>
</defs>
</svg>
