<svg width="69" height="69" viewBox="0 0 69 69" fill="none" xmlns="http://www.w3.org/2000/svg">
<path d="M0 33.12C0 17.5071 0 9.70064 4.85031 4.85031C9.70064 0 17.5071 0 33.12 0H35.88C51.4929 0 59.2994 0 64.1497 4.85031C69 9.70064 69 17.5071 69 33.12V35.88C69 51.4929 69 59.2994 64.1497 64.1497C59.2994 69 51.4929 69 35.88 69H33.12C17.5071 69 9.70064 69 4.85031 64.1497C0 59.2994 0 51.4929 0 35.88V33.12Z" fill="#B60C1A"/>
<path d="M35.7144 44.4866C35.9838 44.7561 36.1351 45.1216 36.1351 45.5027C36.1351 45.8838 35.9838 46.2493 35.7144 46.5188L33.9283 48.3157C32.0395 50.2034 29.4781 51.2634 26.8077 51.2625C24.1373 51.2617 21.5767 50.2001 19.689 48.3112C17.8013 46.4224 16.7413 43.861 16.7422 41.1906C16.743 38.5202 17.8046 35.9595 19.6935 34.0719L24.0276 29.7378C25.8418 27.9221 28.2814 26.8683 30.8471 26.7922C33.4128 26.716 35.9106 27.6232 37.8294 29.3281C37.9709 29.4537 38.0864 29.6058 38.1692 29.776C38.2519 29.9462 38.3004 30.131 38.3117 30.3198C38.3231 30.5087 38.2971 30.698 38.2353 30.8768C38.1735 31.0557 38.0771 31.2206 37.9515 31.3622C37.826 31.5038 37.6738 31.6192 37.5037 31.702C37.3335 31.7848 37.1487 31.8332 36.9598 31.8445C36.7709 31.8559 36.5817 31.8299 36.4028 31.7681C36.224 31.7063 36.0591 31.6099 35.9175 31.4844C34.547 30.2674 32.7634 29.6199 30.9314 29.6743C29.0994 29.7288 27.3574 30.481 26.0616 31.7773L21.7276 36.1059C20.3794 37.4541 19.622 39.2827 19.622 41.1893C19.622 43.0959 20.3794 44.9245 21.7276 46.2727C23.0758 47.6208 24.9043 48.3782 26.8109 48.3782C28.7175 48.3782 30.5461 47.6208 31.8943 46.2727L33.6804 44.4866C33.8139 44.3529 33.9724 44.2469 34.1469 44.1745C34.3214 44.1022 34.5085 44.065 34.6974 44.065C34.8863 44.065 35.0734 44.1022 35.2479 44.1745C35.4224 44.2469 35.5809 44.3529 35.7144 44.4866ZM48.3069 19.6897C46.4178 17.8048 43.8581 16.7462 41.1895 16.7462C38.5209 16.7462 35.9612 17.8048 34.0721 19.6897L32.286 21.4776C32.0165 21.7473 31.8652 22.1131 31.8654 22.4943C31.8655 22.8756 32.0172 23.2412 32.2869 23.5107C32.5566 23.7802 32.9224 23.9315 33.3037 23.9314C33.685 23.9312 34.0506 23.7796 34.3201 23.5098L36.1062 21.7237C37.4543 20.3756 39.2829 19.6181 41.1895 19.6181C43.0961 19.6181 44.9247 20.3756 46.2729 21.7237C47.6211 23.0719 48.3785 24.9005 48.3785 26.8071C48.3785 28.7137 47.6211 30.5423 46.2729 31.8905L41.9388 36.2281C40.6423 37.5236 38.9 38.2749 37.068 38.3283C35.2359 38.3818 33.4527 37.7333 32.083 36.5156C31.797 36.2621 31.4221 36.1325 31.0406 36.1554C30.6592 36.1784 30.3024 36.3519 30.0489 36.6378C29.7954 36.9237 29.6658 37.2987 29.6887 37.6801C29.7116 38.0616 29.8851 38.4183 30.1711 38.6719C32.0894 40.3773 34.5869 41.2851 37.1526 41.2096C39.7183 41.1341 42.1581 40.081 43.9729 38.2658L48.3069 33.9317C50.1929 32.0424 51.2522 29.482 51.2522 26.8125C51.2522 24.143 50.1929 21.5826 48.3069 19.6933V19.6897Z" fill="white"/>
</svg>
