<svg width="69" height="69" viewBox="0 0 69 69" fill="none" xmlns="http://www.w3.org/2000/svg">
<path d="M0 33.12C0 17.5071 0 9.70064 4.85031 4.85031C9.70064 0 17.5071 0 33.12 0H35.88C51.4929 0 59.2994 0 64.1497 4.85031C69 9.70064 69 17.5071 69 33.12V35.88C69 51.4929 69 59.2994 64.1497 64.1497C59.2994 69 51.4929 69 35.88 69H33.12C17.5071 69 9.70064 69 4.85031 64.1497C0 59.2994 0 51.4929 0 35.88V33.12Z" fill="url(#paint0_linear_398_10430)"/>
<path d="M34.5 58C47.4787 58 58 47.4787 58 34.5C58 21.5213 47.4787 11 34.5 11C21.5213 11 11 21.5213 11 34.5C11 47.4787 21.5213 58 34.5 58Z" fill="white"/>
<path d="M34.5003 55.7073C46.2128 55.7073 55.7076 46.2125 55.7076 34.5C55.7076 22.7875 46.2128 13.2927 34.5003 13.2927C22.7878 13.2927 13.293 22.7875 13.293 34.5C13.293 46.2125 22.7878 55.7073 34.5003 55.7073Z" fill="url(#paint1_linear_398_10430)"/>
<path d="M20.7811 34.296L36.6063 27.7758C38.1684 27.0966 43.4661 24.9232 43.4661 24.9232C43.4661 24.9232 45.9112 23.9723 45.7074 26.2815C45.6395 27.2324 45.0961 30.5604 44.5528 34.1602L42.8548 44.8235C42.8548 44.8235 42.719 46.3856 41.5643 46.6573C40.4097 46.9289 38.508 45.7064 38.1684 45.4347C37.8967 45.231 33.0745 42.1746 31.3086 40.6804C30.8331 40.2729 30.2898 39.4578 31.3765 38.507C33.8216 36.2656 36.7421 33.481 38.508 31.7151C39.323 30.9 40.138 28.9983 36.7421 31.3076L27.1655 37.7599C27.1655 37.7599 26.0788 38.4391 24.0412 37.8278C22.0037 37.2165 19.6265 36.4015 19.6265 36.4015C19.6265 36.4015 17.9964 35.3827 20.7811 34.296Z" fill="white"/>
<defs>
<linearGradient id="paint0_linear_398_10430" x1="46.0027" y1="11.5027" x2="28.7527" y2="51.75" gradientUnits="userSpaceOnUse">
<stop stop-color="#37AEE2"/>
<stop offset="1" stop-color="#1E96C8"/>
</linearGradient>
<linearGradient id="paint1_linear_398_10430" x1="41.571" y1="20.3634" x2="30.9674" y2="45.1037" gradientUnits="userSpaceOnUse">
<stop stop-color="#37AEE2"/>
<stop offset="1" stop-color="#1E96C8"/>
</linearGradient>
</defs>
</svg>
