<svg width="30" height="30" viewBox="0 0 30 30" fill="none" xmlns="http://www.w3.org/2000/svg">
<path d="M6.875 12.1877V25.3126C6.875 25.4851 7.015 25.6251 7.1875 25.6251H22.8125C22.8954 25.6251 22.9749 25.5922 23.0335 25.5336C23.0921 25.475 23.125 25.3955 23.125 25.3126V12.1877C23.125 12.1048 23.0921 12.0253 23.0335 11.9667C22.9749 11.9081 22.8954 11.8752 22.8125 11.8752H19.6875C19.4389 11.8752 19.2004 11.7764 19.0246 11.6006C18.8488 11.4247 18.75 11.1863 18.75 10.9377C18.75 10.689 18.8488 10.4506 19.0246 10.2747C19.2004 10.0989 19.4389 10.0002 19.6875 10.0002H22.8125C24.02 10.0002 25 10.9802 25 12.1877V25.3126C25 25.8928 24.7695 26.4492 24.3593 26.8594C23.9491 27.2697 23.3927 27.5001 22.8125 27.5001H7.1875C6.60734 27.5001 6.05094 27.2697 5.6407 26.8594C5.23047 26.4492 5 25.8928 5 25.3126V12.1877C5 10.9802 5.98 10.0002 7.1875 10.0002H10.3125C10.5611 10.0002 10.7996 10.0989 10.9754 10.2747C11.1512 10.4506 11.25 10.689 11.25 10.9377C11.25 11.1863 11.1512 11.4247 10.9754 11.6006C10.7996 11.7764 10.5611 11.8752 10.3125 11.8752H7.1875C7.10462 11.8752 7.02513 11.9081 6.96653 11.9667C6.90792 12.0253 6.875 12.1048 6.875 12.1877ZM15.6625 1.52515L19.725 5.58765C19.8484 5.70224 19.9386 5.84799 19.9861 6.00956C20.0337 6.17112 20.0367 6.3425 19.995 6.50566C19.9533 6.66881 19.8683 6.8177 19.7491 6.93662C19.6299 7.05554 19.4808 7.14011 19.3175 7.1814C19.1545 7.22317 18.9833 7.22026 18.8219 7.17297C18.6604 7.12567 18.5147 7.03575 18.4 6.91265L15.9375 4.45015V17.8127C15.9375 18.0613 15.8387 18.2997 15.6629 18.4756C15.4871 18.6514 15.2486 18.7502 15 18.7502C14.7514 18.7502 14.5129 18.6514 14.3371 18.4756C14.1613 18.2997 14.0625 18.0613 14.0625 17.8127V4.45015L11.6 6.91265C11.4222 7.07816 11.1871 7.16829 10.9442 7.1641C10.7013 7.1599 10.4695 7.06171 10.2975 6.89015C10.1259 6.71815 10.0278 6.48634 10.0236 6.24344C10.0194 6.00054 10.1095 5.76548 10.275 5.58765L14.3375 1.52515C14.5133 1.34959 14.7516 1.25098 15 1.25098C15.2484 1.25098 15.4867 1.34959 15.6625 1.52515Z" fill="currentColor"/>
</svg>
