<svg width="264" height="264" viewBox="0 0 264 264" fill="none" xmlns="http://www.w3.org/2000/svg">
<path d="M50 30.5333C32.1334 41.8666 26.2667 47.4666 23.4667 55.6C20.6667 63.7333 20.8 66.6666 24.1334 79.4666C37.3334 130.133 72.4 178.133 118.8 209.067C133.467 218.8 156.933 230 174.4 235.6C187.067 239.6 190.933 240.267 198.667 239.733C211.867 239.067 216.533 235.333 229.467 215.333C241.067 197.333 242.4 192.133 237.067 186.133C233.6 182.533 185.733 164 179.6 164C177.6 164 171.333 167.067 165.2 170.933C151.467 179.6 148.667 179.733 137.467 172.133C114 156.133 84 122.533 84 112.133C84 110.267 87.3334 103.333 91.3334 96.6666C95.3334 90.1333 98.6667 83.7333 98.6667 82.5333C98.6667 78.5333 78.8 27.6 76.2667 25.0666C74.9334 23.7333 71.7334 22.2666 69.2 21.8666C65.3334 21.3333 62.6667 22.5333 50 30.5333Z" fill="currentColor"/>
<path d="M135.068 23.3332C131.334 25.9999 130.934 33.3332 134.401 36.2665C135.601 37.4665 140.268 38.7999 144.668 39.1999C158.268 40.6665 165.601 42.7999 177.201 48.2665C203.068 60.5332 222.534 90.3999 222.668 117.467C222.668 128.267 229.734 133.733 237.068 128.533C239.601 126.8 240.001 125.333 240.001 117.067C240.001 104.933 237.068 92.7999 230.668 79.3332C215.201 46.1332 184.668 25.1999 147.334 21.8665C139.868 21.3332 137.334 21.5999 135.068 23.3332Z" fill="currentColor"/>
<path d="M134.934 59.4666C131.334 62 130.934 69.3333 134.401 72.2666C135.601 73.3333 140.267 74.6666 144.667 75.2C160.534 76.9333 175.601 87.4666 182.534 101.733C184.001 104.8 185.867 111.6 186.534 116.667C188.267 128.933 192.934 133.2 200.134 129.2C204.267 127.067 205.334 122.533 203.867 112.4C201.201 92.8 187.067 73.0666 169.334 64.5333C155.201 57.6 140.534 55.4666 134.934 59.4666Z" fill="currentColor"/>
<path d="M134.266 95.5999C129.066 101.467 133.066 110.667 140.8 110.667C145.6 110.667 150.266 115.333 151.2 121.333C152.666 130.667 161.733 133.6 167.066 126.533C170.533 121.867 169.2 114.133 163.6 105.733C158.666 98.5333 151.733 94.5333 142.8 93.5999C138 93.1999 136.133 93.5999 134.266 95.5999Z" fill="currentColor"/>
</svg>
