<svg width="264" height="264" viewBox="0 0 264 264" fill="none" xmlns="http://www.w3.org/2000/svg">
<g clip-path="url(#clip0_801_4921)">
<path d="M114.134 2.93332C113.067 4.66666 111.867 9.73332 111.334 14.2667L110.4 22.5333L114.667 20.5333C116.934 19.3333 120.534 18.6667 122.8 18.9333L126.667 19.6V11.8667C126.667 6.66666 126 3.46666 124.534 2.13332C121.467 -0.933342 116.4 -0.533342 114.134 2.93332Z" fill="currentColor"/>
<path d="M139.467 2.13332C138.001 3.46666 137.334 6.66666 137.334 11.8667V19.6L141.201 18.9333C143.467 18.6667 147.067 19.3333 149.334 20.4L153.467 22.5333L152.534 14.2667C152.134 9.73332 150.801 4.66666 149.867 2.93332C147.601 -0.533342 142.534 -0.933342 139.467 2.13332Z" fill="currentColor"/>
<path d="M117.067 30.2667C112.4 35.6 108 53.7333 105.867 75.3333C104 95.7333 103.6 97.2 98.1333 109.333C90.5333 125.733 89.3333 131.467 89.3333 149.067C89.3333 179.2 80.4 198.4 58.1333 215.6C53.0666 219.467 52.9333 219.733 54.4 224C58.6666 236.133 74.1333 247.067 89.4666 248.8C96.4 249.6 97.6 249.333 102.8 245.733C106 243.6 111.467 240.267 114.8 238.267C126.667 231.467 126 238 126.4 128.133C126.667 57.3333 126.267 31.2 125.2 29.8667C123.067 27.3333 119.467 27.6 117.067 30.2667Z" fill="currentColor"/>
<path d="M139.734 29.4667C137.467 30.6667 137.334 36.8 137.334 126.4V222L140.401 228.667C143.067 234.133 144.934 236 150.801 239.2C154.801 241.333 160.001 244.667 162.401 246.4C166.267 249.333 167.601 249.6 174.401 248.8C189.867 247.067 205.334 236.133 209.601 223.867C211.067 219.6 210.934 219.333 205.867 215.467C183.467 198.133 174.667 179.333 174.667 148.8C174.534 130.533 173.467 125.333 166.001 109.333C160.267 97.0667 160.001 95.8667 158.134 75.3334C156.534 58.6667 155.201 51.3334 152.001 42.1334C147.334 28.1334 145.334 26.1334 139.734 29.4667Z" fill="currentColor"/>
<path d="M32.0009 217.867C20.6675 222.667 2.13421 232.133 1.06754 233.867C-0.665794 236.4 -0.13246 260.667 1.60087 262.4C2.80087 263.6 14.8009 264 47.6009 264C89.2009 264 92.0009 263.867 93.2009 261.6C94.4009 259.333 93.6009 258.933 85.7342 257.467C73.7342 255.333 64.0009 250.4 56.5342 242.933C50.1342 236.533 44.6675 226.8 43.2009 218.933C42.2675 213.867 41.6009 213.867 32.0009 217.867Z" fill="currentColor"/>
<path d="M220.667 219.467C218.267 232.4 207.2 246.267 194.267 252.533C190.4 254.4 183.2 256.8 178.134 257.6C169.334 259.2 168.934 259.467 171.2 261.6C173.334 263.733 177.334 264 217.2 264C249.334 264 261.2 263.6 262.4 262.4C264.134 260.667 264.667 236.4 262.934 233.733C261.734 231.867 230.534 216.667 225.2 215.333C222 214.533 221.6 214.933 220.667 219.467Z" fill="currentColor"/>
</g>
<defs>
<clipPath id="clip0_801_4921">
<rect width="264" height="264" fill="white"/>
</clipPath>
</defs>
</svg>
