<svg width="70" height="69" viewBox="0 0 70 69" fill="none" xmlns="http://www.w3.org/2000/svg">
<path d="M0.5 33.12C0.5 17.5071 0.5 9.70064 5.35031 4.85031C10.2006 0 18.0071 0 33.62 0H36.38C51.9929 0 59.7994 0 64.6497 4.85031C69.5 9.70064 69.5 17.5071 69.5 33.12V35.88C69.5 51.4929 69.5 59.2994 64.6497 64.1497C59.7994 69 51.9929 69 36.38 69H33.62C18.0071 69 10.2006 69 5.35031 64.1497C0.5 59.2994 0.5 51.4929 0.5 35.88V33.12Z" fill="#0077FF"/>
<path d="M0.5 33.12C0.5 17.5071 0.5 9.70064 5.35031 4.85031C10.2006 0 18.0071 0 33.62 0H36.38C51.9929 0 59.7994 0 64.6497 4.85031C69.5 9.70064 69.5 17.5071 69.5 33.12V35.88C69.5 51.4929 69.5 59.2994 64.6497 64.1497C59.7994 69 51.9929 69 36.38 69H33.62C18.0071 69 10.2006 69 5.35031 64.1497C0.5 59.2994 0.5 51.4929 0.5 35.88V33.12Z" fill="url(#paint0_linear_398_10422)"/>
<path d="M15.8954 33.887C15.8944 37.4392 16.8225 40.9076 18.5874 43.9648L15.7266 54.4108L26.4164 51.6078C29.3616 53.213 32.6775 54.0601 36.0522 54.0613H36.0612C47.1744 54.0613 56.2209 45.0178 56.2255 33.9027C56.2277 28.5165 54.132 23.4519 50.3246 19.6416C46.5178 15.8314 41.4548 13.7319 36.0605 13.7295C24.946 13.7295 15.8999 22.7722 15.8954 33.887Z" fill="url(#paint1_linear_398_10422)"/>
<path d="M15.1754 33.8803C15.174 37.5606 16.1357 41.1532 17.9634 44.3199L15 55.1402L26.0733 52.2367C29.1241 53.9005 32.5591 54.7774 36.0549 54.7786H36.0639C47.5759 54.7786 56.9472 45.4101 56.9521 33.8973C56.954 28.3173 54.7832 23.0709 50.8397 19.1239C46.8957 15.1771 41.6513 13.0026 36.0639 13C24.55 13 15.18 22.3671 15.1753 33.8803H15.1754ZM21.7696 43.7747L21.3563 43.1182C19.6183 40.3547 18.7007 37.1611 18.7022 33.8817C18.7059 24.3122 26.4939 16.527 36.0705 16.527C40.7081 16.5289 45.0666 18.3365 48.3449 21.617C51.6228 24.8972 53.4266 29.2581 53.4252 33.8959C53.4212 43.4657 45.6329 51.252 36.064 51.252H36.0572C32.9413 51.2504 29.8856 50.4138 27.2206 48.8323L26.5863 48.4564L20.0152 50.1792L21.7696 43.7747Z" fill="url(#paint2_linear_398_10422)"/>
<path fill-rule="evenodd" clip-rule="evenodd" d="M30.8425 25.1505C30.4515 24.2814 30.04 24.2639 29.668 24.2486C29.3638 24.2356 29.0155 24.2365 28.6678 24.2365C28.3199 24.2365 27.7543 24.3672 27.2762 24.8894C26.7977 25.4117 25.4492 26.6742 25.4492 29.2421C25.4492 31.8102 27.3196 34.2914 27.5804 34.64C27.8413 34.988 31.1911 40.4259 36.496 42.518C40.9049 44.2566 41.8021 43.9107 42.759 43.8237C43.716 43.7368 45.847 42.5614 46.2819 41.3427C46.7169 40.1241 46.7169 39.0797 46.5864 38.8613C46.4559 38.6438 46.1079 38.5133 45.586 38.2523C45.0639 37.9913 42.498 36.7284 42.0195 36.5545C41.5411 36.3805 41.1931 36.2935 40.8451 36.816C40.4971 37.3381 39.4976 38.5133 39.1929 38.8614C38.8885 39.2101 38.584 39.2536 38.062 38.9926C37.54 38.7308 35.859 38.1803 33.8649 36.4023C32.3133 35.019 31.2659 33.3106 30.9613 32.7881C30.6568 32.266 30.9287 31.9833 31.1905 31.7231C31.4249 31.4893 31.7126 31.1139 31.9735 30.8091C32.2339 30.5044 32.321 30.2869 32.495 29.9388C32.6689 29.5903 32.5819 29.2855 32.4515 29.0246C32.321 28.7635 31.3066 26.1824 30.8425 25.1505Z" fill="white"/>
<defs>
<linearGradient id="paint0_linear_398_10422" x1="34.9998" y1="-4.28072e-05" x2="34.9998" y2="69.0001" gradientUnits="userSpaceOnUse">
<stop stop-color="#20B038"/>
<stop offset="1" stop-color="#60D66A"/>
</linearGradient>
<linearGradient id="paint1_linear_398_10422" x1="35.9759" y1="54.4108" x2="35.9759" y2="13.7295" gradientUnits="userSpaceOnUse">
<stop stop-color="#20B038"/>
<stop offset="1" stop-color="#60D66A"/>
</linearGradient>
<linearGradient id="paint2_linear_398_10422" x1="35.9761" y1="55.1403" x2="35.9761" y2="13" gradientUnits="userSpaceOnUse">
<stop stop-color="#F9F9F9"/>
<stop offset="1" stop-color="white"/>
</linearGradient>
</defs>
</svg>
