<svg width="172" height="56" viewBox="0 0 172 56" fill="none" xmlns="http://www.w3.org/2000/svg">
<g clip-path="url(#clip0_719_1517)">
<path d="M28.2227 56.0019C43.8096 56.0019 56.4453 43.4654 56.4453 28.0009C56.4453 12.5365 43.8096 0 28.2227 0C12.6357 0 0 12.5365 0 28.0009C0 43.4654 12.6357 56.0019 28.2227 56.0019Z" fill="white"/>
<path d="M13.1329 19.5199V20.5172H13.8017V19.5199H13.1329ZM13.1329 19.5199V20.5172H13.8017V19.5199H13.1329ZM28.2227 0C12.636 0 0 12.5367 0 28.0009C0 30.2838 0.275194 32.5022 0.795005 34.6258C2.49586 34.1916 4.67256 33.9318 7.12064 34.3243C7.12064 34.3243 6.30079 33.4388 4.60568 33.2985C4.60568 33.2985 5.9912 29.167 10.0847 27.508C11.4683 26.9486 13.1615 26.6699 15.2159 26.9297C15.2159 26.9297 14.7936 26.5012 14.0062 26.1371C13.71 26.0006 13.3641 25.8717 12.9685 25.7807C12.9685 25.7807 14.2929 22.5934 17.2226 21.1126C17.4213 21.0121 17.6296 20.9173 17.8436 20.8358C18.0137 20.7694 18.1857 20.7106 18.3654 20.6575C19.2961 20.3807 20.3529 20.284 21.5454 20.4736C21.5454 20.4736 20.7064 19.4478 19.3878 19.2525C19.3878 19.2525 19.426 18.8885 19.5904 18.3197C19.9879 16.9413 21.1173 14.3588 24.196 12.806C24.196 12.806 24.8133 9.24327 27.9284 9.24327C31.0434 9.24327 31.6607 12.806 31.6607 12.806C34.6649 14.3209 35.8134 16.8161 36.2358 18.2173C36.425 18.8449 36.4689 19.2525 36.4689 19.2525C35.1503 19.4478 34.3113 20.4736 34.3113 20.4736C35.7599 20.2423 37.0098 20.4357 38.0742 20.8604C38.1468 20.8888 38.2176 20.9192 38.2883 20.9495C38.5692 21.0728 38.8348 21.2112 39.089 21.3629C41.7014 22.9233 42.8901 25.7807 42.8901 25.7807C42.5767 25.8527 42.292 25.9494 42.0416 26.0537C41.1358 26.431 40.6446 26.9297 40.6446 26.9297C42.8729 26.6491 44.677 26.9998 46.1236 27.6578C46.2421 27.7127 46.3587 27.7677 46.4734 27.8265C46.5097 27.8455 46.5479 27.8644 46.5842 27.8853C50.0547 29.7169 51.2549 33.2985 51.2549 33.2985C49.5617 33.4407 48.7399 34.3243 48.7399 34.3243C51.4574 33.8882 53.8405 34.256 55.6102 34.7737C56.1548 32.6046 56.4415 30.3369 56.4415 28.0009C56.4434 12.5367 43.8074 0 28.2227 0ZM11.9232 18.898V21.4596H11.1931V21.1372H10.6217V21.6833H9.89169V18.898H11.9232ZM11.1167 18.5738V17.9519H13.4023V18.5738H11.1167ZM14.5299 21.4615H13.7998V21.1391H13.131V22.3298H12.4028V18.898H14.5299V21.4615ZM15.0306 18.7937C14.1037 18.4031 13.001 17.7622 12.3111 16.9697C12.1009 17.184 11.8696 17.3811 11.6346 17.5613C10.9772 18.0637 10.2605 18.4771 9.51903 18.8392C9.43686 18.879 9.35659 18.9169 9.26868 18.9568L9.06993 18.5851C9.65472 18.2116 10.2223 17.7869 10.7364 17.3262C11.1071 16.9887 11.4588 16.6303 11.7359 16.2151C11.8219 16.0842 11.8964 15.9515 11.9518 15.8207L12.8538 16.2928C12.7946 16.3876 12.7335 16.4767 12.6704 16.5601C12.8328 16.7024 13.0086 16.8275 13.1902 16.9413C13.5858 17.1896 14.0177 17.3868 14.4572 17.5537C14.7458 17.6618 15.0439 17.7604 15.344 17.8324L15.0306 18.7937ZM15.3421 11.1697H12.8271C13.0622 11.4275 13.3049 11.6778 13.5514 11.9224C14.0368 12.3964 14.5585 12.859 15.1204 13.2288L14.5012 14.0043C13.9546 13.4923 13.4979 12.9273 13.066 12.3319C12.9437 12.1613 12.8233 11.9907 12.7067 11.8181V14.9239H11.7053V11.8314C11.6021 11.9812 11.4989 12.131 11.3919 12.2789C10.9581 12.8742 10.5032 13.4392 9.95667 13.9512L9.33748 13.1757C10.1669 12.6182 10.8988 11.9091 11.5792 11.1697H9.06993V10.2235H11.7053V8.83941H12.7067V10.2235H15.3421V11.1697ZM13.7998 19.5199H13.131V20.5172H13.7998V19.5199ZM11.1931 19.5199H10.6217V20.5172H11.1931V19.5199Z" fill="url(#paint0_linear_719_1517)"/>
<path d="M47.2658 36.8705C43.8105 36.8705 39.3023 34.6862 36.7663 33.2433V32.2441H35.6465V29.6427H42.3161V28.5677C43.1226 28.5904 44.7049 28.5051 46.1229 27.6557C46.8874 27.1987 47.6059 26.518 48.1296 25.515C48.164 25.4468 48.1984 25.3804 48.2308 25.3102C48.2213 25.3178 48.1487 25.3728 48.0092 25.4525C47.5314 25.7293 46.2701 26.3133 44.122 26.3133C43.4646 26.3133 42.7595 26.2166 42.039 26.0516C39.7151 25.5245 37.2307 24.2996 35.6426 23.4009V22.523H35.3235V20.9872H38.0735V20.079C38.2608 20.024 39.3062 19.6714 40.0037 18.4427C40.1738 18.1413 40.3248 17.7886 40.4356 17.3753C40.4356 17.3753 39.9617 17.7203 39.1361 17.9953C38.5895 18.1773 37.8862 18.329 37.0645 18.329C36.8141 18.329 36.537 18.291 36.237 18.2171C34.3125 17.7526 31.4899 15.8982 29.0819 14.0989C29.2883 13.8865 29.4145 13.5983 29.4145 13.2798C29.4145 12.6692 28.9501 12.1687 28.3519 12.1042C28.4532 12.0265 28.5736 11.8824 28.5736 11.6473C28.5736 11.2434 28.22 9.69434 28.22 9.69434C28.22 9.69434 27.8665 11.2434 27.8665 11.6473C27.8665 11.8843 27.9888 12.0265 28.0882 12.1042C27.49 12.1687 27.0256 12.6711 27.0256 13.2798C27.0256 13.5983 27.1518 13.8865 27.3582 14.0989C24.6807 16.0992 21.4874 18.1678 19.5897 18.3195C19.5151 18.3271 19.4444 18.329 19.3737 18.329C18.3742 18.329 17.5506 18.1052 16.9677 17.8739C16.3504 17.6293 16.0026 17.3772 16.0026 17.3772C16.0829 17.6729 16.1822 17.9384 16.2931 18.1754C16.9811 19.624 18.164 20.024 18.3628 20.0828V20.991H21.1147V22.5268H20.7936V23.4047C19.1157 24.3546 16.4364 25.6686 14.0036 26.1388C13.4207 26.2526 12.8531 26.3171 12.3161 26.3171C9.54317 26.3171 8.24747 25.3444 8.20734 25.314C8.68702 26.3246 9.35589 27.0262 10.0821 27.5116C11.5594 28.4994 13.2755 28.5961 14.1259 28.5715V29.6465H20.7955V32.2479H19.6757V33.2471C17.1416 34.69 12.6315 36.8743 9.17816 36.8743C5.72295 36.8743 4.13867 35.6418 4.13867 35.6418C6.31347 40.2265 11.6702 39.6406 12.0333 39.5951V40.5849H13.4418V46.8646H22.6493V43.2905H33.7946V46.8646H43.0022V40.5849H44.4087V39.5951C44.7718 39.6406 50.1285 40.2246 52.3033 35.6418C52.3033 35.6381 50.7191 36.8705 47.2658 36.8705ZM19.8266 42.2174H15.4407V40.583H19.8266V42.2174ZM31.7765 20.9872H33.6437V22.523H31.7765V20.9872ZM33.6437 29.6446V32.246H32.0957V29.6446H33.6437ZM25.9191 20.9872H30.5229V22.523H28.8947V21.5826H27.5473V22.523H25.9191V20.9872ZM22.7983 20.9872H24.6655V22.523H22.7983V20.9872ZM22.7983 29.6446H24.3463V32.246H22.7983V29.6446ZM27.2206 42.2174H22.6474V40.583H27.2206V42.2174ZM27.5473 31.1122V32.2441H25.9191V29.6427H30.5229V32.2441H28.8947V31.1122H27.5473ZM33.7946 42.2174H29.2214V40.583H33.7946V42.2174ZM41.0013 42.2174H36.6154V40.583H41.0013V42.2174Z" fill="#1E1E1C"/>
<path d="M10.8565 46.874V49.3958H10.0137C10.0825 49.4546 10.1494 49.5095 10.2182 49.5664C10.2717 49.61 10.3233 49.6536 10.3768 49.6972C10.3997 49.7162 10.4226 49.7352 10.4475 49.7541C10.5067 49.8015 10.5641 49.8489 10.6233 49.8944C10.6405 49.9096 10.6577 49.9229 10.6749 49.9362C10.7303 49.9798 10.7877 50.0253 10.845 50.0689C10.9176 50.1258 10.9902 50.1826 11.0648 50.2376C11.1546 50.3059 11.2444 50.3741 11.3342 50.4405C11.4164 50.5012 11.4986 50.5619 11.5807 50.6206C16.0641 53.8724 21.5489 55.8443 27.4904 55.9941C27.607 55.9959 27.7216 55.9997 27.8382 56.0016C27.8459 56.0016 27.8535 56.0016 27.8592 56.0016C27.9777 56.0035 28.0981 56.0035 28.2185 56.0035C28.3389 56.0035 28.4574 56.0035 28.5778 56.0016C28.5854 56.0016 28.5931 56.0016 28.5988 56.0016C28.7154 55.9997 28.8301 55.9978 28.9466 55.9941C34.8901 55.8443 40.3748 53.8724 44.8563 50.6206C44.9385 50.56 45.0206 50.4993 45.1028 50.4405C45.1926 50.3722 45.2844 50.3059 45.3723 50.2376C45.4468 50.1826 45.5194 50.1258 45.592 50.0689C45.6494 50.0253 45.7067 49.9798 45.7621 49.9362C45.7793 49.9229 45.7965 49.9096 45.8118 49.8963C45.8806 49.8414 45.9475 49.7883 46.0163 49.7333C46.087 49.6783 46.1539 49.6214 46.2246 49.5645C46.2934 49.5095 46.3622 49.4508 46.431 49.3939V46.8778H10.8565V46.874ZM16.0909 49.3939H12.8573V48.4212H16.0909V49.3939ZM30.2634 49.3939H27.0298V48.4212H30.2634V49.3939ZM44.4339 49.3939H41.2023V48.4212H44.4339V49.3939Z" fill="#1E1E1C"/>
<path d="M149.378 1.37635C148.837 0.883371 148.124 0.492783 147.258 0.215959C146.341 -0.0760332 145.366 -0.0722411 144.361 0.229232C143.587 0.462447 141.621 0.767711 138.513 1.13555C135.396 1.50528 133.286 1.68161 132.241 1.65886C131.203 1.6361 130.445 1.58491 129.984 1.50717C129.378 1.40289 128.948 1.37635 128.629 1.42185C127.928 1.52613 127.498 2.13287 127.607 2.86475C127.677 3.35014 128.002 3.82415 128.66 4.39676C129.202 4.87078 129.663 5.18742 130.07 5.36565C130.603 5.60076 131.186 5.61403 131.756 5.40546C131.891 5.35617 132.478 5.19121 134.972 4.73426C135.446 4.64704 135.971 4.57309 136.535 4.51432C136.568 4.6186 136.6 4.73236 136.638 4.8575C136.9 5.73917 137.017 7.48544 136.988 10.0489C136.958 12.6939 136.942 15.0583 136.942 17.0738C136.942 19.004 136.818 20.4772 136.573 21.4537C136.245 22.7676 136.26 23.6796 136.627 24.3224C136.875 24.7604 137.21 25.2818 137.617 25.8696C137.978 26.391 138.404 26.6565 138.878 26.6565C138.914 26.6565 138.953 26.6546 138.989 26.6508C139.515 26.6053 139.929 26.2545 140.224 25.6117C140.562 24.8685 140.753 24.1688 140.791 23.5299C140.826 22.9478 140.762 21.9144 140.604 20.3672C140.455 18.9262 140.422 15.8603 140.506 11.251C140.724 8.369 140.917 6.37435 141.084 5.31824C141.141 4.9561 141.192 4.63756 141.238 4.36074C141.473 4.36643 141.728 4.37211 142.01 4.38349C144.885 4.48588 146.7 4.60154 147.409 4.72668C148.395 4.90111 149.158 4.82148 149.739 4.48019C150.199 4.21284 150.473 3.89431 150.574 3.50562C150.658 3.18139 150.608 2.85148 150.431 2.55C150.236 2.22957 149.901 1.85605 149.378 1.37635Z" fill="white"/>
<path d="M85.5766 23.2058C85.9703 23.0769 86.1824 22.9688 86.1824 22.7698C86.1824 22.4512 85.7543 22.3128 85.1103 22.2009C84.5083 22.0986 83.7802 21.9639 82.945 21.799C82.1118 21.6359 81.2365 21.4179 80.3402 21.1524C79.4631 20.8927 78.7139 20.5286 78.1119 20.0717C77.4278 19.537 76.822 19.0819 76.3098 18.7198C75.8091 18.3652 75.339 18.0126 74.9147 17.6732C74.4905 17.3338 74.0681 16.9735 73.6611 16.5981C73.2865 16.2549 72.8699 15.8302 72.4208 15.3353C72.8947 14.8139 73.3553 14.3304 73.7929 13.8962L75.2912 12.4097C75.811 11.894 76.3652 11.3138 76.9366 10.6824C77.5119 10.0491 78.1502 9.27932 78.8324 8.39765C79.4592 7.63165 80.0307 6.84289 80.5314 6.05603C81.0493 5.24262 81.3111 4.40456 81.3111 3.56461C81.3111 3.30675 81.2843 3.0413 81.2289 2.77964C81.1735 2.5123 81.0645 2.24306 80.9117 1.9814C80.6689 1.54341 80.3383 1.17748 79.9294 0.893067C79.5108 0.601074 79.1095 0.455078 78.7369 0.455078C78.454 0.455078 78.2113 0.553673 78.0183 0.745175C77.8234 0.938572 77.7259 1.24005 77.7259 1.6439C77.7259 2.38147 77.573 3.19867 77.2692 4.07275C76.9615 4.96011 76.5678 5.86832 76.0977 6.77274C75.6275 7.67905 75.102 8.56451 74.5382 9.40256C73.9726 10.2406 73.426 10.9915 72.9138 11.6361C72.4036 12.277 71.9392 12.7965 71.5321 13.1795C71.1518 13.5379 70.9703 13.6421 70.8977 13.6725C70.6454 13.4393 70.3587 13.1549 70.0396 12.8287C69.709 12.4912 69.3936 12.095 69.0993 11.6513L69.0076 5.76403C69.0076 5.32415 69.042 4.94304 69.1127 4.63019C69.1853 4.30407 69.258 4.01587 69.3287 3.77507C69.3975 3.54375 69.4643 3.32002 69.5312 3.11335C69.6019 2.89341 69.6249 2.67157 69.602 2.45731C69.5733 2.19566 69.3134 1.94538 68.7897 1.66855C68.3311 1.42775 67.8227 1.20971 67.28 1.022C66.7373 0.834289 66.2194 0.690189 65.7435 0.597282C65.1453 0.479727 64.8529 0.510064 64.7345 0.705357L64.7268 0.71863C64.6389 0.893067 64.6542 1.18885 64.7746 1.67614C64.8816 2.11033 65.0173 2.65261 65.1816 3.28968C65.346 3.93434 65.5084 4.69087 65.6632 5.5384C65.8161 6.38025 65.904 7.28277 65.9251 8.21753C65.9461 9.45755 65.9671 10.635 65.9881 11.7499C66.0091 12.8761 66.0187 14.0005 66.0187 15.0926V16.9204C66.0187 17.531 65.9977 18.1623 65.9556 18.8032C65.9365 19.3113 65.8696 19.6849 65.7569 19.9181C65.6518 20.1342 65.5161 20.2859 65.3479 20.3675C65.1702 20.4566 64.9466 20.5021 64.6886 20.5021H63.7216C63.563 20.5021 63.3967 20.4926 63.2285 20.4717C63.0202 20.4471 62.854 20.4604 62.7183 20.5116C62.5788 20.5533 62.4909 20.6272 62.4565 20.7315C62.4354 20.7979 62.4297 20.9002 62.5176 21.0197C62.6495 21.2984 62.875 21.6378 63.1884 22.0303C63.5037 22.4266 63.8382 22.8115 64.1841 23.1736C64.53 23.5377 64.8529 23.8619 65.1434 24.1406C65.5352 24.516 65.6862 24.626 65.7645 24.6734C65.8563 24.7379 65.9767 24.7682 66.141 24.7682C66.2117 24.7682 66.2882 24.7625 66.3742 24.7511C66.6302 24.717 66.9054 24.6146 67.1921 24.4459C67.4749 24.279 67.7635 24.0249 68.0502 23.6912C68.3387 23.3537 68.5853 22.9006 68.7821 22.345C68.8738 22.0948 68.9331 21.5942 68.9656 20.813C68.9961 20.0603 69.0133 19.1767 69.0133 18.187V15.231C69.2675 15.5704 69.5599 15.9572 69.8982 16.4009C70.395 17.0494 70.934 17.7395 71.5035 18.4486C72.0768 19.1635 72.6807 19.8764 73.2999 20.5646C73.9229 21.2567 74.5325 21.8957 75.1135 22.4626C75.6983 23.0352 76.2563 23.5111 76.7704 23.8771C77.315 24.2657 77.7832 24.4648 78.1922 24.4876C78.4368 24.5084 78.7961 24.4933 79.293 24.4402C79.7669 24.389 80.3058 24.3169 80.8964 24.2221C81.4792 24.1292 82.0812 24.0193 82.6851 23.896C83.2986 23.7709 83.8566 23.6495 84.3439 23.5396C84.8446 23.422 85.2612 23.3101 85.5766 23.2058Z" fill="white"/>
<path d="M103.818 1.28537C103.346 1.00854 102.87 0.809457 102.408 0.690005C101.945 0.57245 101.523 0.513672 101.156 0.513672C100.802 0.513672 100.506 0.553489 100.277 0.633123C100.004 0.727926 99.8354 0.881507 99.7761 1.09197L99.7704 1.11283C99.7455 1.25882 99.7513 1.42757 99.7876 1.61528C99.8201 1.78782 99.864 1.96795 99.9175 2.14618C99.9691 2.31872 100.015 2.48747 100.055 2.64863C100.095 2.806 100.124 2.94441 100.145 3.06007C100.156 3.19469 100.145 3.53219 100.021 4.36835C99.9175 5.06041 99.7264 5.89089 99.4493 6.83512C99.1722 7.78315 98.7919 8.81839 98.318 9.91052C97.8765 10.9287 97.3299 11.9203 96.6897 12.8589C96.4623 12.6427 96.2101 12.383 95.933 12.0834C95.5871 11.7099 95.2239 11.3136 94.857 10.9078C94.4958 10.5078 94.1557 10.1153 93.848 9.73798C93.5403 9.36256 93.3033 9.04971 93.1428 8.80891C92.5255 7.87226 92.0172 6.96405 91.6273 6.10893C91.2355 5.25002 90.9164 4.47264 90.6813 3.80143C90.4444 3.12644 90.2666 2.56331 90.1558 2.12911C89.9934 1.50341 89.8921 1.32139 89.8233 1.23607C89.5137 0.834105 89.1659 0.631227 88.7894 0.631227C88.5123 0.631227 88.2543 0.729822 88.0192 0.925116C87.8052 1.10335 87.6083 1.33846 87.4306 1.62286C87.2548 1.90538 87.1153 2.23719 87.0178 2.60502C86.9204 2.97096 86.8707 3.35396 86.8707 3.74076C86.8707 4.51625 87.1688 5.42446 87.7555 6.44264C88.3307 7.43807 89.0512 8.47331 89.8959 9.51994C90.7387 10.5628 91.656 11.598 92.6249 12.5991C93.5537 13.5604 94.4079 14.4212 95.1704 15.1588C94.9086 15.7674 94.5341 16.4216 94.0563 17.1042C93.5441 17.836 92.9211 18.5831 92.2025 19.3263C91.4821 20.0715 90.668 20.8166 89.785 21.5409C88.8983 22.2671 87.9485 22.9554 86.9605 23.5887C86.6547 23.7915 86.498 23.9774 86.4674 24.1727C86.433 24.3945 86.5362 24.5784 86.7541 24.6789C86.8707 24.732 87.014 24.7585 87.1841 24.7585C87.2624 24.7585 87.3484 24.7528 87.4402 24.7415C87.7077 24.7092 87.9982 24.6258 88.3135 24.4912C90.5265 23.4559 92.5064 22.1837 94.1996 20.7124C95.889 19.2429 97.3873 17.5782 98.6505 15.7655C99.9118 13.9548 101.011 11.9791 101.917 9.89156C102.819 7.81159 103.604 5.597 104.248 3.31035C104.29 3.20797 104.345 3.07904 104.412 2.92356C104.496 2.73395 104.538 2.52918 104.538 2.31682C104.542 1.8959 104.298 1.54702 103.818 1.28537Z" fill="white"/>
<path d="M106.616 2.8173C106.96 3.10171 107.228 3.51884 107.413 4.06111C107.606 4.62424 107.749 5.25942 107.841 5.94389C107.933 6.63785 107.996 7.36593 108.027 8.10919C108.057 8.84865 108.084 9.56157 108.105 10.2347C108.126 10.5854 108.135 11.0102 108.135 11.4936V13.1356C108.135 13.8637 108.13 14.6506 108.12 15.4716C108.109 16.285 108.084 17.0756 108.042 17.817C108 18.5659 107.942 19.2713 107.872 19.9121C107.799 20.5511 107.713 21.0687 107.612 21.4441C107.463 21.975 107.386 22.451 107.386 22.8605C107.386 23.4331 107.495 23.8313 107.719 24.0778C107.92 24.2996 108.107 24.4627 108.292 24.5783L108.309 24.5878C108.405 24.6352 108.535 24.6807 108.707 24.7262C108.879 24.7717 109.07 24.7945 109.274 24.7945C109.529 24.7945 109.785 24.7433 110.037 24.6409C110.28 24.5423 110.482 24.3717 110.643 24.1309C110.956 24.091 111.304 24.0361 111.682 23.9716C112.099 23.8995 112.512 23.8199 112.907 23.7384C113.303 23.6568 113.674 23.5791 114.016 23.5052C114.358 23.4331 114.633 23.3762 114.832 23.3364C115.789 23.1923 116.571 23.0729 117.175 22.9799C117.765 22.8889 118.257 22.8207 118.633 22.779C119 22.7392 119.292 22.7183 119.501 22.7183C119.709 22.7183 119.917 22.7278 120.118 22.7486C120.458 22.7885 120.819 22.8643 121.192 22.9743C121.517 23.071 121.721 23.2056 121.803 23.3838C122.012 23.7972 122.318 24.0929 122.713 24.2674C123.091 24.4323 123.464 24.5158 123.825 24.5158C124.301 24.5158 124.634 24.4153 124.834 24.2162C125.104 23.9716 125.331 23.6284 125.509 23.1999C125.681 22.7847 125.815 22.3125 125.91 21.7968C126.004 21.2887 126.073 20.7407 126.117 20.1643C126.159 19.5917 126.18 19.0191 126.18 18.4617C126.18 17.9023 126.165 17.3619 126.132 16.8538C126.101 16.3494 126.063 15.9039 126.021 15.5228C125.899 14.607 125.836 13.5945 125.836 12.5137C125.836 11.7363 125.851 10.9779 125.882 10.2612C125.912 9.53881 125.929 8.89036 125.929 8.33292C125.929 7.89114 125.971 7.41713 126.052 6.92415C126.134 6.42739 126.231 5.95906 126.344 5.53245C126.457 5.10773 126.57 4.72094 126.684 4.38344C126.795 4.05353 126.883 3.81273 126.944 3.67052C127.013 3.51125 127.061 3.34819 127.084 3.18513C127.11 2.99742 127.067 2.79834 126.95 2.59546C126.845 2.41154 126.68 2.21435 126.445 1.99062C126.224 1.78015 125.907 1.52608 125.505 1.23219C124.991 0.849192 124.481 0.578056 123.994 0.428267C123.506 0.278479 123.061 0.202637 122.669 0.202637C122.212 0.202637 121.84 0.280375 121.563 0.433955C121.343 0.492733 121.068 0.572368 120.724 0.676651L119.646 1.00277C119.279 1.11464 118.904 1.21703 118.532 1.30993C118.165 1.40094 117.834 1.46731 117.551 1.50712C117.295 1.54694 116.949 1.59624 116.462 1.6607C116.007 1.72138 115.508 1.78395 114.983 1.84652C114.453 1.90909 113.92 1.96028 113.399 2.0001C112.871 2.04181 112.395 2.07215 111.984 2.093C111.541 2.11386 111.075 2.093 110.599 2.03233C110.117 1.97166 109.657 1.89392 109.227 1.80291C108.795 1.7119 108.405 1.61899 108.067 1.52608C107.725 1.43318 107.48 1.36681 107.337 1.3251L107.321 1.32131C107.144 1.28339 106.599 1.17152 106.368 1.49385C106.245 1.6626 106.177 1.79343 106.146 1.91098C106.115 2.05888 106.138 2.20677 106.209 2.34897C106.27 2.4798 106.398 2.6258 106.616 2.8173ZM122.451 9.46108C122.461 9.62414 122.467 9.7872 122.467 9.94457V9.95405C122.488 10.3465 122.497 10.739 122.497 11.1201V13.6134C122.497 14.0457 122.488 14.4951 122.467 14.9521C122.425 15.7275 122.4 16.4689 122.388 17.1572C122.377 17.8341 122.361 18.437 122.342 18.9489C122.321 19.4552 122.285 19.8628 122.235 20.1624C122.174 20.5227 122.082 20.572 122.079 20.5739C121.991 20.6175 121.901 20.6307 121.807 20.6175C121.695 20.6004 121.593 20.5758 121.507 20.5416C121.419 20.4885 121.343 20.4354 121.282 20.3843C121.209 20.3236 121.127 20.2515 121.033 20.17C120.932 20.0809 120.802 19.9861 120.649 19.8875C120.492 19.7889 120.288 19.6865 120.02 19.5765C119.684 19.4438 119.323 19.3774 118.944 19.3774C118.66 19.3774 118.344 19.4154 118.008 19.4912C117.676 19.5652 117.288 19.6656 116.856 19.7889C116.414 19.914 115.9 20.0714 115.331 20.2553C114.761 20.4392 114.092 20.6478 113.347 20.8734C112.73 21.0574 112.219 21.1863 111.833 21.2564C111.562 21.3057 111.337 21.3171 111.159 21.2887C111.187 21.1123 111.208 20.9569 111.224 20.8241C111.245 20.6478 111.266 20.4563 111.287 20.2477C111.308 20.0335 111.319 19.7813 111.319 19.5007V18.4313C111.319 17.5117 111.314 16.3305 111.304 14.8212C111.293 13.3347 111.256 11.4936 111.195 9.34921C111.174 8.70455 111.153 8.14521 111.132 7.68826C111.111 7.25217 111.101 6.87486 111.101 6.5677C111.101 6.10316 111.147 5.76566 111.239 5.56658C111.327 5.37508 111.533 5.17409 111.86 4.96553C112.114 4.79109 112.476 4.62803 112.934 4.48014C113.404 4.32845 113.937 4.19573 114.522 4.08386C115.109 3.972 115.736 3.87909 116.386 3.80704C117.851 3.64587 119.266 3.66294 120.473 3.89805C121.131 4.02698 121.651 4.22796 122.021 4.4991C122.205 4.63182 122.325 4.88969 122.379 5.26511C122.44 5.68982 122.47 6.20176 122.47 6.78574C122.47 7.10807 122.465 7.45505 122.455 7.8172C122.446 8.16797 122.44 8.55097 122.44 8.95293C122.436 9.12547 122.442 9.29802 122.451 9.46108Z" fill="white"/>
<path d="M171.86 2.59741C171.755 2.41349 171.591 2.2163 171.356 1.99257C171.134 1.78211 170.817 1.52804 170.415 1.23415C169.901 0.851145 169.391 0.580009 168.904 0.43022C168.416 0.280432 167.971 0.20459 167.579 0.20459C167.123 0.20459 166.75 0.282328 166.471 0.435909C166.251 0.494686 165.976 0.574321 165.632 0.678604L164.554 1.00473C164.187 1.11659 163.813 1.21898 163.44 1.31189C163.073 1.4029 162.742 1.46926 162.46 1.50908C162.203 1.54889 161.858 1.59819 161.37 1.66266C160.915 1.72333 160.417 1.7859 159.891 1.84847C159.362 1.91104 158.828 1.96223 158.307 2.00205C157.779 2.04376 157.303 2.0741 156.893 2.09496C156.449 2.11581 155.983 2.09496 155.507 2.03428C155.025 1.97361 154.565 1.89587 154.135 1.80486C153.703 1.71385 153.313 1.62094 152.975 1.52804C152.633 1.43513 152.388 1.36877 152.245 1.32705L152.23 1.32326C152.052 1.28534 151.507 1.17347 151.276 1.4958C151.154 1.66455 151.085 1.79538 151.054 1.91294C151.024 2.06083 151.047 2.20872 151.117 2.35092C151.182 2.47986 151.31 2.62775 151.528 2.81735C151.872 3.10176 152.14 3.51889 152.325 4.06117C152.518 4.6243 152.661 5.25947 152.753 5.94395C152.845 6.63791 152.908 7.36599 152.939 8.10924C152.969 8.84302 152.996 9.55593 153.017 10.2347C153.038 10.5874 153.047 11.0102 153.047 11.4937V13.1357C153.047 13.86 153.042 14.6468 153.032 15.4716C153.021 16.285 152.996 17.0738 152.954 17.817C152.912 18.566 152.854 19.2713 152.784 19.9122C152.711 20.5512 152.625 21.0688 152.524 21.4442C152.375 21.9751 152.298 22.451 152.298 22.8606C152.298 23.4332 152.407 23.8313 152.631 24.0778C152.832 24.2997 153.019 24.4627 153.204 24.5784L153.221 24.5879C153.317 24.6353 153.447 24.6808 153.619 24.7263C153.791 24.7718 153.982 24.7945 154.187 24.7945C154.441 24.7945 154.697 24.7433 154.949 24.641C155.192 24.5424 155.394 24.3717 155.555 24.1309C155.868 24.0911 156.216 24.0361 156.593 23.9716C157.009 23.8996 157.422 23.82 157.818 23.7384C158.213 23.6569 158.584 23.5792 158.926 23.5052C159.268 23.4332 159.543 23.3763 159.742 23.3365C160.699 23.1924 161.481 23.0729 162.085 22.98C162.675 22.889 163.167 22.8226 163.543 22.779C163.91 22.7392 164.202 22.7184 164.411 22.7184C164.619 22.7184 164.827 22.7278 165.028 22.7487C165.368 22.7885 165.729 22.8643 166.102 22.9743C166.427 23.071 166.631 23.2056 166.714 23.3839C166.922 23.7972 167.228 24.093 167.623 24.2674C168.002 24.4324 168.374 24.5158 168.735 24.5158C169.211 24.5158 169.544 24.4153 169.745 24.2162C170.014 23.9716 170.241 23.6285 170.419 23.2C170.591 22.7847 170.725 22.3145 170.82 21.7969C170.914 21.2887 170.983 20.7389 171.027 20.1644C171.069 19.5918 171.09 19.0191 171.09 18.4617C171.09 17.9024 171.075 17.362 171.042 16.8539C171.012 16.3514 170.973 15.9039 170.931 15.5228C170.809 14.607 170.746 13.5945 170.746 12.5138C170.746 11.7345 170.761 10.978 170.792 10.2613C170.822 9.54077 170.84 8.89042 170.84 8.33298C170.84 7.8912 170.882 7.41718 170.962 6.92421C171.044 6.42744 171.141 5.96101 171.254 5.53251C171.367 5.10589 171.48 4.72099 171.594 4.3835C171.705 4.05358 171.793 3.81468 171.854 3.67058C171.923 3.51131 171.969 3.34825 171.994 3.18519C172.021 2.99938 171.975 2.80029 171.86 2.59741ZM156.212 14.8213C156.201 13.3367 156.164 11.4956 156.103 9.34927C156.082 8.70461 156.061 8.14527 156.04 7.68832C156.019 7.25223 156.01 6.87491 156.01 6.56775C156.01 6.10322 156.056 5.76572 156.147 5.56664C156.235 5.37513 156.442 5.17415 156.768 4.96559C157.023 4.79115 157.384 4.62809 157.842 4.4802C158.312 4.32851 158.846 4.19579 159.43 4.08392C160.017 3.97205 160.644 3.87915 161.294 3.8071C162.76 3.64593 164.174 3.66299 165.382 3.89811C166.039 4.02704 166.559 4.22802 166.93 4.49916C167.113 4.63188 167.233 4.88974 167.287 5.26516C167.348 5.68988 167.379 6.20181 167.379 6.7858C167.379 7.10813 167.373 7.45511 167.363 7.81725C167.354 8.16802 167.348 8.55103 167.348 8.95299C167.348 9.12743 167.354 9.29807 167.363 9.46113C167.373 9.62419 167.379 9.78725 167.379 9.94463V9.95411C167.4 10.3485 167.409 10.741 167.409 11.1202V13.6135C167.409 14.0458 167.4 14.4952 167.379 14.9502C167.337 15.7238 167.31 16.4671 167.3 17.1572C167.289 17.836 167.273 18.439 167.254 18.949C167.233 19.4552 167.197 19.8629 167.147 20.1625C167.086 20.5227 166.994 20.572 166.991 20.5739C166.903 20.6175 166.813 20.6308 166.719 20.6175C166.607 20.6005 166.505 20.5758 166.419 20.5417C166.331 20.4886 166.255 20.4355 166.194 20.3843C166.121 20.3236 166.039 20.2516 165.947 20.1701C165.844 20.0809 165.716 19.9861 165.563 19.8875C165.406 19.7889 165.202 19.6866 164.934 19.5766C164.598 19.4439 164.237 19.3775 163.858 19.3775C163.574 19.3775 163.258 19.4154 162.922 19.4913C162.589 19.5652 162.202 19.6657 161.77 19.7889C161.328 19.9141 160.814 20.0715 160.245 20.2554C159.675 20.4393 159.006 20.6479 158.261 20.8735C157.644 21.0574 157.133 21.1863 156.747 21.2565C156.476 21.3058 156.25 21.3172 156.073 21.2887C156.099 21.1143 156.122 20.9588 156.138 20.8242C156.159 20.6479 156.18 20.4564 156.201 20.2478C156.222 20.0335 156.233 19.7814 156.233 19.5007V18.4314C156.228 17.5156 156.222 16.3343 156.212 14.8213Z" fill="white"/>
<path d="M79.5485 45.6455C79.2389 45.1468 78.8968 44.7221 78.5318 44.3808C78.1726 44.0452 77.8305 43.7589 77.5151 43.5295C77.1081 43.2337 76.5806 42.9436 75.9462 42.6706C75.3193 42.4014 74.6333 42.1283 73.9071 41.861C73.1923 41.5974 72.4489 41.313 71.6959 41.0115C70.9602 40.7177 70.2646 40.384 69.6301 40.018C69.0013 39.6559 68.4471 39.2482 67.9827 38.8064C67.5336 38.3798 67.2374 37.902 67.1017 37.3844C67.0024 36.99 66.9508 36.6525 66.9508 36.3795C66.9508 36.0192 67.0501 35.7822 67.2565 35.6533C67.8986 35.3158 68.621 35.0845 69.4046 34.965C70.2034 34.8437 70.9697 34.7811 71.6845 34.7811C72.1775 34.7811 72.6438 34.7963 73.0757 34.8266L73.4904 34.857C73.7484 34.8759 73.9739 34.8911 74.1631 34.9044C74.2663 34.9138 74.381 34.9499 74.4421 35.1508C74.509 35.3689 74.5434 35.6154 74.5434 35.8827C74.5434 36.205 74.5281 36.5217 74.4976 36.8232C74.4613 37.1796 74.4708 37.3996 74.5262 37.5361C74.5625 37.629 74.6313 37.6953 74.7212 37.7238C74.8377 37.7617 74.9715 37.7314 75.132 37.6309C75.3079 37.5228 75.5047 37.3692 75.7226 37.1758C75.9213 36.9976 76.1449 36.8061 76.3876 36.6089C76.6131 36.4231 76.8252 36.2809 77.0278 36.1804C77.4349 35.9586 77.8668 35.7462 78.3082 35.5528C78.8013 35.3367 79.1262 35.056 79.2695 34.7204C79.4071 34.4019 79.0497 34.0796 78.7229 33.8331C78.3331 33.5411 77.8744 33.2396 77.3623 32.9381C76.8482 32.6367 76.3456 32.3636 75.8659 32.1266C75.3709 31.882 75.0537 31.7398 74.8951 31.6962L74.8721 31.6905C74.7231 31.6659 74.5186 31.6773 74.2453 31.7209C73.9854 31.7645 73.7064 31.8346 73.4197 31.9294C73.1426 32.0205 72.8502 32.1266 72.5521 32.2423C72.2597 32.3561 72.0094 32.4546 71.8068 32.5343C71.5889 32.612 71.2851 32.6879 70.9029 32.758C70.5149 32.8301 70.0734 32.8907 69.5919 32.9419C69.1084 32.9931 68.6019 33.0292 68.0917 33.05C67.5814 33.0709 67.0903 33.0803 66.6373 33.0803C65.8672 33.0614 65.1773 32.9742 64.5906 32.8225C63.9886 32.667 63.5452 32.5589 63.2662 32.4945C63.1095 32.466 62.6298 32.3769 62.4349 32.6936C62.3413 32.8452 62.2839 32.9533 62.2591 33.0292L62.2534 33.0519C62.2228 33.2036 62.24 33.3382 62.3069 33.4539C62.3393 33.5108 62.4101 33.6131 62.6528 33.852L62.6795 33.8748C62.9108 34.0341 63.0579 34.2597 63.1286 34.5631C63.2089 34.9044 63.27 35.293 63.3121 35.7159C63.3752 36.3416 63.4497 36.8952 63.5319 37.3597C63.6179 37.847 63.7363 38.2149 63.893 38.486C64.1721 39.1212 64.5715 39.7109 65.0836 40.2399C65.5901 40.7651 66.1844 41.2542 66.8495 41.6941C67.5088 42.1302 68.2197 42.5379 68.9631 42.9019C69.6989 43.2622 70.4537 43.6035 71.2067 43.9163C71.9482 44.2235 72.6649 44.5363 73.3395 44.8435C74.0007 45.1468 74.5969 45.4995 75.1129 45.8901C75.6213 46.2769 76.036 46.7244 76.3437 47.2173C76.6456 47.7008 76.7985 48.3019 76.7985 49.0053C76.7985 49.6386 76.7144 50.179 76.5462 50.6094C76.38 51.0379 76.1526 51.4019 75.8716 51.6901C75.5888 51.9821 75.2773 52.2078 74.9467 52.3613C74.6046 52.5206 74.2702 52.642 73.9434 52.7235C73.8077 52.7633 73.479 52.8278 72.6706 52.9017C72.0132 52.9624 71.2736 52.9946 70.4729 52.9946C69.6721 52.9946 68.8828 52.9491 68.1242 52.8562C67.3941 52.769 66.859 52.5983 66.5303 52.35C66.0545 52.0163 65.7219 51.6977 65.5385 51.4019C65.355 51.1061 65.2384 50.8066 65.1907 50.5146C65.141 50.2074 65.12 49.8813 65.1314 49.5457C65.1429 49.1835 65.1142 48.7759 65.0512 48.3265C64.946 47.7558 64.818 47.498 64.6097 47.443C64.3976 47.3861 64.195 47.515 64.0096 47.8279C63.8682 48.0649 63.7211 48.3891 63.572 48.7892C63.4287 49.176 63.2911 49.5647 63.1649 49.942C63.0923 50.16 62.9585 50.3705 62.7732 50.5639C62.5629 50.7819 62.3508 50.9943 62.1406 51.1915C61.917 51.4038 61.7183 51.6124 61.5482 51.8115C61.3513 52.0428 61.252 52.3101 61.252 52.6059C61.252 52.8771 61.3551 53.1501 61.5577 53.4193C61.7488 53.6734 62.0527 53.9521 62.4884 54.2726C62.928 54.5949 63.7344 54.921 64.9575 55.268C66.1519 55.6074 67.719 55.8311 69.6167 55.9335C69.783 55.9544 69.9798 55.9695 70.2187 55.9809C70.4537 55.9904 70.6984 55.9961 70.9449 55.9961C71.3749 55.9961 71.845 55.9847 72.3419 55.9657C72.8177 55.9468 73.2936 55.9202 73.7523 55.888C74.2071 55.8558 74.6256 55.8197 74.9944 55.778C75.3805 55.7363 75.6633 55.6946 75.8506 55.6529C76.6991 55.505 77.433 55.2699 78.035 54.9513C78.6427 54.629 79.1376 54.2081 79.5084 53.7C79.8753 53.1975 80.1486 52.6135 80.3206 51.9613C80.4907 51.3204 80.5862 50.5904 80.6073 49.7941C80.6283 48.8897 80.5365 48.0876 80.334 47.4088C80.118 46.7376 79.8581 46.1442 79.5485 45.6455Z" fill="white"/>
<path d="M101.993 33.6454C101.753 33.4274 101.439 33.1695 101.057 32.8737C100.545 32.4926 100.071 32.2177 99.6505 32.0565C99.2243 31.8935 98.8154 31.8101 98.4389 31.8101C98.0376 31.8101 97.6324 31.8992 97.2368 32.0736C96.9234 32.2063 96.5603 32.358 96.1609 32.5211C95.7424 32.6936 95.2627 32.851 94.7333 32.9932L94.7219 32.997C94.6454 33.0216 94.4696 33.0634 94.0587 33.1126C93.7166 33.1544 93.3153 33.1999 92.8586 33.2511C92.4018 33.3023 91.9279 33.3553 91.4387 33.4065C90.9494 33.4577 90.4984 33.5051 90.0818 33.5449C89.6633 33.5848 89.2008 33.5696 88.7077 33.4994C88.2032 33.4274 87.7216 33.3402 87.2725 33.2397C86.8215 33.1373 86.4106 33.0292 86.0552 32.9192C85.694 32.8074 85.4341 32.7277 85.285 32.686L85.2697 32.6822C85.092 32.6443 84.5473 32.5325 84.3161 32.8548C84.1938 33.0235 84.125 33.1544 84.0944 33.2719C84.0638 33.4198 84.0868 33.5677 84.1575 33.7099C84.2225 33.8388 84.3505 33.9867 84.5684 34.1763C84.9162 34.4645 85.2124 34.8874 85.4494 35.4334C85.6921 35.9984 85.8946 36.6317 86.0475 37.3181C86.2004 38.0083 86.3093 38.7345 86.3705 39.4758C86.4317 40.221 86.4641 40.9301 86.4641 41.5823V45.6721C86.4641 46.3206 86.4584 46.9709 86.4488 47.6042C86.4374 48.2337 86.4278 48.812 86.4183 49.3391C86.4068 49.8643 86.3877 50.3194 86.3571 50.691C86.3246 51.0986 86.2902 51.3053 86.2635 51.4096C86.1832 51.5101 86.0762 51.5916 85.9367 51.6523C85.7112 51.7262 85.4799 51.7622 85.2449 51.7622C84.9945 51.7622 84.748 51.7414 84.5053 51.7016C84.3352 51.6807 84.1575 51.6656 83.9778 51.6542C83.7734 51.6428 83.6109 51.6618 83.4791 51.7111C83.3147 51.7604 83.2478 51.8552 83.223 51.9253C83.1981 51.9936 83.1867 52.1054 83.2746 52.2438C83.4083 52.5264 83.63 52.8563 83.9511 53.2488C84.2626 53.6299 84.5951 54.0129 84.9429 54.3883C85.2907 54.7637 85.6137 55.0955 85.9042 55.3723C86.3036 55.7553 86.4622 55.852 86.554 55.89C86.6629 55.9431 86.8234 55.9734 87.0585 55.9848C87.0814 55.9867 87.1043 55.9867 87.1292 55.9867C87.3432 55.9867 87.5745 55.9412 87.8191 55.8482C88.0847 55.7478 88.3637 55.5809 88.6466 55.3515C88.9313 55.1221 89.1951 54.8073 89.4263 54.4243C89.5238 54.2783 89.5906 54.1209 89.627 53.9541C89.6575 53.81 89.6843 53.6621 89.7072 53.5123C89.7225 53.4365 89.7435 53.2525 89.7722 52.5889C89.7932 52.0846 89.8028 51.2484 89.8028 50.1032C89.8028 49.3884 89.7932 48.5409 89.7722 47.5132C89.7512 46.5159 89.7206 45.3327 89.6786 43.9979V42.4981C89.6786 42.3825 89.6728 42.2573 89.6614 42.1246C89.6518 42.0108 89.6461 41.7662 89.6461 41.3927C89.625 40.6097 89.5887 39.9176 89.5352 39.3355C89.4836 38.7686 89.4588 38.2529 89.4588 37.8054C89.4588 37.2972 89.5218 36.8915 89.6461 36.5976C89.7626 36.3227 90.013 36.0781 90.3818 35.8771C90.7774 35.6818 91.4635 35.5149 92.419 35.3841C93.3899 35.2514 94.4409 35.1319 95.5474 35.0277C96.2201 34.9499 96.761 34.9916 97.1547 35.1528C97.6496 35.3557 97.856 35.515 97.942 35.6117C98.0796 35.7671 98.2306 35.9814 98.3892 36.2487C98.5364 36.4952 98.6128 36.9351 98.6128 37.557C98.6128 38.1581 98.5096 38.9468 98.3051 39.8986C98.1637 40.5243 97.9841 41.0742 97.7719 41.533C97.5674 41.9786 97.2903 42.3521 96.9502 42.6422C96.61 42.9323 96.1838 43.1466 95.685 43.2831C95.1767 43.4215 94.5518 43.4708 93.8275 43.431C92.9732 43.3912 92.2891 43.3002 91.796 43.1598C91.2151 42.9968 90.8348 42.9475 90.7277 43.2148L90.7239 43.2243C90.6608 43.4101 90.808 43.5884 90.9437 43.723C91.0775 43.8576 91.2437 44.032 91.4367 44.2425C91.6336 44.4586 91.8572 44.707 92.1075 44.9839C92.3483 45.2531 92.5853 45.5527 92.8051 45.8712C93.0535 46.2656 93.5007 46.4533 94.1466 46.4286C95.1442 46.3471 96.0959 46.2315 96.9731 46.0855C97.8732 45.9376 98.6166 45.6532 99.1823 45.2436C99.9811 44.6653 100.547 43.9353 100.86 43.0745C101.164 42.2403 101.393 41.3586 101.541 40.4523C101.686 39.5498 101.818 38.6359 101.932 37.7352C102.043 36.8536 102.284 36.0421 102.647 35.3216L102.653 35.3102C102.725 35.1414 102.764 34.9746 102.764 34.8134C102.764 34.6371 102.697 34.4532 102.557 34.2522C102.429 34.0739 102.246 33.8749 101.993 33.6454Z" fill="white"/>
<path d="M130.344 54.7748C130.16 54.6383 129.868 54.498 129.451 54.3463C128.876 54.1226 128.318 53.8893 127.792 53.6542C127.275 53.4229 126.762 53.1499 126.271 52.8465C125.78 52.5412 125.289 52.1829 124.811 51.779C124.333 51.3752 123.842 50.8727 123.347 50.2811C123.181 50.0972 123.038 49.9323 122.914 49.7882C122.791 49.6479 122.675 49.5 122.564 49.3502C122.451 49.1966 122.336 49.0335 122.227 48.8648C122.159 48.7586 122.082 48.6373 122 48.5007C122.248 48.4761 122.539 48.4571 122.864 48.4439C123.345 48.423 123.919 48.4135 124.572 48.4135H125.43C125.721 48.4135 126.038 48.423 126.376 48.4439C126.994 48.4666 127.458 48.4097 127.8 48.2751C128.154 48.1348 128.398 47.949 128.526 47.7215C128.656 47.4883 128.683 47.2342 128.607 46.9668C128.534 46.7147 128.398 46.5004 128.201 46.3298C128.029 46.1819 127.833 46.0226 127.613 45.8576C127.384 45.6851 127.131 45.5315 126.86 45.4026C126.585 45.2718 126.296 45.1789 125.998 45.1239C125.683 45.067 125.36 45.0954 125.039 45.2092C124.8 45.2888 124.505 45.359 124.161 45.4197C123.808 45.4822 123.426 45.5429 123.026 45.6055C122.612 45.668 122.208 45.7268 121.828 45.7761C121.486 45.8216 121.167 45.8614 120.871 45.8994C120.62 45.4538 120.345 44.9229 120.053 44.3237C119.734 43.6696 119.418 42.9851 119.12 42.2874C118.822 41.5934 118.539 40.9033 118.279 40.2339C118.035 39.6026 117.826 39.0375 117.662 38.554C117.78 38.1786 117.91 37.771 118.048 37.3292C118.189 36.876 118.337 36.4361 118.484 36.019C118.637 35.5867 118.753 35.2397 118.845 34.961C118.956 34.6178 118.986 34.4813 118.994 34.4093C119.003 34.3827 119.034 34.3334 119.116 34.2595C119.246 34.1419 119.34 33.9978 119.391 33.8291C119.451 33.6395 119.412 33.4309 119.279 33.2053C119.154 32.9986 118.887 32.7768 118.453 32.5284C118.061 32.3122 117.626 32.1586 117.159 32.0733C116.701 31.988 116.252 31.9463 115.827 31.9463C115.336 31.9463 114.9 31.9899 114.532 32.0752C114.254 32.1397 113.876 32.261 113.792 32.5549L113.786 32.5758C113.761 32.7275 113.773 32.8962 113.821 33.0782C113.863 33.2394 113.918 33.4025 113.985 33.5655C114.052 33.7286 114.123 33.886 114.195 34.0301C114.258 34.1533 114.298 34.2595 114.318 34.3429C114.329 34.4661 114.325 34.7733 114.239 35.5298C114.167 36.1593 114 37.022 113.744 38.0933C113.486 39.1684 113.098 40.471 112.594 41.9632C112.097 43.4326 111.436 45.1125 110.631 46.9574C109.989 47.0484 109.5 47.0996 109.173 47.109C108.833 47.1185 108.519 47.1242 108.242 47.1242C107.688 47.1242 107.208 47.1735 106.82 47.2702C106.432 47.3669 106.108 47.4826 105.855 47.6115C105.597 47.7442 105.395 47.8902 105.253 48.04C105.123 48.1803 105.026 48.2922 104.959 48.3813L104.948 48.3984C104.896 48.4837 104.802 48.7074 105.034 48.9596C105.152 49.0885 105.32 49.2156 105.534 49.3388C105.743 49.4583 105.981 49.5644 106.243 49.6498C106.501 49.7351 106.752 49.7995 106.989 49.8432C107.235 49.8887 107.516 49.8944 107.828 49.8602C108.124 49.828 108.548 49.7597 109.083 49.6573C109.328 49.6327 109.473 49.5948 109.561 49.5303C109.57 49.5265 109.595 49.517 109.649 49.5057C109.226 50.2281 108.689 50.9315 108.051 51.6008C107.3 52.3858 106.293 53.2807 105.056 54.2629C104.795 54.4752 104.63 54.7084 104.567 54.9568C104.5 55.2223 104.539 55.4536 104.676 55.647C104.818 55.8442 105.037 55.9503 105.33 55.9617C105.349 55.9617 105.368 55.9636 105.385 55.9636C105.636 55.9636 105.895 55.8859 106.157 55.7342C107.894 54.7369 109.303 53.6713 110.341 52.5697C111.352 51.4946 112.233 50.3741 112.955 49.2364C113.364 49.1625 113.817 49.1018 114.302 49.0544C114.837 49.0032 115.374 48.9615 115.902 48.9312C116.431 48.9008 116.961 48.8743 117.475 48.8534C117.931 48.8345 118.35 48.825 118.721 48.8231C119.139 49.8432 119.523 50.6926 119.863 51.3486C120.219 52.035 120.548 52.6133 120.84 53.0683C121.138 53.5329 121.425 53.9083 121.692 54.1832C121.95 54.4487 122.195 54.7084 122.428 54.9606C122.598 55.1313 122.866 55.2678 123.246 55.3815C123.596 55.4877 124.014 55.5768 124.492 55.6508C124.962 55.7228 125.482 55.7759 126.042 55.8081C127.066 55.865 128.108 55.8688 129.029 55.8233C129.453 55.8025 129.858 55.7721 130.233 55.7304C130.353 55.7285 130.468 55.6887 130.571 55.6166C130.718 55.5124 130.768 55.3512 130.705 55.1824C130.661 55.0516 130.546 54.9265 130.344 54.7748ZM116.433 41.3886C116.502 41.601 116.58 41.8437 116.668 42.1224C116.834 42.6495 117.006 43.1956 117.182 43.7625C117.358 44.3275 117.532 44.8698 117.698 45.376C117.822 45.7534 117.928 46.0529 118.015 46.2881C117.71 46.3355 117.387 46.3791 117.052 46.4189C116.618 46.4701 116.19 46.5175 115.776 46.5573C115.378 46.5971 114.975 46.6331 114.577 46.6654C114.34 46.6843 114.125 46.6976 113.932 46.7052C114.138 46.2767 114.358 45.8046 114.604 45.2737C114.891 44.6518 115.179 44.0374 115.462 43.4478C115.743 42.8581 115.994 42.331 116.211 41.8665C116.299 41.6882 116.372 41.529 116.433 41.3886Z" fill="white"/>
</g>
<defs>
<linearGradient id="paint0_linear_719_1517" x1="4.99188" y1="6.64308" x2="30.7939" y2="41.9608" gradientUnits="userSpaceOnUse">
<stop stop-color="#8A5C2A"/>
<stop offset="0.514222" stop-color="#C2A650" stop-opacity="0.81"/>
<stop offset="0.619294" stop-color="#D1BA5A" stop-opacity="0.92"/>
<stop offset="0.697308" stop-color="#C8AD53" stop-opacity="0.86"/>
<stop offset="1" stop-color="#A37C36"/>
</linearGradient>
<clipPath id="clip0_719_1517">
<rect width="172" height="56" fill="white"/>
</clipPath>
</defs>
</svg>
