<svg width="94" height="23" viewBox="0 0 94 23" fill="none" xmlns="http://www.w3.org/2000/svg">
<path d="M8.67573 5.05787H7.37717C5.01786 5.05787 3.77564 6.25584 3.77564 8.0296C3.77564 10.041 4.63465 10.9724 6.40557 12.1709L7.85852 13.1526L3.65684 19.4428H0.529297L4.29641 13.8152C2.12086 12.2597 0.904755 10.7549 0.904755 8.18875C0.904755 4.97878 3.12641 2.80859 7.34675 2.80859H11.5472V19.4439H8.66559V5.05787H8.67573ZM23.4258 7.40588V19.4439H20.5886V14.4202H16.7916V19.4439H13.9544V7.40588H16.7916V12.1709H20.5886V7.40588H23.4258ZM36.248 22.1886H33.6187V19.4339H27.2415V22.1886H24.6123V17.1901H25.5016C26.5004 15.1781 26.6982 11.3741 26.6982 8.43168V7.40138H34.9821V17.1901H36.248V22.1886ZM32.1448 9.65515H29.1397V10.0116C29.1397 12.0918 28.9233 15.3714 28.1308 17.1943H32.1448V9.65515ZM42.624 19.6715C38.9966 19.6715 36.9395 17.6404 36.9395 13.4498C36.9395 9.81333 38.5909 7.15969 42.0513 7.15969C44.8891 7.15969 46.7275 8.74401 46.7275 12.9256V14.431H39.8764C39.9942 16.4429 40.7855 17.4236 42.8618 17.4236C44.2461 17.4236 45.7284 16.8982 46.6081 16.2944V18.6216C45.7784 19.1965 44.4432 19.6715 42.624 19.6715ZM39.8764 12.3291H43.8403V12.093C43.8403 10.5877 43.4074 9.41845 42.0007 9.41845C40.6469 9.40656 39.9553 10.417 39.8764 12.3291ZM51.4823 13.5289V19.4439H48.6354V7.40588H51.4823V12.9538L55.5013 7.40588H58.3689L54.3555 12.9538L58.9123 19.4339H55.6839L51.4823 13.5289ZM58.7488 13.43C58.7488 9.76358 60.6369 7.15854 64.2677 7.15854C65.6744 7.15854 66.7294 7.39582 67.3224 7.73184V10.1506C66.7487 9.79349 65.671 9.40656 64.5737 9.40656C62.7149 9.40656 61.6868 10.7447 61.6868 13.3606C61.6868 15.8476 62.5278 17.432 64.5545 17.432C65.7499 17.432 66.6105 17.1253 67.3224 16.6197V18.9384C66.6298 19.4439 65.6992 19.6812 64.3853 19.6812C60.5872 19.6715 58.7476 17.4523 58.7476 13.43H58.7488Z" fill="#2F2F2F"/>
<path fill-rule="evenodd" clip-rule="evenodd" d="M84.4939 0.0449219C79.6009 0.0471269 75.6348 4.02444 75.6348 8.92889C75.6348 11.2809 76.5678 13.5402 78.2255 15.2052C79.8306 16.8139 83.6078 19.141 83.8315 21.5853C83.865 21.9504 84.13 22.2496 84.4943 22.2496C84.8587 22.2496 85.1244 21.9504 85.1571 21.5853C85.3808 19.1406 89.1551 16.8176 90.7591 15.2101C92.4197 13.5457 93.3546 11.2843 93.3546 8.92889C93.3546 4.02444 89.3872 0.0460723 84.4939 0.0449219Z" fill="#FF4433"/>
<path fill-rule="evenodd" clip-rule="evenodd" d="M84.4943 12.044C86.2115 12.0436 87.6042 10.6483 87.6042 8.92733C87.6042 7.20629 86.2115 5.81055 84.4943 5.81055C82.7775 5.81055 81.3848 7.20629 81.3848 8.92733C81.3848 10.6483 82.7775 12.0436 84.4943 12.0436V12.044Z" fill="black" fill-opacity="0.25098"/>
</svg>
