<?xml version="1.0" encoding="utf-8"?><svg viewBox="0 0 264 264" xmlns="http://www.w3.org/2000/svg" xmlns:xlink="http://www.w3.org/1999/xlink"><style>:root>svg{display:none}:root>svg:target{display:block}</style><svg fill="none" viewBox="0 0 24 24" id="icon_accordion_cross" xmlns="http://www.w3.org/2000/svg"><g clip-path="url(#aclip0_398_11639)"><path d="M.05 11.887c.13-.157.555-.251 1.275-.283a32.368 32.368 0 012.65-.094h2.013c.621 0 1.227.016 1.816.047.621 0 1.194-.031 1.717-.094a28.9 28.9 0 01-.147-1.508c-.032-.503-.049-.974-.049-1.414 0-.943.115-1.854.344-2.734.098-.377.261-.832.49-1.366.23-.566.475-1.1.737-1.603.294-.503.572-.927.834-1.272.262-.377.49-.566.687-.566.23 0 .425.377.59 1.131.163.754.245 2.105.245 4.053v4.666c.49-.062.965-.11 1.423-.141a10.473 10.473 0 012.798 0c.49.031.997.126 1.52.283.394.094.868.251 1.424.471.59.22 1.145.456 1.669.707.523.251.965.503 1.325.754.393.252.589.472.589.66 0 .251-.409.456-1.227.613-.785.125-2.192.188-4.22.188H13.3c.032.566.049 1.037.049 1.414.032.346.065.66.098.943.033.251.065.487.098.707.033.22.066.455.098.707.098.565.017 1.21-.245 1.932-.23.723-.524 1.398-.884 2.027-.36.597-.72 1.084-1.08 1.46-.36.378-.638.504-.834.378-.163-.126-.278-.534-.343-1.226a57.078 57.078 0 01-.05-2.545V18.25c0-.785-.016-1.477-.049-2.074 0-.628-.032-1.194-.098-1.696-.589 0-1.08.015-1.472.047-.393.031-.736.063-1.03.094-.262.031-.508.063-.737.094a44.17 44.17 0 01-.736.094c-.59.063-1.26-.015-2.012-.235-.72-.22-1.407-.503-2.062-.849a10.88 10.88 0 01-1.57-1.037c-.393-.345-.524-.612-.393-.8z" fill="currentColor"/></g><defs><clipPath id="aclip0_398_11639"><path fill="currentColor" d="M0 0h24v24H0z"/></clipPath></defs></svg><svg fill="none" viewBox="0 0 20 20" id="icon_arrow" xmlns="http://www.w3.org/2000/svg"><path d="M14.166 8.333L10 12.5 5.833 8.333" stroke="#000" stroke-width="1.25" stroke-linecap="round" stroke-linejoin="round"/></svg><svg fill="none" viewBox="0 0 36 36" id="icon_burger" xmlns="http://www.w3.org/2000/svg"><path d="M.114 3.011c.091-.271.617-.407 1.575-.407.96-.054 2.1-.081 3.425-.081.867 0 1.757.054 2.67.163.914.054 1.781.08 2.603.08.867 0 1.62-.08 2.26-.243.73-.163 1.712-.38 2.945-.651a69.118 69.118 0 014.04-.895c1.461-.272 2.9-.489 4.315-.651C25.362.109 26.617 0 27.713 0c.868 0 1.553.081 2.055.244.456.163 1.05.434 1.78.814.731.38 1.416.814 2.055 1.302.64.488 1.187 1.004 1.644 1.546.502.543.753 1.031.753 1.465 0 .597-.48 1.085-1.438 1.465-.913.325-2.603.488-5.068.488-6.392 0-11.391.19-14.998.57-3.607.325-6.004.624-7.191.895-.776.108-1.62-.081-2.534-.57a19.168 19.168 0 01-2.534-1.79C1.507 5.724.913 5.046.457 4.394 0 3.69-.114 3.228.114 3.011zM.114 16.601c.091-.27.617-.406 1.575-.406.96-.055 2.1-.082 3.425-.082.867 0 1.757.054 2.67.163.914.054 1.781.081 2.603.081.867 0 1.62-.081 2.26-.244.73-.163 1.712-.38 2.945-.65a68.997 68.997 0 014.04-.896c1.461-.271 2.9-.488 4.315-.651 1.415-.217 2.67-.326 3.766-.326.868 0 1.553.082 2.055.245.456.162 1.05.433 1.78.813.731.38 1.416.814 2.055 1.302.64.489 1.187 1.004 1.644 1.547.502.542.753 1.03.753 1.464 0 .597-.48 1.085-1.438 1.465-.913.326-2.603.489-5.068.489-6.392 0-11.391.19-14.998.57-3.607.325-6.004.623-7.191.894-.776.109-1.62-.081-2.534-.57a19.178 19.178 0 01-2.534-1.79c-.73-.705-1.324-1.383-1.78-2.034C0 17.279-.114 16.818.114 16.6zM.114 30.193c.091-.272.617-.407 1.575-.407.96-.055 2.1-.082 3.425-.082.867 0 1.757.055 2.67.163.914.054 1.781.081 2.603.081.867 0 1.62-.08 2.26-.244.73-.162 1.712-.38 2.945-.65a69.079 69.079 0 014.04-.896c1.461-.271 2.9-.488 4.315-.65 1.415-.218 2.67-.326 3.766-.326.868 0 1.553.081 2.055.244.456.163 1.05.434 1.78.814.731.38 1.416.813 2.055 1.302a10.33 10.33 0 011.644 1.546c.502.542.753 1.03.753 1.465 0 .597-.48 1.085-1.438 1.465-.913.325-2.603.488-5.068.488-6.392 0-11.391.19-14.998.57-3.607.325-6.004.623-7.191.895-.776.108-1.62-.082-2.534-.57a19.178 19.178 0 01-2.534-1.79c-.73-.706-1.324-1.384-1.78-2.035C0 30.871-.114 30.41.114 30.193z" fill="currentColor"/></svg><svg fill="none" viewBox="0 0 264 264" id="icon_call" xmlns="http://www.w3.org/2000/svg"><path d="M50 30.533C32.133 41.867 26.267 47.467 23.467 55.6c-2.8 8.133-2.667 11.067.666 23.867 13.2 50.666 48.267 98.666 94.667 129.6C133.467 218.8 156.933 230 174.4 235.6c12.667 4 16.533 4.667 24.267 4.133 13.2-.666 17.866-4.4 30.8-24.4 11.6-18 12.933-23.2 7.6-29.2C233.6 182.533 185.733 164 179.6 164c-2 0-8.267 3.067-14.4 6.933-13.733 8.667-16.533 8.8-27.733 1.2-23.467-16-53.467-49.6-53.467-60 0-1.866 3.333-8.8 7.333-15.466 4-6.534 7.334-12.934 7.334-14.134 0-4-19.867-54.933-22.4-57.466-1.334-1.334-4.534-2.8-7.067-3.2-3.867-.534-6.533.666-19.2 8.666zM135.068 23.333c-3.734 2.667-4.134 10-.667 12.934 1.2 1.2 5.867 2.533 10.267 2.933 13.6 1.466 20.933 3.6 32.533 9.066 25.867 12.267 45.333 42.134 45.467 69.201 0 10.8 7.066 16.266 14.4 11.066 2.533-1.733 2.933-3.2 2.933-11.466 0-12.134-2.933-24.267-9.333-37.734-15.467-33.2-46-54.133-83.334-57.466-7.466-.534-10-.267-12.266 1.466z" fill="currentColor"/><path d="M134.934 59.467c-3.6 2.533-4 9.866-.533 12.8 1.2 1.066 5.866 2.4 10.266 2.933 15.867 1.733 30.934 12.267 37.867 26.533 1.467 3.067 3.333 9.867 4 14.934 1.733 12.266 6.4 16.533 13.6 12.533 4.133-2.133 5.2-6.667 3.733-16.8-2.666-19.6-16.8-39.333-34.533-47.867-14.133-6.933-28.8-9.066-34.4-5.066zM134.266 95.6c-5.2 5.867-1.2 15.067 6.534 15.067 4.8 0 9.466 4.666 10.4 10.666 1.466 9.334 10.533 12.267 15.866 5.2 3.467-4.666 2.134-12.4-3.466-20.8-4.934-7.2-11.867-11.2-20.8-12.133-4.8-.4-6.667 0-8.534 2z" fill="currentColor"/></svg><svg fill="none" viewBox="0 0 264 264" id="icon_certificate" xmlns="http://www.w3.org/2000/svg"><path opacity=".962" fill-rule="evenodd" clip-rule="evenodd" d="M52.666 15.817c-3.114-3.778-7.114-5.333-12-4.667a40.188 40.188 0 00-4.666 4 96.585 96.585 0 00-.667 16 81.254 81.254 0 00-14.667.667c-3.922 1.253-5.7 3.92-5.333 8-.42 3.606.914 6.273 4 8a96.596 96.596 0 0016 .667 96.586 96.586 0 00.667 16c2.11 2.948 4.998 4.726 8.666 5.333 3.943-1.343 7.499-3.121 10.667-5.333-.221 7.568 0 15.124.667 22.666a46.255 46.255 0 008.666 10L56 105.817c-.667 18.217-.889 76.439-.667 94.667-3.257-2.518-7.034-4.295-11.333-5.334-3.37.699-6.036 2.478-8 5.334a96.58 96.58 0 00-.667 16 96.455 96.455 0 00-16 .666c-5.319 5.274-5.319 10.607 0 16a96.455 96.455 0 0016 .667 96.584 96.584 0 00.667 16c5.749 5.432 11.304 5.209 16.666-.667 52.445-.889 104.89-.889 157.334 0 5.462 5.774 11.017 5.996 16.666.667a96.454 96.454 0 00.667-16 96.454 96.454 0 0016-.667c5.319-5.393 5.319-10.726 0-16a96.454 96.454 0 00-16-.666 96.45 96.45 0 00-.667-16c-2.109-2.948-4.998-4.727-8.666-5.334-3.943 1.343-7.499 3.122-10.667 5.334 2.455-10.76-.656-19.206-9.333-25.334a28.986 28.986 0 008.666-9.333c.667-20.44.89-80.884.667-101.333 3.257 2.517 7.035 4.295 11.333 5.333 3.37-.699 6.036-2.477 8-5.333a96.456 96.456 0 00.667-16 96.595 96.595 0 0016-.667c1.556-.667 2.667-1.778 3.333-3.333 1.944-5.708.39-9.93-4.666-12.667a81.261 81.261 0 00-14.667-.667 96.455 96.455 0 00-.667-16c-5.649-5.329-11.204-5.106-16.666.667-52.444.889-104.889.889-157.334 0zM166 77.15a1803.313 1803.313 0 00-69.334-.666 44.89 44.89 0 00-5.333 7.333c.611 3.197 2.389 5.42 5.333 6.667 23.111.889 46.223.889 69.334 0 6.901-4.3 6.901-8.745 0-13.334zm-2.667 68c-21.329-.666-42.662-.888-64-.666-2.122.958-4.122 2.292-6 4-2.153 6.12-.153 9.897 6 11.333 21.333.889 42.667.889 64 0 2.439-.364 4.439-1.476 6-3.333 2.153-6.12.153-9.898-6-11.334zM166 174.484c-23.107-.667-46.218-.89-69.334-.667-6.587 4.613-6.587 9.28 0 14 23.111.889 46.223.889 69.334 0 6.901-4.589 6.901-9.033 0-13.333zm-2.666-64.333c-21.33-.667-42.662-.889-64-.667-2.122.959-4.122 2.292-6 4-2.154 6.12-.154 9.897 6 11.333 21.333.89 42.666.89 64 0 2.438-.364 4.438-1.476 6-3.333 2.153-6.12.153-9.897-6-11.333z" fill="currentColor"/></svg><svg fill="none" viewBox="0 0 40 40" id="icon_cross" xmlns="http://www.w3.org/2000/svg"><path d="M20 20l11.667 11.667M20.001 20L8.334 8.334M20.001 20L8.334 31.667M20.001 20L31.667 8.334" stroke="currentColor" stroke-width="3" stroke-linecap="round"/></svg><svg fill="none" viewBox="0 0 55 55" id="icon_inst" xmlns="http://www.w3.org/2000/svg"><path fill="url(#ga)" d="M27.5 0C16.04 0 12.68.01 12.03.07 9.66.27 8.2.63 6.6 1.43c-1.23.61-2.2 1.32-3.16 2.31a11.8 11.8 0 00-3.19 6.7c-.18 1.27-.24 1.53-.25 8.1v8.94c0 11.47.01 14.83.07 15.48.19 2.3.55 3.74 1.31 5.32a11.59 11.59 0 007.5 6.13c1.14.3 2.4.45 4 .53.68.03 7.62.05 14.57.05s13.9 0 14.56-.04c1.86-.09 2.94-.23 4.13-.54a11.51 11.51 0 007.51-6.15 13.6 13.6 0 001.3-5.21c.03-.48.05-8.03.05-15.58 0-7.54-.02-15.09-.05-15.56-.18-2.2-.56-3.7-1.33-5.26a10.9 10.9 0 00-2.35-3.23 11.87 11.87 0 00-6.7-3.18C43.3.07 43.03.01 36.46 0h-8.95z"/><path fill="currentColor" d="M27.5 0C16.04 0 12.68.01 12.03.07 9.66.27 8.2.63 6.6 1.43c-1.23.61-2.2 1.32-3.16 2.31a11.8 11.8 0 00-3.19 6.7c-.18 1.27-.24 1.53-.25 8.1v8.94c0 11.47.01 14.83.07 15.48.19 2.3.55 3.74 1.31 5.32a11.59 11.59 0 007.5 6.13c1.14.3 2.4.45 4 .53.68.03 7.62.05 14.57.05s13.9 0 14.56-.04c1.86-.09 2.94-.23 4.13-.54a11.51 11.51 0 007.51-6.15 13.6 13.6 0 001.3-5.21c.03-.48.05-8.03.05-15.58 0-7.54-.02-15.09-.05-15.56-.18-2.2-.56-3.7-1.33-5.26a10.9 10.9 0 00-2.35-3.23 11.87 11.87 0 00-6.7-3.18C43.3.07 43.03.01 36.46 0h-8.95z"/><path fill="#fff" d="M27.5 7.2c-5.52 0-6.21.02-8.38.12-2.16.1-3.63.44-4.92.94a9.94 9.94 0 00-3.6 2.34 9.97 9.97 0 00-2.34 3.6c-.5 1.29-.85 2.77-.95 4.93-.1 2.16-.12 2.86-.12 8.37 0 5.52.03 6.2.12 8.37.1 2.17.45 3.64.95 4.93a9.95 9.95 0 002.34 3.6 9.94 9.94 0 003.6 2.34c1.29.5 2.76.85 4.92.95 2.17.1 2.86.12 8.37.12 5.52 0 6.2-.02 8.37-.12 2.17-.1 3.64-.44 4.94-.95a9.94 9.94 0 003.59-2.34 9.97 9.97 0 002.34-3.6c.5-1.29.84-2.76.95-4.93.1-2.16.12-2.85.12-8.37 0-5.51-.03-6.2-.12-8.37-.1-2.16-.45-3.64-.95-4.93a9.97 9.97 0 00-2.34-3.6 9.92 9.92 0 00-3.6-2.34c-1.3-.5-2.77-.85-4.93-.94a144 144 0 00-8.37-.13zm-1.82 3.65h1.82c5.42 0 6.06.02 8.2.12 1.98.09 3.05.42 3.77.7.95.37 1.62.8 2.33 1.52a6.3 6.3 0 011.52 2.33c.28.72.61 1.8.7 3.77.1 2.14.12 2.79.12 8.2 0 5.43-.02 6.07-.12 8.21a11.23 11.23 0 01-.7 3.77c-.36.95-.8 1.62-1.52 2.33a6.28 6.28 0 01-2.33 1.52c-.71.28-1.79.61-3.77.7-2.14.1-2.78.12-8.2.12-5.43 0-6.07-.02-8.2-.12-1.99-.09-3.06-.42-3.78-.7a6.29 6.29 0 01-2.33-1.52 6.3 6.3 0 01-1.52-2.33c-.28-.72-.61-1.79-.7-3.77-.1-2.14-.12-2.78-.12-8.2 0-5.43.02-6.07.12-8.21.09-1.98.42-3.06.7-3.77a6.3 6.3 0 011.52-2.34 6.3 6.3 0 012.33-1.52c.72-.28 1.8-.6 3.77-.7 1.88-.08 2.6-.1 6.39-.11zm12.65 3.37a2.44 2.44 0 100 4.88 2.44 2.44 0 000-4.88zM27.5 17.07a10.43 10.43 0 100 20.86 10.43 10.43 0 000-20.86zm0 3.66a6.77 6.77 0 110 13.54 6.77 6.77 0 010-13.54z"/><defs><radialGradient id="ga" cx="0" cy="0" r="1" gradientTransform="matrix(0 -54.5091 50.6977 0 14.6 59.24)" gradientUnits="userSpaceOnUse"><stop stop-color="#FD5"/><stop offset=".1" stop-color="#FD5"/><stop offset=".5" stop-color="#FF543E"/><stop offset="1" stop-color="#C837AB"/></radialGradient></defs></svg><svg fill="none" viewBox="0 0 55 55" id="icon_inst-grey" xmlns="http://www.w3.org/2000/svg"><path d="M27.509 0C16.028 0 12.67.012 12.017.066 9.662.262 8.195.633 6.599 1.428a10.978 10.978 0 00-3.16 2.314C1.693 5.554.636 7.782.253 10.432c-.186 1.287-.24 1.549-.251 8.119-.004 2.19 0 5.072 0 8.938 0 11.475.013 14.83.068 15.482.19 2.293.55 3.736 1.31 5.314 1.456 3.021 4.235 5.29 7.51 6.135 1.133.292 2.385.453 3.992.53.681.029 7.623.05 14.568.05 6.946 0 13.891-.008 14.555-.042 1.862-.088 2.942-.233 4.137-.542a11.512 11.512 0 007.509-6.148c.746-1.54 1.125-3.038 1.296-5.211.037-.474.053-8.03.053-15.575 0-7.547-.017-15.088-.054-15.562-.174-2.209-.552-3.694-1.323-5.264a10.901 10.901 0 00-2.354-3.225C49.45 1.692 47.225.635 44.574.252 43.289.066 43.033.012 36.46 0h-8.951z" fill="url(#hpaint0_radial_398_12067)"/><path d="M27.509 0C16.028 0 12.67.012 12.017.066 9.662.262 8.195.633 6.599 1.428a10.978 10.978 0 00-3.16 2.314C1.693 5.554.636 7.782.253 10.432c-.186 1.287-.24 1.549-.251 8.119-.004 2.19 0 5.072 0 8.938 0 11.475.013 14.83.068 15.482.19 2.293.55 3.736 1.31 5.314 1.456 3.021 4.235 5.29 7.51 6.135 1.133.292 2.385.453 3.992.53.681.029 7.623.05 14.568.05 6.946 0 13.891-.008 14.555-.042 1.862-.088 2.942-.233 4.137-.542a11.512 11.512 0 007.509-6.148c.746-1.54 1.125-3.038 1.296-5.211.037-.474.053-8.03.053-15.575 0-7.547-.017-15.088-.054-15.562-.174-2.209-.552-3.694-1.323-5.264a10.901 10.901 0 00-2.354-3.225C49.45 1.692 47.225.635 44.574.252 43.289.066 43.033.012 36.46 0h-8.951z" fill="#454545"/><path d="M27.497 7.192c-5.515 0-6.207.024-8.372.123-2.162.1-3.637.441-4.928.944A9.942 9.942 0 0010.6 10.6c-1.13 1.128-1.823 2.261-2.343 3.597-.504 1.292-.846 2.768-.944 4.93-.096 2.166-.122 2.858-.122 8.374 0 5.515.025 6.206.123 8.372.1 2.162.442 3.638.943 4.93A9.95 9.95 0 0010.6 44.4a9.942 9.942 0 003.596 2.344c1.291.502 2.767.845 4.928.944 2.166.098 2.858.122 8.371.122 5.515 0 6.205-.024 8.37-.123 2.162-.099 3.64-.44 4.931-.943a9.936 9.936 0 003.594-2.344c1.13-1.129 1.823-2.262 2.344-3.597.499-1.292.842-2.768.943-4.93.097-2.166.123-2.857.123-8.372 0-5.516-.026-6.208-.123-8.374-.102-2.163-.444-3.638-.943-4.93-.52-1.335-1.214-2.469-2.344-3.597a9.922 9.922 0 00-3.595-2.342c-1.294-.503-2.77-.845-4.932-.944-2.166-.099-2.855-.123-8.371-.123h.006zm-1.822 3.66h1.822c5.42 0 6.063.02 8.204.117 1.98.09 3.054.421 3.77.7.947.368 1.623.808 2.333 1.518.71.711 1.15 1.388 1.52 2.336.277.715.608 1.79.699 3.77.097 2.14.118 2.784.118 8.204 0 5.42-.021 6.063-.118 8.204-.09 1.98-.422 3.055-.7 3.77a6.279 6.279 0 01-1.519 2.333c-.71.711-1.385 1.151-2.333 1.52-.715.279-1.79.608-3.77.7-2.14.096-2.783.118-8.204.118-5.422 0-6.064-.022-8.205-.119-1.98-.091-3.054-.422-3.77-.7-.948-.368-1.624-.808-2.335-1.52-.71-.71-1.15-1.385-1.52-2.334-.277-.715-.609-1.79-.699-3.77-.097-2.14-.116-2.783-.116-8.207 0-5.423.02-6.063.116-8.204.09-1.98.422-3.055.7-3.77.368-.949.808-1.626 1.519-2.337.71-.71 1.387-1.15 2.335-1.52.716-.278 1.79-.609 3.77-.7 1.873-.084 2.599-.11 6.383-.114v.005zm12.66 3.373a2.436 2.436 0 100 4.874 2.436 2.436 0 000-4.875zm-10.838 2.847c-5.759 0-10.427 4.67-10.427 10.43s4.668 10.427 10.427 10.427c5.758 0 10.425-4.667 10.425-10.427s-4.667-10.43-10.425-10.43zm0 3.66a6.769 6.769 0 016.767 6.77 6.77 6.77 0 11-6.768-6.77z" fill="#fff"/><defs><radialGradient id="hpaint0_radial_398_12067" cx="0" cy="0" r="1" gradientUnits="userSpaceOnUse" gradientTransform="matrix(0 -54.5091 50.6977 0 14.61 59.236)"><stop stop-color="#FD5"/><stop offset=".1" stop-color="#FD5"/><stop offset=".5" stop-color="#FF543E"/><stop offset="1" stop-color="#C837AB"/></radialGradient></defs></svg><svg fill="none" viewBox="0 0 69 69" id="icon_inst_color" xmlns="http://www.w3.org/2000/svg"><path d="M34.511 0C20.108 0 15.895.015 15.077.083c-2.956.246-4.796.711-6.8 1.709a13.772 13.772 0 00-3.963 2.903C2.124 6.967.798 9.764.318 13.088.084 14.7.016 15.03.002 23.273c-.005 2.747 0 6.363 0 11.213 0 14.396.016 18.606.085 19.423.24 2.877.69 4.687 1.645 6.667 1.826 3.79 5.312 6.635 9.42 7.697 1.422.366 2.993.568 5.01.663.854.037 9.562.064 18.276.064 8.713 0 17.427-.01 18.26-.053 2.335-.11 3.69-.292 5.19-.68a14.444 14.444 0 009.42-7.712c.936-1.932 1.41-3.812 1.626-6.538.046-.595.066-10.074.066-19.54 0-9.467-.021-18.928-.068-19.523-.218-2.77-.692-4.634-1.66-6.603-.793-1.612-1.674-2.816-2.953-4.047-2.281-2.18-5.073-3.508-8.4-3.988C54.309.083 53.987.014 45.74 0H34.511z" fill="url(#ipaint0_radial_398_10444)"/><path d="M34.511 0C20.108 0 15.895.015 15.077.083c-2.956.246-4.796.711-6.8 1.709a13.772 13.772 0 00-3.963 2.903C2.124 6.967.798 9.764.318 13.088.084 14.7.016 15.03.002 23.273c-.005 2.747 0 6.363 0 11.213 0 14.396.016 18.606.085 19.423.24 2.877.69 4.687 1.645 6.667 1.826 3.79 5.312 6.635 9.42 7.697 1.422.366 2.993.568 5.01.663.854.037 9.562.064 18.276.064 8.713 0 17.427-.01 18.26-.053 2.335-.11 3.69-.292 5.19-.68a14.444 14.444 0 009.42-7.712c.936-1.932 1.41-3.812 1.626-6.538.046-.595.066-10.074.066-19.54 0-9.467-.021-18.928-.068-19.523-.218-2.77-.692-4.634-1.66-6.603-.793-1.612-1.674-2.816-2.953-4.047-2.281-2.18-5.073-3.508-8.4-3.988C54.309.083 53.987.014 45.74 0H34.511z" fill="#F4EFEC"/><path d="M34.495 9.023c-6.918 0-7.786.03-10.503.154-2.712.124-4.563.554-6.182 1.184-1.675.65-3.097 1.521-4.512 2.938-1.417 1.416-2.288 2.838-2.94 4.513-.632 1.62-1.062 3.472-1.184 6.184-.12 2.718-.153 3.587-.153 10.506 0 6.92.031 7.786.154 10.503.125 2.713.554 4.564 1.184 6.184.65 1.676 1.521 3.098 2.938 4.514 1.415 1.417 2.836 2.29 4.51 2.94 1.62.63 3.472 1.06 6.184 1.184 2.717.124 3.584.154 10.502.154 6.918 0 7.783-.03 10.5-.154 2.712-.124 4.565-.553 6.186-1.183 1.675-.651 3.094-1.524 4.509-2.941 1.417-1.416 2.287-2.838 2.94-4.513.626-1.62 1.056-3.473 1.183-6.184.122-2.718.154-3.584.154-10.504s-.032-7.788-.154-10.506c-.127-2.712-.557-4.564-1.183-6.184-.653-1.675-1.523-3.097-2.94-4.513-1.417-1.417-2.834-2.288-4.51-2.938-1.624-.63-3.476-1.06-6.188-1.184-2.717-.124-3.582-.154-10.502-.154h.007zm-2.285 4.592h2.285c6.801 0 7.607.024 10.293.146 2.484.114 3.832.529 4.73.878 1.188.462 2.036 1.014 2.927 1.905.891.892 1.443 1.741 1.906 2.93.348.897.764 2.246.877 4.73.122 2.686.148 3.493.148 10.292 0 6.8-.026 7.607-.148 10.293-.114 2.484-.529 3.832-.877 4.73-.462 1.189-1.015 2.035-1.906 2.926-.892.892-1.738 1.444-2.928 1.906-.896.35-2.245.764-4.729.878-2.685.122-3.492.149-10.293.149-6.801 0-7.607-.027-10.293-.149-2.483-.115-3.831-.53-4.73-.879-1.188-.461-2.037-1.013-2.929-1.905-.891-.892-1.443-1.74-1.906-2.929-.349-.897-.764-2.245-.877-4.73-.122-2.685-.147-3.492-.147-10.296 0-6.804.025-7.607.147-10.292.113-2.485.528-3.833.877-4.731.462-1.19 1.015-2.038 1.906-2.93.892-.892 1.74-1.444 2.93-1.907.897-.35 2.246-.764 4.73-.878 2.35-.107 3.26-.138 8.007-.144v.007zm15.882 4.23a3.055 3.055 0 00-2.998 3.655 3.057 3.057 0 102.998-3.656v.001zm-13.597 3.573c-7.224 0-13.08 5.858-13.08 13.084s5.856 13.082 13.08 13.082 13.08-5.856 13.08-13.082c0-7.226-5.856-13.084-13.08-13.084zm0 4.591a8.492 8.492 0 018.49 8.493 8.492 8.492 0 11-16.981 0 8.492 8.492 0 018.491-8.493z" fill="#fff"/><path d="M34.511 0C20.108 0 15.895.015 15.077.083c-2.956.246-4.796.711-6.8 1.709a13.772 13.772 0 00-3.963 2.903C2.124 6.967.798 9.764.318 13.088.084 14.7.016 15.03.002 23.273c-.005 2.747 0 6.363 0 11.213 0 14.396.016 18.606.085 19.423.24 2.877.69 4.687 1.645 6.667 1.826 3.79 5.312 6.635 9.42 7.697 1.422.366 2.993.568 5.01.663.854.037 9.562.064 18.276.064 8.713 0 17.427-.01 18.26-.053 2.335-.11 3.69-.292 5.19-.68a14.444 14.444 0 009.42-7.712c.936-1.932 1.41-3.812 1.626-6.538.046-.595.066-10.074.066-19.54 0-9.467-.021-18.928-.068-19.523-.218-2.77-.692-4.634-1.66-6.603-.793-1.612-1.674-2.816-2.953-4.047-2.281-2.18-5.073-3.508-8.4-3.988C54.309.083 53.987.014 45.74 0H34.511z" fill="url(#ipaint1_radial_398_10444)"/><path d="M34.511 0C20.108 0 15.895.015 15.077.083c-2.956.246-4.796.711-6.8 1.709a13.772 13.772 0 00-3.963 2.903C2.124 6.967.798 9.764.318 13.088.084 14.7.016 15.03.002 23.273c-.005 2.747 0 6.363 0 11.213 0 14.396.016 18.606.085 19.423.24 2.877.69 4.687 1.645 6.667 1.826 3.79 5.312 6.635 9.42 7.697 1.422.366 2.993.568 5.01.663.854.037 9.562.064 18.276.064 8.713 0 17.427-.01 18.26-.053 2.335-.11 3.69-.292 5.19-.68a14.444 14.444 0 009.42-7.712c.936-1.932 1.41-3.812 1.626-6.538.046-.595.066-10.074.066-19.54 0-9.467-.021-18.928-.068-19.523-.218-2.77-.692-4.634-1.66-6.603-.793-1.612-1.674-2.816-2.953-4.047-2.281-2.18-5.073-3.508-8.4-3.988C54.309.083 53.987.014 45.74 0H34.511z" fill="url(#ipaint2_radial_398_10444)"/><path d="M34.495 9.023c-6.918 0-7.786.03-10.503.154-2.712.124-4.563.554-6.182 1.184-1.675.65-3.097 1.521-4.512 2.938-1.417 1.416-2.288 2.838-2.94 4.513-.632 1.62-1.062 3.472-1.184 6.184-.12 2.718-.153 3.587-.153 10.506 0 6.92.031 7.786.154 10.503.125 2.713.554 4.564 1.184 6.184.65 1.676 1.521 3.098 2.938 4.514 1.415 1.417 2.836 2.29 4.51 2.94 1.62.63 3.472 1.06 6.184 1.184 2.717.124 3.584.154 10.502.154 6.918 0 7.783-.03 10.5-.154 2.712-.124 4.565-.553 6.186-1.183 1.675-.651 3.094-1.524 4.509-2.941 1.417-1.416 2.287-2.838 2.94-4.513.626-1.62 1.056-3.473 1.183-6.184.122-2.718.154-3.584.154-10.504s-.032-7.788-.154-10.506c-.127-2.712-.557-4.564-1.183-6.184-.653-1.675-1.523-3.097-2.94-4.513-1.417-1.417-2.834-2.288-4.51-2.938-1.624-.63-3.476-1.06-6.188-1.184-2.717-.124-3.582-.154-10.502-.154h.007zm-2.285 4.592h2.285c6.801 0 7.607.024 10.293.146 2.484.114 3.832.529 4.73.878 1.188.462 2.036 1.014 2.927 1.905.891.892 1.443 1.741 1.906 2.93.348.897.764 2.246.877 4.73.122 2.686.148 3.493.148 10.292 0 6.8-.026 7.607-.148 10.293-.114 2.484-.529 3.832-.877 4.73-.462 1.189-1.015 2.035-1.906 2.926-.892.892-1.738 1.444-2.928 1.906-.896.35-2.245.764-4.729.878-2.685.122-3.492.149-10.293.149-6.801 0-7.607-.027-10.293-.149-2.483-.115-3.831-.53-4.73-.879-1.188-.461-2.037-1.013-2.929-1.905-.891-.892-1.443-1.74-1.906-2.929-.349-.897-.764-2.245-.877-4.73-.122-2.685-.147-3.492-.147-10.296 0-6.804.025-7.607.147-10.292.113-2.485.528-3.833.877-4.731.462-1.19 1.015-2.038 1.906-2.93.892-.892 1.74-1.444 2.93-1.907.897-.35 2.246-.764 4.73-.878 2.35-.107 3.26-.138 8.007-.144v.007zm15.882 4.23a3.055 3.055 0 00-2.998 3.655 3.057 3.057 0 102.998-3.656v.001zm-13.597 3.573c-7.224 0-13.08 5.858-13.08 13.084s5.856 13.082 13.08 13.082 13.08-5.856 13.08-13.082c0-7.226-5.856-13.084-13.08-13.084zm0 4.591a8.492 8.492 0 018.49 8.493 8.492 8.492 0 11-16.981 0 8.492 8.492 0 018.491-8.493z" fill="#fff"/><defs><radialGradient id="ipaint0_radial_398_10444" cx="0" cy="0" r="1" gradientUnits="userSpaceOnUse" gradientTransform="matrix(0 -68.3841 63.6026 0 18.328 74.314)"><stop stop-color="#FD5"/><stop offset=".1" stop-color="#FD5"/><stop offset=".5" stop-color="#FF543E"/><stop offset="1" stop-color="#C837AB"/></radialGradient><radialGradient id="ipaint1_radial_398_10444" cx="0" cy="0" r="1" gradientUnits="userSpaceOnUse" gradientTransform="matrix(0 -68.3841 63.6026 0 18.328 74.314)"><stop stop-color="#FD5"/><stop offset=".1" stop-color="#FD5"/><stop offset=".5" stop-color="#FF543E"/><stop offset="1" stop-color="#C837AB"/></radialGradient><radialGradient id="ipaint2_radial_398_10444" cx="0" cy="0" r="1" gradientUnits="userSpaceOnUse" gradientTransform="rotate(78.681 -8.811 -4.565) scale(30.568 126.002)"><stop stop-color="#3771C8"/><stop offset=".128" stop-color="#3771C8"/><stop offset="1" stop-color="#60F" stop-opacity="0"/></radialGradient></defs></svg><svg fill="none" viewBox="0 0 69 69" id="icon_link_color" xmlns="http://www.w3.org/2000/svg"><path d="M0 33.12C0 17.507 0 9.7 4.85 4.85 9.7 0 17.507 0 33.12 0h2.76C51.493 0 59.3 0 64.15 4.85 69 9.7 69 17.507 69 33.12v2.76c0 15.613 0 23.42-4.85 28.27C59.3 69 51.493 69 35.88 69h-2.76C17.507 69 9.7 69 4.85 64.15 0 59.3 0 51.493 0 35.88v-2.76z" fill="#B60C1A"/><path d="M35.714 44.487a1.437 1.437 0 010 2.032l-1.786 1.797a10.068 10.068 0 11-14.234-14.244l4.334-4.334a10.062 10.062 0 0113.801-.41 1.443 1.443 0 01-.325 2.374 1.44 1.44 0 01-1.587-.218 7.188 7.188 0 00-9.855.293l-4.334 4.329a7.19 7.19 0 0010.166 10.167l1.786-1.786a1.438 1.438 0 012.034 0zM48.307 19.69a10.077 10.077 0 00-14.235 0l-1.786 1.788a1.437 1.437 0 102.034 2.032l1.786-1.786A7.19 7.19 0 0146.273 31.89l-4.334 4.338a7.187 7.187 0 01-9.856.288 1.441 1.441 0 00-1.912 2.156 10.062 10.062 0 0013.802-.406l4.334-4.334a10.077 10.077 0 000-14.239v-.003z" fill="#fff"/></svg><svg fill="none" viewBox="0 0 264 264" id="icon_palms" xmlns="http://www.w3.org/2000/svg"><g clip-path="url(#kclip0_801_4921)" fill="currentColor"><path d="M114.134 2.933c-1.067 1.734-2.267 6.8-2.8 11.334l-.934 8.266 4.267-2c2.267-1.2 5.867-1.866 8.133-1.6l3.867.667v-7.733c0-5.2-.667-8.4-2.133-9.734-3.067-3.066-8.134-2.666-10.4.8zM139.467 2.133c-1.466 1.334-2.133 4.534-2.133 9.734V19.6l3.867-.667c2.266-.266 5.866.4 8.133 1.467l4.133 2.133-.933-8.266c-.4-4.534-1.733-9.6-2.667-11.334-2.266-3.466-7.333-3.866-10.4-.8zM117.067 30.267C112.4 35.6 108 53.733 105.867 75.333c-1.867 20.4-2.267 21.867-7.734 34-7.6 16.4-8.8 22.134-8.8 39.734 0 30.133-8.933 49.333-31.2 66.533-5.066 3.867-5.2 4.133-3.733 8.4 4.267 12.133 19.733 23.067 35.067 24.8 6.933.8 8.133.533 13.333-3.067 3.2-2.133 8.667-5.466 12-7.466 11.867-6.8 11.2-.267 11.6-110.134.267-70.8-.133-96.933-1.2-98.266-2.133-2.534-5.733-2.267-8.133.4zM139.734 29.467c-2.267 1.2-2.4 7.333-2.4 96.933V222l3.067 6.667c2.666 5.466 4.533 7.333 10.4 10.533 4 2.133 9.2 5.467 11.6 7.2 3.866 2.933 5.2 3.2 12 2.4 15.466-1.733 30.933-12.667 35.2-24.933 1.466-4.267 1.333-4.534-3.734-8.4-22.4-17.334-31.2-36.134-31.2-66.667-.133-18.267-1.2-23.467-8.666-39.467-5.734-12.266-6-13.466-7.867-34-1.6-16.666-2.933-24-6.133-33.2-4.667-14-6.667-16-12.267-12.666z"/><path d="M32 217.867c-11.332 4.8-29.866 14.266-30.932 16-1.734 2.533-1.2 26.8.533 28.533 1.2 1.2 13.2 1.6 46 1.6 41.6 0 44.4-.133 45.6-2.4 1.2-2.267.4-2.667-7.467-4.133-12-2.134-21.733-7.067-29.2-14.534-6.4-6.4-11.867-16.133-13.333-24-.934-5.066-1.6-5.066-11.2-1.066zM220.667 219.467c-2.4 12.933-13.467 26.8-26.4 33.066-3.867 1.867-11.067 4.267-16.133 5.067-8.8 1.6-9.2 1.867-6.934 4 2.134 2.133 6.134 2.4 46 2.4 32.134 0 44-.4 45.2-1.6 1.734-1.733 2.267-26 .534-28.667-1.2-1.866-32.4-17.066-37.734-18.4-3.2-.8-3.6-.4-4.533 4.134z"/></g><defs><clipPath id="kclip0_801_4921"><path fill="#fff" d="M0 0h264v264H0z"/></clipPath></defs></svg><svg fill="none" viewBox="0 0 264 264" id="icon_person" xmlns="http://www.w3.org/2000/svg"><path d="M113.334 2.533c-14.133 4.4-26.133 13.867-33.2 25.734l-3.067 5.066H64.801c-13.733 0-17.067 1.467-17.067 7.067 0 6.267 2.267 7.6 13.6 7.6h10.267l.8 11.6c.8 11.6.666 11.867-3.2 16.4-12.533 14.8-19.067 29.6-21.2 47.6-.667 6.533-1.334 34.8-1.334 63.067v51.2l-5.333 7.6c-5.867 8.266-6.667 12.933-2.933 16.266 2.266 2.134 10.533 2.267 91.066 2.267 48.667 0 89.2-.533 90-1.067 5.334-3.6 4.667-8.8-2.8-18.933l-4.533-6.133-.4-60.534c-.533-53.466-.8-61.466-2.933-68-3.2-10-10.667-23.333-17.467-31.333l-5.6-6.667.667-11.733.666-11.6h12.667c9.867 0 13.2.533 15.067 2.133 2.933 2.667 8.4 2.8 11.2.534 2.8-2.4 2.8-16.4-.134-19.2-2.666-2.667-7.733-2.8-10.4-.134-1.466 1.6-5.466 2-17.866 2h-16l-3.334-5.733C165.601 6.133 136.801-5.067 113.334 2.533zm20.667 97.734c2.266 3.733 8 10.8 12.8 15.733 10.4 10.4 26.666 19.2 40 21.6 4.666.8 8.666 1.733 8.933 1.867 1.067.666-3.867 16.933-7.067 23.066-4.8 9.6-17.866 22.934-27.066 27.867-25.6 13.6-55.734 10-76.8-9.067C73.734 171.067 65.2 156 63.734 143.467c-.4-3.734-.133-3.867 8.267-5.6 20-4.134 42.533-19.867 52-36.267 2.533-4.533 4.933-8.133 5.333-8.267.4 0 2.533 3.2 4.667 6.934zM152.534 217.2l4 1.6-13.333 13.333-13.2 13.2-13.2-13.333c-7.334-7.2-13.067-13.6-12.534-14 3.2-3.333 40.667-3.867 48.267-.8z" fill="currentColor"/></svg><svg fill="none" viewBox="0 0 264 264" id="icon_register" xmlns="http://www.w3.org/2000/svg"><g clip-path="url(#mclip0_801_4914)" fill="currentColor"><path d="M13.334 2.533c-2.533 1.334-6.4 4.667-8.667 7.334l-4 5.066-.4 115.467C.001 241.067.134 246.133 2.401 250.667c1.466 2.533 4.8 6.4 7.466 8.666l5.067 4 82.8.4c91.467.4 90.533.534 97.467-7.866 5.466-6.4 6.266-12.267 5.866-43.067l-.4-28.8-7.6 6.533c-6.266 5.334-10.266 7.467-22 11.334-8 2.666-16.8 4.8-19.733 4.8-9.733 0-18-8.267-18-18 0-2.934 2.133-11.867 4.8-20l4.8-14.667 29.2-29.333 29.2-29.467V61.333h-29.2c-28.8 0-29.333 0-31.333-2.933-1.734-2.533-2.134-7.733-2.134-30.667V0h-60.4C22.134 0 17.602.133 13.334 2.533zM152.001 80c3.6 3.6 3.333 7.333-.8 10.533-3.467 2.667-4.934 2.8-58.8 2.8H37.2L34 90c-4-3.867-4.133-6.533-.667-10 2.533-2.533 4.4-2.667 59.334-2.667 54.933 0 56.799.134 59.333 2.667zm-31.334 31.333c4 3.867 4.134 4.667.534 9.2L118.534 124H77.201c-39.467 0-41.333-.133-43.867-2.667-1.467-1.466-2.667-3.866-2.667-5.333s1.2-3.867 2.667-5.333c2.533-2.534 4.4-2.667 43.334-2.667h40.799l3.2 3.333zm.134 30.667c2.4 2.533 3.066 4.133 2.533 6.4-1.867 6.133-2.8 6.267-46.267 6.267-39.333 0-41.2-.134-43.733-2.667-3.467-3.467-3.333-6.133.667-10l3.2-3.333h80.266l3.334 3.333zm1.333 31.867c1.733 2.933 1.867 3.866.267 7.066l-1.734 3.734H34.134l-2-3.467c-1.733-3.2-1.733-3.867.267-7.067l2.266-3.466h85.334l2.133 3.2zm29.067 44.933c4.133 3.2 4.4 6.933.8 10.533-2.534 2.534-4.4 2.667-28.4 2.667-19.334 0-26.4-.4-28.133-1.733-3.467-2.534-3.2-8.934.533-11.867 2.666-2.133 5.733-2.4 27.333-2.4 22.533 0 24.533.133 27.867 2.8z"/><path d="M154.668 23.2v23.467l23.067-.267 22.933-.4-.533-4c-.667-6.4-3.6-10.8-14.534-22.267C173.601 7.2 165.735 1.467 159.335.4l-4.667-.8v23.6zM242 77.867c-2.133 1.066-6.667 4.666-10 8L226 92l11.067 10.933L248 114l6.133-6c10-9.867 12.134-16.4 7.6-24.133-2.4-4-9.066-7.867-13.333-7.867-1.333.133-4.133.933-6.4 1.867zM190.001 128c-13.866 13.867-24.933 25.6-24.666 25.867 3.6 4.133 20.666 20.8 21.2 20.8.533 0 12.133-11.2 25.866-25.067l24.934-24.933-11.067-11.067-10.933-10.933L190.001 128zM151.601 177.6c-3.067 9.333-3.334 11.333-1.734 12.8 1.6 1.6 3.467 1.333 12.267-1.733 5.867-2 10.667-3.734 10.8-3.867.133-.133-3.733-4.267-8.667-9.2l-9.066-8.933-3.6 10.933z"/></g><defs><clipPath id="mclip0_801_4914"><path fill="#fff" d="M0 0h264v264H0z"/></clipPath></defs></svg><svg fill="none" viewBox="0 0 30 30" id="icon_share" xmlns="http://www.w3.org/2000/svg"><path d="M6.875 12.188v13.125c0 .172.14.312.313.312h15.625a.313.313 0 00.312-.312V12.188a.313.313 0 00-.313-.313h-3.125a.938.938 0 010-1.875h3.125C24.02 10 25 10.98 25 12.188v13.125a2.188 2.188 0 01-2.188 2.187H7.188A2.187 2.187 0 015 25.313V12.188C5 10.98 5.98 10 7.188 10h3.125a.937.937 0 110 1.875H7.187a.312.312 0 00-.312.313zm8.787-10.663l4.063 4.063a.936.936 0 01-.903 1.585.936.936 0 01-.422-.26L15.938 4.45v13.363a.938.938 0 01-1.876 0V4.45L11.6 6.913a.939.939 0 01-1.325-1.325l4.063-4.063a.938.938 0 011.325 0z" fill="currentColor"/></svg><svg fill="none" viewBox="0 0 34 33" id="icon_star" xmlns="http://www.w3.org/2000/svg"><path d="M17 .5l3.929 12.092h12.715l-10.287 7.474 3.93 12.092L17 24.684 6.714 32.158l3.929-12.092L.357 12.592H13.07L17 .5z" fill="currentColor"/></svg><svg fill="none" viewBox="0 0 69 69" id="icon_swiper_next" xmlns="http://www.w3.org/2000/svg"><path d="M28 15l20 20-20 20" stroke="currentColor" stroke-width="2"/></svg><svg fill="none" viewBox="0 0 69 69" id="icon_swiper_prev" xmlns="http://www.w3.org/2000/svg"><path d="M41 15L21 35l20 20" stroke="currentColor" stroke-width="2"/></svg><svg fill="none" viewBox="0 0 69 69" id="icon_tg_color" xmlns="http://www.w3.org/2000/svg"><path d="M0 33.12C0 17.507 0 9.7 4.85 4.85 9.7 0 17.507 0 33.12 0h2.76C51.493 0 59.3 0 64.15 4.85 69 9.7 69 17.507 69 33.12v2.76c0 15.613 0 23.42-4.85 28.27C59.3 69 51.493 69 35.88 69h-2.76C17.507 69 9.7 69 4.85 64.15 0 59.3 0 51.493 0 35.88v-2.76z" fill="url(#rpaint0_linear_398_10430)"/><path d="M34.5 58C47.479 58 58 47.479 58 34.5S47.479 11 34.5 11 11 21.521 11 34.5 21.521 58 34.5 58z" fill="#fff"/><path d="M34.5 55.707c11.713 0 21.208-9.495 21.208-21.207 0-11.712-9.495-21.207-21.208-21.207-11.712 0-21.207 9.495-21.207 21.207 0 11.712 9.495 21.207 21.207 21.207z" fill="url(#rpaint1_linear_398_10430)"/><path d="M20.781 34.296l15.825-6.52c1.562-.68 6.86-2.853 6.86-2.853s2.445-.95 2.241 1.359c-.068.95-.61 4.278-1.154 7.878l-1.698 10.664s-.136 1.562-1.29 1.833c-1.155.272-3.057-.95-3.397-1.222-.271-.204-5.093-3.26-6.86-4.755-.475-.407-1.018-1.222.069-2.173 2.445-2.241 5.365-5.026 7.131-6.792.815-.815 1.63-2.717-1.766-.407l-9.576 6.452s-1.087.68-3.125.068c-2.037-.611-4.415-1.427-4.415-1.427s-1.63-1.018 1.155-2.105z" fill="#fff"/><defs><linearGradient id="rpaint0_linear_398_10430" x1="46.003" y1="11.503" x2="28.753" y2="51.75" gradientUnits="userSpaceOnUse"><stop stop-color="#37AEE2"/><stop offset="1" stop-color="#1E96C8"/></linearGradient><linearGradient id="rpaint1_linear_398_10430" x1="41.571" y1="20.363" x2="30.967" y2="45.104" gradientUnits="userSpaceOnUse"><stop stop-color="#37AEE2"/><stop offset="1" stop-color="#1E96C8"/></linearGradient></defs></svg><svg fill="none" viewBox="0 0 55 55" id="icon_vk" xmlns="http://www.w3.org/2000/svg"><mask id="sa" width="55" height="55" x="0" y="0" maskUnits="userSpaceOnUse" style="mask-type:luminance"><path fill="#fff" d="M54.73 0H.27v55h54.46V0z"/></mask><g mask="url(#sa)"><path fill="currentColor" d="M.27 26.4c0-12.45 0-18.67 3.83-22.53C7.93 0 14.09 0 26.4 0h2.18c12.32 0 18.48 0 22.3 3.87 3.84 3.86 3.84 10.08 3.84 22.53v2.2c0 12.45 0 18.67-3.83 22.53C47.07 55 40.9 55 28.59 55H26.4c-12.31 0-18.47 0-22.3-3.87C.27 47.27.27 41.05.27 28.6v-2.2z"/><path fill="#fff" d="M29.25 39.62c-12.41 0-19.5-8.6-19.79-22.9h6.22c.2 10.5 4.79 14.95 8.42 15.87V16.73h5.85v9.05c3.58-.39 7.35-4.51 8.62-9.05h5.86c-.98 5.6-5.06 9.72-7.97 11.41a18.04 18.04 0 019.33 11.48h-6.45c-1.38-4.35-4.83-7.72-9.39-8.18v8.18h-.7z"/></g></svg><svg fill="none" viewBox="0 0 55 55" id="icon_vk-grey" xmlns="http://www.w3.org/2000/svg"><g clip-path="url(#tclip0_398_12093)"><mask id="ta" style="mask-type:luminance" maskUnits="userSpaceOnUse" x="0" y="0" width="55" height="55"><path d="M54.727 0H.27v55h54.456V0z" fill="#fff"/></mask><g mask="url(#ta)"><path d="M.271 26.4c0-12.445 0-18.668 3.828-22.534C7.927 0 14.09 0 26.41 0h2.178C40.91 0 47.071 0 50.9 3.866c3.828 3.866 3.828 10.089 3.828 22.534v2.2c0 12.445 0 18.668-3.828 22.534C47.071 55 40.91 55 28.589 55H26.41C14.088 55 7.927 55 4.1 51.134.27 47.268.27 41.045.27 28.6v-2.2z" fill="#454545"/><path d="M29.246 39.623c-12.41 0-19.49-8.593-19.785-22.893h6.217c.204 10.495 4.787 14.941 8.418 15.858V16.73h5.854v9.052c3.585-.39 7.35-4.515 8.622-9.052h5.854c-.976 5.591-5.06 9.716-7.964 11.412 2.904 1.375 7.555 4.973 9.325 11.481h-6.444c-1.384-4.354-4.832-7.723-9.393-8.181v8.181h-.704z" fill="#fff"/></g></g><defs><clipPath id="tclip0_398_12093"><path fill="#fff" d="M0 0h55v55H0z"/></clipPath></defs></svg><svg fill="none" viewBox="0 0 69 69" id="icon_vk_color" xmlns="http://www.w3.org/2000/svg"><path d="M0 33.12C0 17.507 0 9.7 4.85 4.85 9.7 0 17.507 0 33.12 0h2.76C51.493 0 59.3 0 64.15 4.85 69 9.7 69 17.507 69 33.12v2.76c0 15.613 0 23.42-4.85 28.27C59.3 69 51.493 69 35.88 69h-2.76C17.507 69 9.7 69 4.85 64.15 0 59.3 0 51.493 0 35.88v-2.76z" fill="#07F"/><path d="M36.714 49.711c-15.726 0-24.696-10.78-25.07-28.72h7.878c.259 13.167 6.066 18.744 10.666 19.894V20.99h7.418v11.356c4.542-.488 9.314-5.663 10.924-11.356h7.418c-1.236 7.015-6.411 12.19-10.091 14.318 3.68 1.725 9.574 6.238 11.816 14.403h-8.165c-1.754-5.462-6.123-9.688-11.902-10.263V49.71h-.892z" fill="#fff"/></svg><svg fill="none" viewBox="0 0 70 69" id="icon_wa_color" xmlns="http://www.w3.org/2000/svg"><path d="M.5 33.12C.5 17.507.5 9.7 5.35 4.85 10.2 0 18.007 0 33.62 0h2.76C51.993 0 59.8 0 64.65 4.85 69.5 9.7 69.5 17.507 69.5 33.12v2.76c0 15.613 0 23.42-4.85 28.27C59.8 69 51.993 69 36.38 69h-2.76c-15.613 0-23.42 0-28.27-4.85C.5 59.3.5 51.493.5 35.88v-2.76z" fill="#07F"/><path d="M.5 33.12C.5 17.507.5 9.7 5.35 4.85 10.2 0 18.007 0 33.62 0h2.76C51.993 0 59.8 0 64.65 4.85 69.5 9.7 69.5 17.507 69.5 33.12v2.76c0 15.613 0 23.42-4.85 28.27C59.8 69 51.993 69 36.38 69h-2.76c-15.613 0-23.42 0-28.27-4.85C.5 59.3.5 51.493.5 35.88v-2.76z" fill="url(#vpaint0_linear_398_10422)"/><path d="M15.895 33.887a20.122 20.122 0 002.692 10.078l-2.86 10.446 10.69-2.803a20.16 20.16 0 009.635 2.453h.01c11.112 0 20.159-9.043 20.163-20.158a20.032 20.032 0 00-5.9-14.261A20.037 20.037 0 0036.06 13.73c-11.114 0-20.16 9.042-20.165 20.157z" fill="url(#vpaint1_linear_398_10422)"/><path d="M15.175 33.88c-.001 3.68.96 7.273 2.788 10.44L15 55.14l11.073-2.903a20.872 20.872 0 009.982 2.542h.009c11.512 0 20.883-9.369 20.888-20.882a20.755 20.755 0 00-6.112-14.773A20.759 20.759 0 0036.064 13C24.55 13 15.18 22.367 15.175 33.88zm6.595 9.895l-.414-.657a17.308 17.308 0 01-2.654-9.236c.004-9.57 7.792-17.355 17.369-17.355a17.248 17.248 0 0112.274 5.09 17.25 17.25 0 015.08 12.279c-.004 9.57-7.792 17.356-17.361 17.356h-.007a17.34 17.34 0 01-8.836-2.42l-.635-.376-6.57 1.723 1.754-6.404z" fill="url(#vpaint2_linear_398_10422)"/><path fill-rule="evenodd" clip-rule="evenodd" d="M30.843 25.15c-.392-.869-.803-.886-1.175-.901-.304-.013-.652-.012-1-.012s-.914.13-1.392.652c-.478.523-1.827 1.785-1.827 4.353 0 2.568 1.87 5.05 2.131 5.398.261.348 3.611 5.786 8.916 7.878 4.409 1.739 5.306 1.393 6.263 1.306.957-.087 3.088-1.263 3.523-2.481.435-1.219.435-2.263.304-2.482-.13-.217-.478-.348-1-.609-.522-.26-3.088-1.524-3.566-1.698-.479-.174-.827-.26-1.175.262-.348.522-1.347 1.697-1.652 2.045-.304.35-.609.393-1.131.132-.522-.262-2.203-.813-4.197-2.59-1.552-1.384-2.6-3.092-2.904-3.615-.304-.522-.032-.805.23-1.065.234-.234.522-.61.783-.914.26-.305.347-.522.521-.87.174-.349.087-.654-.043-.914-.131-.261-1.145-2.843-1.61-3.874z" fill="#fff"/><defs><linearGradient id="vpaint0_linear_398_10422" x1="35" y1="0" x2="35" y2="69" gradientUnits="userSpaceOnUse"><stop stop-color="#20B038"/><stop offset="1" stop-color="#60D66A"/></linearGradient><linearGradient id="vpaint1_linear_398_10422" x1="35.976" y1="54.411" x2="35.976" y2="13.729" gradientUnits="userSpaceOnUse"><stop stop-color="#20B038"/><stop offset="1" stop-color="#60D66A"/></linearGradient><linearGradient id="vpaint2_linear_398_10422" x1="35.976" y1="55.14" x2="35.976" y2="13" gradientUnits="userSpaceOnUse"><stop stop-color="#F9F9F9"/><stop offset="1" stop-color="#fff"/></linearGradient></defs></svg><svg fill="none" viewBox="0 0 172 56" id="logo" xmlns="http://www.w3.org/2000/svg"><g clip-path="url(#wclip0_719_1517)"><path d="M28.223 56.002c15.587 0 28.222-12.537 28.222-28.001C56.445 12.536 43.81 0 28.223 0 12.636 0 0 12.537 0 28c0 15.465 12.636 28.002 28.223 28.002z" fill="#fff"/><path d="M13.133 19.52v.997h.669v-.997h-.67zm0 0v.997h.669v-.997h-.67zM28.223 0C12.636 0 0 12.537 0 28c0 2.284.275 4.502.795 6.626 1.7-.434 3.878-.694 6.326-.302 0 0-.82-.885-2.515-1.026 0 0 1.385-4.131 5.479-5.79 1.383-.56 3.076-.838 5.13-.578 0 0-.421-.429-1.209-.793a5.326 5.326 0 00-1.037-.356s1.324-3.188 4.254-4.668a6.538 6.538 0 011.142-.456c.931-.276 1.988-.373 3.18-.183 0 0-.839-1.026-2.157-1.221 0 0 .038-.364.202-.933a8.902 8.902 0 014.606-5.514s.617-3.563 3.732-3.563 3.733 3.563 3.733 3.563a8.894 8.894 0 014.575 5.411c.189.628.233 1.036.233 1.036-1.319.195-2.158 1.22-2.158 1.22 1.449-.23 2.699-.037 3.763.387.073.029.144.06.214.09.281.123.547.261.801.413 2.612 1.56 3.801 4.418 3.801 4.418a5.292 5.292 0 00-.848.273c-.906.377-1.397.876-1.397.876 2.228-.28 4.032.07 5.479.728.118.055.235.11.35.168.036.02.074.038.11.06 3.47 1.83 4.67 5.412 4.67 5.412-1.692.143-2.514 1.026-2.514 1.026 2.717-.436 5.1-.068 6.87.45.545-2.17.831-4.437.831-6.773C56.444 12.537 43.807 0 28.223 0zm-16.3 18.898v2.562h-.73v-.323h-.571v.546h-.73v-2.785h2.031zm-.806-.324v-.622h2.285v.622h-2.285zm3.413 2.887h-.73v-.322h-.669v1.19h-.728v-3.431h2.127v2.564zm.5-2.667c-.926-.39-2.029-1.032-2.719-1.824-.21.214-.441.411-.676.591a12.48 12.48 0 01-2.366 1.396l-.2-.372a12.981 12.981 0 001.667-1.259c.371-.337.723-.696 1-1.11.086-.132.16-.265.216-.395l.902.472c-.06.095-.12.184-.184.267.163.142.339.268.52.381.396.249.828.446 1.267.613.289.108.587.206.887.278l-.313.962zm.312-7.624h-2.515c.235.258.478.508.724.752.486.474 1.008.937 1.57 1.307l-.62.775c-.546-.512-1.003-1.077-1.435-1.672-.122-.17-.243-.341-.36-.514v3.106h-1V11.83c-.104.15-.207.3-.314.448-.434.595-.889 1.16-1.435 1.672l-.62-.775c.83-.558 1.562-1.267 2.242-2.006H9.07v-.947h2.636V8.84h1.002v1.384h2.635v.947zM13.8 19.52h-.669v.997h.669v-.997zm-2.607 0h-.571v.997h.571v-.997z" fill="url(#wpaint0_linear_719_1517)"/><path d="M47.266 36.87c-3.456 0-7.964-2.184-10.5-3.627v-.999h-1.12v-2.601h6.67v-1.075c.807.022 2.389-.063 3.807-.912a5.312 5.312 0 002.007-2.141c.034-.068.068-.135.1-.205-.009.008-.081.063-.22.143-.479.276-1.74.86-3.888.86a9.448 9.448 0 01-2.083-.261c-2.324-.527-4.808-1.752-6.396-2.651v-.878h-.32v-1.536h2.75v-.908c.188-.055 1.233-.408 1.93-1.636.17-.302.322-.654.433-1.068 0 0-.474.345-1.3.62a6.562 6.562 0 01-2.072.334c-.25 0-.527-.038-.827-.112-1.925-.464-4.747-2.319-7.155-4.118.206-.213.332-.5.332-.82 0-.61-.464-1.11-1.062-1.175a.558.558 0 00.222-.457c0-.404-.354-1.953-.354-1.953s-.354 1.55-.354 1.953c0 .237.123.38.222.457a1.187 1.187 0 00-1.062 1.176c0 .318.126.607.332.819-2.677 2-5.87 4.069-7.768 4.22a2.1 2.1 0 01-.216.01c-1 0-1.823-.224-2.406-.455-.618-.245-.965-.497-.965-.497.08.296.18.561.29.798.688 1.449 1.871 1.849 2.07 1.908v.908h2.752v1.536h-.321v.878c-1.678.95-4.358 2.264-6.79 2.734a8.873 8.873 0 01-1.688.178c-2.773 0-4.069-.973-4.109-1.003a5.343 5.343 0 001.875 2.198c1.477.987 3.193 1.084 4.044 1.06v1.075h6.67v2.6h-1.12v1c-2.534 1.443-7.044 3.627-10.498 3.627-3.455 0-5.04-1.232-5.04-1.232 2.175 4.584 7.532 3.999 7.895 3.953v.99h1.409v6.28h9.207V43.29h11.146v3.575h9.207v-6.28h1.407v-.99c.363.046 5.72.63 7.894-3.953 0-.004-1.584 1.228-5.037 1.228zm-27.44 5.347h-4.385v-1.634h4.386v1.634zm11.95-21.23h1.868v1.536h-1.867v-1.536zm1.868 8.658v2.601h-1.548v-2.601h1.548zm-7.725-8.658h4.604v1.536h-1.628v-.94h-1.348v.94H25.92v-1.536zm-3.12 0h1.867v1.536h-1.868v-1.536zm0 8.658h1.547v2.601h-1.548v-2.601zm4.422 12.572h-4.574v-1.634h4.574v1.634zm.326-11.105v1.132H25.92v-2.601h4.604v2.601h-1.628v-1.132h-1.348zm6.248 11.105H29.22v-1.634h4.574v1.634zm7.206 0h-4.386v-1.634h4.386v1.634zM10.857 46.874v2.522h-.843c.069.059.135.114.204.17.054.044.105.088.159.131l.07.057c.06.047.117.095.176.14.018.016.035.029.052.042.055.044.113.09.17.133.073.057.145.114.22.169l.27.203.246.18a28.232 28.232 0 0015.91 5.373l.347.008h.021c.119.002.24.002.36.002s.238 0 .359-.002h.02a28.222 28.222 0 0016.257-5.381c.083-.061.166-.122.248-.18.09-.069.181-.135.27-.203a9.6 9.6 0 00.219-.17c.057-.043.115-.088.17-.132.017-.013.035-.026.05-.04l.204-.163c.071-.055.138-.112.209-.168.068-.055.137-.114.206-.171v-2.516H10.856v-.004zm5.234 2.52h-3.234v-.973h3.234v.973zm14.172 0H27.03v-.973h3.233v.973zm14.17 0h-3.23v-.973h3.23v.973z" fill="#1E1E1C"/><path d="M149.378 1.376c-.541-.493-1.254-.883-2.12-1.16-.917-.292-1.892-.288-2.897.013-.774.233-2.74.539-5.848.907-3.117.37-5.227.546-6.272.523-1.038-.023-1.796-.074-2.257-.152-.606-.104-1.036-.13-1.355-.085-.701.104-1.131.71-1.022 1.443.07.485.395.96 1.053 1.532.542.474 1.003.79 1.41.969a2.216 2.216 0 001.686.04c.135-.05.722-.215 3.216-.672.474-.087.999-.16 1.563-.22.033.105.065.218.103.343.262.882.379 2.628.35 5.192a632.84 632.84 0 00-.046 7.025c0 1.93-.124 3.403-.369 4.38-.328 1.314-.313 2.226.054 2.868.248.438.583.96.99 1.548.361.521.787.787 1.261.787.036 0 .075-.002.111-.006.526-.046.94-.396 1.235-1.04.338-.742.529-1.442.567-2.081.035-.582-.029-1.616-.187-3.163-.149-1.44-.182-4.507-.098-9.116.218-2.882.411-4.877.578-5.933.057-.362.108-.68.154-.957.235.005.49.011.772.022 2.875.103 4.69.219 5.399.344.986.174 1.749.094 2.33-.247.46-.267.734-.586.835-.974a1.239 1.239 0 00-.143-.956c-.195-.32-.53-.694-1.053-1.174zM85.577 23.206c.393-.13.605-.237.605-.436 0-.319-.428-.457-1.072-.57a84.558 84.558 0 01-2.165-.401 28.521 28.521 0 01-2.605-.647c-.877-.26-1.626-.623-2.228-1.08-.684-.535-1.29-.99-1.802-1.352-.5-.355-.971-.707-1.395-1.047-.425-.34-.847-.7-1.254-1.075a19.569 19.569 0 01-1.24-1.263c.474-.521.934-1.005 1.372-1.439l1.498-1.486a44.642 44.642 0 001.646-1.728 38.34 38.34 0 001.895-2.284 24.422 24.422 0 001.7-2.342c.517-.813.78-1.651.78-2.491 0-.258-.028-.524-.083-.785a2.671 2.671 0 00-.317-.799 3.21 3.21 0 00-.983-1.088c-.418-.292-.82-.438-1.192-.438a.987.987 0 00-.719.29c-.195.194-.292.495-.292.899 0 .737-.153 1.555-.457 2.429a20.325 20.325 0 01-1.171 2.7 27.04 27.04 0 01-1.56 2.63 35.937 35.937 0 01-1.624 2.233c-.51.641-.975 1.16-1.382 1.544-.38.358-.562.462-.634.492a24.67 24.67 0 01-.858-.843 8.008 8.008 0 01-.94-1.178l-.092-5.887c0-.44.034-.821.105-1.134.072-.326.145-.614.216-.855.069-.231.135-.455.202-.662.07-.22.094-.441.071-.656-.029-.261-.289-.512-.812-.788-.459-.241-.967-.46-1.51-.647a11.506 11.506 0 00-1.537-.425c-.598-.117-.89-.087-1.008.108l-.008.014c-.088.174-.073.47.048.957.107.434.242.977.407 1.614.164.644.326 1.4.481 2.248.153.842.241 1.745.262 2.68.021 1.24.042 2.417.063 3.532.021 1.126.03 2.25.03 3.343v1.827c0 .611-.02 1.242-.062 1.883-.02.508-.086.882-.2 1.115-.104.216-.24.368-.408.45-.178.089-.401.134-.66.134h-.966c-.159 0-.325-.01-.494-.03a1.08 1.08 0 00-.51.04c-.14.041-.227.115-.262.22-.02.066-.026.168.062.288.132.278.357.618.67 1.01.316.397.65.781.996 1.144.346.364.669.688.96.967.391.375.542.485.62.532.092.065.213.095.377.095.07 0 .147-.006.233-.017.256-.034.531-.136.818-.305.283-.167.572-.421.858-.755.289-.337.535-.79.732-1.346.092-.25.151-.75.184-1.532.03-.753.047-1.636.047-2.626v-2.956a113.746 113.746 0 002.49 3.218 49.141 49.141 0 001.797 2.116 40.89 40.89 0 001.814 1.898 14.185 14.185 0 001.656 1.414c.545.389 1.013.588 1.422.61.245.021.604.006 1.101-.047a31.674 31.674 0 001.603-.218 42.183 42.183 0 001.79-.326 82.118 82.118 0 001.658-.356c.5-.118.917-.23 1.233-.334zM103.818 1.285a5.554 5.554 0 00-1.41-.595 5.17 5.17 0 00-1.252-.176c-.354 0-.65.04-.879.12-.273.094-.442.248-.5.458l-.007.02c-.024.147-.019.316.018.503.032.173.076.353.13.531.051.173.097.341.137.503.04.157.069.295.09.411.011.135 0 .472-.124 1.308-.103.692-.295 1.523-.572 2.467a26.491 26.491 0 01-1.131 3.076 17.842 17.842 0 01-1.628 2.948 17.19 17.19 0 01-.757-.776c-.346-.373-.71-.77-1.076-1.175a30.94 30.94 0 01-1.009-1.17 12.452 12.452 0 01-.705-.93 20.165 20.165 0 01-1.516-2.7 27.972 27.972 0 01-.946-2.307 21.018 21.018 0 01-.525-1.672c-.163-.626-.264-.808-.333-.893-.31-.402-.657-.605-1.034-.605-.277 0-.535.099-.77.294-.214.178-.41.413-.588.698a3.61 3.61 0 00-.413.982 4.422 4.422 0 00-.147 1.136c0 .775.298 1.683.885 2.702.575.995 1.295 2.03 2.14 3.077a46.246 46.246 0 002.729 3.08c.929.96 1.783 1.821 2.545 2.559a11.111 11.111 0 01-1.114 1.945 18.467 18.467 0 01-1.853 2.222c-.72.745-1.535 1.49-2.418 2.215a30.15 30.15 0 01-2.825 2.048c-.305.203-.462.388-.493.584-.034.222.07.405.287.506.117.053.26.08.43.08.078 0 .164-.006.256-.018.268-.032.558-.115.874-.25 2.213-1.035 4.192-2.307 5.886-3.779a27.117 27.117 0 004.45-4.947 33.914 33.914 0 003.267-5.873 52.097 52.097 0 002.331-6.582c.042-.102.097-.231.164-.386a1.49 1.49 0 00.126-.607c.004-.421-.24-.77-.72-1.032zM106.616 2.817c.344.285.612.702.797 1.244a9.92 9.92 0 01.428 1.883c.092.694.155 1.422.186 2.165.03.74.057 1.453.078 2.126.021.35.03.775.03 1.259v1.642c0 .728-.005 1.515-.015 2.336a54.977 54.977 0 01-.078 2.345c-.042.749-.1 1.454-.17 2.095-.073.64-.159 1.157-.26 1.532-.149.531-.226 1.007-.226 1.416 0 .573.109.971.333 1.218.201.222.388.385.573.5l.017.01c.096.047.226.093.398.138.172.046.363.069.567.069.255 0 .511-.052.763-.154.243-.099.445-.27.606-.51.313-.04.661-.095 1.039-.16.417-.072.83-.151 1.225-.233.396-.081.767-.159 1.109-.233.342-.072.617-.129.816-.169.957-.144 1.739-.263 2.343-.356.59-.091 1.082-.16 1.458-.201.367-.04.659-.06.868-.06.208 0 .416.009.617.03a6.5 6.5 0 011.074.225c.325.097.529.232.611.41.209.413.515.709.91.883.378.165.751.249 1.112.249.476 0 .809-.1 1.009-.3.27-.244.497-.588.675-1.016.172-.415.306-.887.401-1.403a15.51 15.51 0 00.207-1.633 24.983 24.983 0 00.015-3.31c-.031-.505-.069-.95-.111-1.331a22.96 22.96 0 01-.185-3.01c0-.777.015-1.535.046-2.252.03-.722.047-1.37.047-1.928 0-.442.042-.916.123-1.409.082-.497.179-.965.292-1.392.113-.424.226-.811.34-1.149.111-.33.199-.57.26-.712.069-.16.117-.323.14-.486a.918.918 0 00-.134-.59 2.768 2.768 0 00-.505-.604 9.844 9.844 0 00-.94-.759c-.514-.383-1.024-.654-1.511-.804-.488-.15-.933-.225-1.325-.225-.457 0-.829.077-1.106.231-.22.059-.495.138-.839.243l-1.078.326c-.367.112-.742.214-1.114.307a9.88 9.88 0 01-.981.197c-.256.04-.602.09-1.089.154-.455.06-.954.123-1.479.186a50.775 50.775 0 01-2.999.246c-.443.02-.909 0-1.385-.06a16.75 16.75 0 01-1.372-.23 19.97 19.97 0 01-1.16-.277l-.73-.2-.016-.005c-.177-.038-.722-.15-.953.173-.123.169-.191.3-.222.417a.66.66 0 00.063.438c.061.13.189.277.407.468zm15.835 6.644c.01.163.016.326.016.484v.01c.021.392.03.784.03 1.165v2.493c0 .433-.009.882-.03 1.34a60.366 60.366 0 00-.079 2.204c-.011.677-.027 1.28-.046 1.792a10.36 10.36 0 01-.107 1.213c-.061.36-.153.41-.156.412a.454.454 0 01-.272.043 1.391 1.391 0 01-.3-.075 1.812 1.812 0 01-.225-.158c-.073-.06-.155-.133-.249-.214a3.257 3.257 0 00-.384-.283 4.165 4.165 0 00-.629-.31 2.911 2.911 0 00-1.076-.2 4.3 4.3 0 00-.936.114c-.332.074-.72.175-1.152.298a44.23 44.23 0 00-1.525.466c-.57.184-1.239.393-1.984.618-.617.184-1.128.313-1.514.383-.271.05-.496.061-.674.033.028-.177.049-.332.065-.465.021-.176.042-.368.063-.576.021-.215.032-.467.032-.747v-1.07c0-.92-.005-2.1-.015-3.61a268.483 268.483 0 00-.109-5.472 128.51 128.51 0 00-.063-1.66 23.86 23.86 0 01-.031-1.121c0-.465.046-.802.138-1.001.088-.192.294-.393.621-.601.254-.175.616-.338 1.074-.486.47-.152 1.003-.284 1.588-.396a24.337 24.337 0 011.864-.277c1.465-.161 2.88-.144 4.087.091.658.129 1.178.33 1.548.601.184.133.304.39.358.766.061.425.091.937.091 1.52 0 .323-.005.67-.015 1.032-.009.351-.015.734-.015 1.136-.004.172.002.345.011.508zM171.86 2.597a2.76 2.76 0 00-.504-.604c-.222-.21-.539-.465-.941-.759-.514-.383-1.024-.654-1.511-.804-.488-.15-.933-.225-1.325-.225-.456 0-.829.077-1.108.23-.22.06-.495.14-.839.244l-1.078.326c-.367.112-.741.214-1.114.307a9.925 9.925 0 01-.98.197c-.257.04-.602.09-1.09.154-.455.06-.953.123-1.479.185-.529.063-1.063.114-1.584.154-.528.042-1.004.072-1.414.093-.444.02-.91 0-1.386-.06a16.75 16.75 0 01-1.372-.23 19.978 19.978 0 01-1.16-.277l-.73-.2-.015-.005c-.178-.038-.723-.15-.954.173-.122.169-.191.3-.222.417a.673.673 0 00.063.438c.065.129.193.277.411.466.344.285.612.702.797 1.244a9.92 9.92 0 01.428 1.883c.092.694.155 1.422.186 2.165.03.734.057 1.447.078 2.126.021.352.03.775.03 1.259v1.642c0 .724-.005 1.51-.015 2.336a55.078 55.078 0 01-.078 2.345c-.042.749-.1 1.454-.17 2.095-.073.64-.159 1.157-.26 1.532-.149.531-.226 1.007-.226 1.417 0 .572.109.97.333 1.217.201.222.388.385.573.5l.017.01c.096.047.226.093.398.138.172.046.363.069.568.069.254 0 .51-.052.762-.154.243-.099.445-.27.606-.51.313-.04.661-.095 1.038-.16.416-.071.829-.151 1.225-.233.395-.081.766-.159 1.108-.233.342-.072.617-.129.816-.168l2.343-.357c.59-.091 1.082-.157 1.458-.201.367-.04.659-.06.868-.06.208 0 .416.009.617.03.34.04.701.115 1.074.225.325.097.529.232.612.41.208.413.514.709.909.883a2.78 2.78 0 001.112.249c.476 0 .809-.1 1.01-.3.269-.244.496-.588.674-1.016.172-.415.306-.886.401-1.403.094-.508.163-1.058.207-1.633a24.982 24.982 0 00.015-3.31c-.03-.503-.069-.95-.111-1.331a22.96 22.96 0 01-.185-3.01c0-.778.015-1.535.046-2.252.03-.72.048-1.37.048-1.928 0-.442.042-.916.122-1.409.082-.497.179-.963.292-1.391.113-.427.226-.812.34-1.15.111-.33.199-.568.26-.712.069-.16.115-.323.14-.486.027-.186-.019-.385-.134-.588zm-15.648 12.224a269.018 269.018 0 00-.109-5.472 128.51 128.51 0 00-.063-1.66c-.021-.437-.03-.814-.03-1.121 0-.465.046-.802.137-1.001.088-.192.295-.393.621-.601.255-.175.616-.338 1.074-.486.47-.151 1.004-.284 1.588-.396a24.332 24.332 0 011.864-.277c1.466-.161 2.88-.144 4.088.091.657.129 1.177.33 1.548.601.183.133.303.39.357.766.061.425.092.937.092 1.52 0 .323-.006.67-.016 1.032a44.4 44.4 0 00-.015 1.136c0 .174.006.345.015.508.01.163.016.326.016.484v.01c.021.393.03.786.03 1.165v2.494c0 .432-.009.881-.03 1.336a56.032 56.032 0 00-.079 2.207 86.426 86.426 0 01-.046 1.792c-.021.506-.057.914-.107 1.213-.061.36-.153.41-.156.412a.453.453 0 01-.272.043 1.391 1.391 0 01-.3-.075 1.8 1.8 0 01-.225-.158c-.073-.06-.155-.132-.247-.214a3.42 3.42 0 00-.384-.283 4.166 4.166 0 00-.629-.31 2.911 2.911 0 00-1.076-.2c-.284 0-.6.038-.936.114-.333.074-.72.175-1.152.298-.442.125-.956.282-1.525.466-.57.184-1.239.393-1.984.619-.617.183-1.128.312-1.514.383-.271.049-.497.06-.674.032a16.642 16.642 0 00.128-1.041c.021-.215.032-.467.032-.747v-1.07c-.005-.915-.011-2.097-.021-3.61zM79.549 45.645a6.206 6.206 0 00-1.017-1.264 10.97 10.97 0 00-1.017-.852c-.407-.295-.934-.585-1.569-.858a41.74 41.74 0 00-2.039-.81 86.256 86.256 0 01-2.211-.85 16.094 16.094 0 01-2.066-.993 8.648 8.648 0 01-1.647-1.212c-.45-.426-.746-.904-.881-1.422-.1-.394-.151-.731-.151-1.005 0-.36.1-.597.306-.726a6.807 6.807 0 012.148-.688 15.284 15.284 0 012.28-.184c.492 0 .959.015 1.39.046l.415.03.673.047c.103.01.218.046.28.247.066.218.1.464.1.732 0 .322-.015.639-.045.94-.037.357-.027.577.028.713.037.093.105.16.195.188.117.038.25.007.411-.093.176-.108.373-.262.59-.455.2-.178.423-.37.666-.567.225-.186.437-.328.64-.429a16.7 16.7 0 011.28-.627c.493-.216.818-.497.961-.833.138-.318-.22-.64-.546-.887a14.89 14.89 0 00-1.36-.895 24.01 24.01 0 00-1.497-.811c-.495-.245-.812-.387-.97-.43l-.024-.006c-.149-.025-.353-.014-.627.03-.26.044-.539.114-.825.208-.277.091-.57.198-.868.313l-.745.292a6.079 6.079 0 01-.904.224c-.388.072-.83.133-1.311.184-.484.051-.99.087-1.5.108-.51.02-1.002.03-1.455.03-.77-.019-1.46-.106-2.046-.258a55.607 55.607 0 00-1.325-.328c-.157-.028-.636-.117-.831.2-.094.151-.151.26-.176.335l-.006.023a.559.559 0 00.054.402c.032.057.103.16.346.398l.026.023c.232.16.379.385.45.688.08.341.141.73.183 1.153.063.626.138 1.18.22 1.644.086.487.204.855.361 1.126a5.98 5.98 0 001.19 1.754c.507.525 1.101 1.014 1.767 1.454.659.436 1.37.844 2.113 1.208.736.36 1.49.701 2.244 1.014.741.308 1.458.62 2.133.928a9.507 9.507 0 011.773 1.046c.508.387.923.834 1.23 1.327.303.484.456 1.085.456 1.788 0 .634-.085 1.174-.253 1.604a3.18 3.18 0 01-.674 1.081 3.13 3.13 0 01-.925.671c-.342.16-.677.281-1.004.363-.135.04-.464.104-1.272.178-.658.06-1.397.093-2.198.093-.8 0-1.59-.046-2.349-.139-.73-.087-1.265-.258-1.594-.506-.475-.334-.808-.652-.992-.948a2.44 2.44 0 01-.347-.887 5.018 5.018 0 01-.06-.97 7.242 7.242 0 00-.08-1.218c-.105-.571-.233-.829-.441-.884-.212-.057-.415.072-.6.385a6.08 6.08 0 00-.438.961c-.143.387-.28.776-.407 1.153a1.678 1.678 0 01-.392.622c-.21.218-.422.43-.632.627-.224.213-.423.421-.593.62a1.196 1.196 0 00-.296.795c0 .271.103.544.306.813.19.254.495.533.93.854.44.322 1.246.648 2.47.995 1.194.34 2.761.563 4.659.666.166.02.363.035.602.047.235.01.48.015.726.015.43 0 .9-.011 1.397-.03.476-.02.952-.046 1.41-.078.455-.032.874-.068 1.242-.11.386-.042.67-.083.857-.125.848-.148 1.582-.383 2.184-.702a4.276 4.276 0 001.473-1.251c.367-.503.64-1.087.813-1.739.17-.64.265-1.37.286-2.167.021-.904-.07-1.706-.273-2.385-.216-.671-.476-1.265-.785-1.764zM101.993 33.645c-.24-.218-.554-.476-.936-.771-.512-.381-.986-.656-1.407-.818a3.421 3.421 0 00-1.211-.246c-.401 0-.807.09-1.202.264a90.97 90.97 0 01-1.076.447c-.419.173-.898.33-1.428.472l-.011.004c-.077.025-.252.066-.663.116a192.881 192.881 0 01-2.62.294c-.49.05-.94.098-1.357.138-.419.04-.881.025-1.374-.046a18.7 18.7 0 01-1.436-.26c-.45-.102-.861-.21-1.217-.32a36.693 36.693 0 00-.77-.233l-.015-.004c-.178-.038-.723-.15-.954.173-.122.169-.191.3-.222.417a.665.665 0 00.064.438c.064.129.192.277.41.466.348.288.644.711.881 1.257.243.565.446 1.199.599 1.885.152.69.261 1.416.323 2.158.06.745.093 1.454.093 2.106v4.09c0 .649-.006 1.299-.015 1.932-.012.63-.021 1.208-.03 1.735-.012.525-.031.98-.062 1.352-.032.408-.067.614-.094.719a.832.832 0 01-.326.242 2.21 2.21 0 01-.692.11c-.25 0-.497-.02-.74-.06a9.06 9.06 0 00-.527-.048 1.227 1.227 0 00-.499.057c-.164.05-.231.144-.256.214-.025.069-.036.18.052.319.133.282.355.612.676 1.005.312.38.644.764.992 1.14.348.375.67.706.961.983.4.383.558.48.65.518.109.053.27.083.504.095.023.002.046.002.071.002.214 0 .445-.046.69-.139.266-.1.545-.267.828-.496.284-.23.548-.545.78-.928.097-.146.164-.303.2-.47.03-.144.057-.292.08-.442.016-.075.037-.26.065-.923.021-.504.03-1.34.03-2.486 0-.715-.009-1.562-.03-2.59-.02-.997-.051-2.18-.093-3.515v-1.5c0-.115-.006-.24-.018-.373-.01-.114-.015-.359-.015-.732a32.61 32.61 0 00-.11-2.057 17.111 17.111 0 01-.077-1.53c0-.509.063-.914.187-1.208.117-.275.367-.52.736-.72.395-.196 1.081-.363 2.037-.494.97-.133 2.022-.252 3.128-.356.673-.078 1.214-.036 1.608.125.495.203.701.362.787.459.138.155.289.37.447.637.147.246.224.686.224 1.308 0 .601-.103 1.39-.308 2.342a8.267 8.267 0 01-.533 1.634c-.205.446-.482.82-.822 1.11-.34.29-.766.504-1.265.64-.508.139-1.133.188-1.858.148-.854-.04-1.538-.13-2.031-.271-.58-.163-.961-.212-1.068.055l-.004.01c-.063.185.084.363.22.498.133.135.3.309.493.52.197.216.42.464.67.74.241.27.478.57.698.888.248.395.696.582 1.342.558.997-.082 1.949-.198 2.826-.343.9-.148 1.644-.433 2.21-.842.798-.579 1.364-1.309 1.677-2.17.304-.834.533-1.715.681-2.622.145-.902.277-1.816.391-2.717a7.4 7.4 0 01.715-2.413l.006-.012a1.27 1.27 0 00.111-.497c0-.176-.067-.36-.207-.56a3.996 3.996 0 00-.564-.608zM130.344 54.775c-.184-.137-.476-.277-.893-.429a36.647 36.647 0 01-1.659-.692 13.044 13.044 0 01-1.521-.808 12.506 12.506 0 01-1.46-1.067 12.266 12.266 0 01-1.464-1.498 27.024 27.024 0 01-.433-.493 6.85 6.85 0 01-.35-.438 9.784 9.784 0 01-.564-.85c.248-.024.539-.043.864-.056.481-.021 1.055-.03 1.708-.03h.858c.291 0 .608.009.946.03.618.023 1.082-.034 1.424-.169.354-.14.598-.326.726-.553a.96.96 0 00.081-.755 1.31 1.31 0 00-.406-.637 11.314 11.314 0 00-.588-.472 4.38 4.38 0 00-.753-.455 3.47 3.47 0 00-.862-.28 1.854 1.854 0 00-.959.086c-.239.08-.534.15-.878.21a58.782 58.782 0 01-2.333.357c-.342.046-.661.085-.957.123a30.433 30.433 0 01-.818-1.575 44.894 44.894 0 01-.933-2.037 63.51 63.51 0 01-.841-2.053 44.017 44.017 0 01-.617-1.68c.118-.375.248-.783.386-1.225.141-.453.289-.893.436-1.31.153-.432.269-.78.361-1.058.111-.343.141-.48.149-.552a.423.423 0 01.122-.15.942.942 0 00.275-.43c.06-.19.021-.398-.112-.624-.125-.206-.392-.428-.826-.677a4.254 4.254 0 00-1.294-.455 7.309 7.309 0 00-1.332-.127 5.81 5.81 0 00-1.295.13c-.278.064-.656.185-.74.479l-.006.02c-.025.152-.013.321.035.503.042.161.097.325.164.487.067.164.138.321.21.465.063.123.103.23.123.313.011.123.007.43-.079 1.187-.072.63-.239 1.492-.495 2.563-.258 1.075-.646 2.378-1.15 3.87-.497 1.47-1.158 3.15-1.963 4.994-.642.091-1.131.143-1.458.152-.34.01-.654.015-.931.015-.554 0-1.034.05-1.422.146a4.614 4.614 0 00-.965.341 2.24 2.24 0 00-.602.429c-.13.14-.227.252-.294.341l-.011.017c-.052.086-.146.31.086.562.118.129.286.256.5.379.209.12.447.225.709.31.258.086.509.15.746.194.246.046.527.051.839.017.296-.032.72-.1 1.255-.203.245-.024.39-.062.478-.127a.491.491 0 01.088-.024c-.423.722-.96 1.425-1.598 2.095-.751.785-1.758 1.68-2.995 2.662-.261.212-.426.445-.489.694-.067.265-.028.497.109.69.142.197.361.303.654.315l.055.002c.251 0 .51-.078.772-.23 1.737-.997 3.146-2.063 4.184-3.164a22.52 22.52 0 002.614-3.334c.409-.073.862-.134 1.347-.182a42.287 42.287 0 011.6-.123c.529-.03 1.059-.057 1.573-.078.456-.019.875-.028 1.246-.03.418 1.02.802 1.87 1.142 2.526.356.686.685 1.264.977 1.72.298.464.585.84.852 1.114.258.266.503.525.736.778.17.17.438.307.818.42.35.107.768.196 1.246.27.47.072.99.125 1.55.157 1.024.057 2.066.06 2.987.015.424-.02.829-.05 1.204-.093a.603.603 0 00.338-.113.354.354 0 00.134-.435c-.044-.13-.159-.256-.361-.407zm-13.911-13.386c.069.212.147.455.235.733.166.528.338 1.074.514 1.64.176.566.35 1.108.516 1.614.124.377.23.677.317.912-.305.048-.628.091-.963.13a64.675 64.675 0 01-2.475.246c-.237.02-.452.034-.645.041.206-.428.426-.9.672-1.431.287-.622.575-1.237.858-1.826a239.502 239.502 0 00.971-2.06z" fill="#fff"/></g><defs><linearGradient id="wpaint0_linear_719_1517" x1="4.992" y1="6.643" x2="30.794" y2="41.961" gradientUnits="userSpaceOnUse"><stop stop-color="#8A5C2A"/><stop offset=".514" stop-color="#C2A650" stop-opacity=".81"/><stop offset=".619" stop-color="#D1BA5A" stop-opacity=".92"/><stop offset=".697" stop-color="#C8AD53" stop-opacity=".86"/><stop offset="1" stop-color="#A37C36"/></linearGradient><clipPath id="wclip0_719_1517"><path fill="#fff" d="M0 0h172v56H0z"/></clipPath></defs></svg><svg fill="none" viewBox="0 0 94 23" id="reviews-logo-ya" xmlns="http://www.w3.org/2000/svg"><path d="M8.676 5.058H7.377c-2.36 0-3.601 1.198-3.601 2.972 0 2.011.859 2.942 2.63 4.14l1.453.983-4.202 6.29H.529l3.767-5.628C2.121 12.26.905 10.755.905 8.19c0-3.21 2.221-5.38 6.442-5.38h4.2v16.635H8.666V5.058h.01zm14.75 2.348v12.038h-2.837V14.42h-3.797v5.024h-2.838V7.406h2.838v4.765h3.797V7.406h2.837zm12.822 14.783h-2.63v-2.755h-6.377v2.755h-2.629V17.19h.89c.998-2.012 1.196-5.816 1.196-8.758v-1.03h8.284v9.788h1.266v4.999zM32.145 9.655H29.14v.357c0 2.08-.217 5.36-1.01 7.182h4.015V9.655zm10.479 10.017c-3.627 0-5.684-2.032-5.684-6.222 0-3.637 1.65-6.29 5.111-6.29 2.838 0 4.676 1.584 4.676 5.766v1.505h-6.85c.117 2.012.908 2.993 2.985 2.993 1.384 0 2.866-.526 3.746-1.13v2.328c-.83.575-2.165 1.05-3.984 1.05zm-2.748-7.343h3.964v-.236c0-1.505-.433-2.675-1.84-2.675-1.353-.011-2.045.999-2.124 2.911zm11.606 1.2v5.915h-2.847V7.406h2.847v5.548l4.02-5.548h2.867l-4.014 5.548 4.557 6.48h-3.228l-4.202-5.905zm7.267-.099c0-3.666 1.888-6.271 5.519-6.271 1.406 0 2.461.237 3.054.573v2.419c-.573-.358-1.651-.744-2.748-.744-1.86 0-2.887 1.338-2.887 3.954 0 2.487.84 4.071 2.868 4.071 1.195 0 2.055-.307 2.767-.812v2.318c-.692.506-1.623.743-2.937.743-3.798-.01-5.637-2.229-5.637-6.251z" fill="#2F2F2F"/><path fill-rule="evenodd" clip-rule="evenodd" d="M84.494.045c-4.893.002-8.86 3.98-8.86 8.884a8.9 8.9 0 002.591 6.276c1.606 1.609 5.383 3.936 5.607 6.38.033.365.298.665.662.665.365 0 .63-.3.663-.665.224-2.444 3.998-4.767 5.602-6.375a8.898 8.898 0 002.596-6.281c0-4.905-3.968-8.883-8.861-8.884z" fill="#F43"/><path fill-rule="evenodd" clip-rule="evenodd" d="M84.494 12.044a3.114 3.114 0 003.11-3.117 3.114 3.114 0 00-3.11-3.116 3.114 3.114 0 00-3.11 3.116 3.113 3.113 0 003.11 3.117z" fill="#000" fill-opacity=".251"/></svg><svg fill="none" viewBox="0 0 76 28" id="reviews-slider-logo-2gis" xmlns="http://www.w3.org/2000/svg"><path fill-rule="evenodd" clip-rule="evenodd" d="M9.575.76l-.942.01c-.648.018-1.139.06-1.62.151a5.566 5.566 0 00-1.626.565 5.524 5.524 0 00-1.398 1.07c-.41.43-.754.928-1.017 1.473a6.329 6.329 0 00-.539 1.716c-.087.508-.126 1.024-.143 1.698l-.006.282-.004.301-.003.61v9.986l.002.435c.001.277.005.516.01.745.018.674.057 1.19.144 1.697.106.621.28 1.182.539 1.717a5.824 5.824 0 001.017 1.474c.41.431.883.793 1.399 1.069a5.56 5.56 0 001.625.565c.437.083.883.125 1.44.145l.416.01c.217.004.538.006 1.177.008l9.071-.002c.24-.001.531-.005.975-.01.648-.019 1.14-.06 1.62-.151a5.564 5.564 0 001.626-.566 5.541 5.541 0 001.398-1.068c.41-.432.754-.93 1.017-1.474.26-.535.433-1.096.539-1.717.079-.461.119-.931.138-1.518l.006-.18.008-.428.004-1.183V8.402l-.004-.53a30.06 30.06 0 00-.008-.43 11.616 11.616 0 00-.144-1.697 6.301 6.301 0 00-.54-1.717 5.795 5.795 0 00-1.016-1.473 5.53 5.53 0 00-1.398-1.069 5.565 5.565 0 00-1.626-.565 9.432 9.432 0 00-1.44-.145l-.478-.012-.125-.001L9.575.76z" fill="#1A1A1A" fill-opacity=".01"/><path fill-rule="evenodd" clip-rule="evenodd" d="M8.642 1.526l.973-.01 10.124.004c.154.001.25.003.345.006a9.545 9.545 0 011.504.14c.504.094.973.25 1.43.495.45.241.862.556 1.219.932.357.375.656.808.884 1.281.234.482.381.975.472 1.506.089.522.119 1.055.132 1.583.007.243.01.485.01.728l.002.431v9.567c0 .288 0 .576-.002.864a33.91 33.91 0 01-.01.727 11.09 11.09 0 01-.132 1.583 5.523 5.523 0 01-.472 1.506 5.056 5.056 0 01-.884 1.282c-.357.375-.769.69-1.218.93-.458.246-.927.402-1.43.497a9.556 9.556 0 01-1.505.14l-1.512.012-9.586-.006a17.675 17.675 0 01-.344-.007 9.556 9.556 0 01-1.505-.14 4.894 4.894 0 01-1.43-.495 4.823 4.823 0 01-1.218-.931 5.068 5.068 0 01-.885-1.282 5.55 5.55 0 01-.471-1.506A11.085 11.085 0 013 19.78c-.007-.242-.01-.485-.01-.727l-.002-.432V9.054l.001-.863c.001-.243.004-.485.01-.728.014-.528.043-1.06.133-1.583.09-.53.238-1.024.471-1.506.23-.473.528-.906.885-1.281a4.81 4.81 0 012.648-1.428 9.545 9.545 0 011.505-.139z" fill="#1A1A1A" fill-opacity=".01"/><mask id="ya" style="mask-type:alpha" maskUnits="userSpaceOnUse" x="2" y="1" width="24" height="25"><path fill-rule="evenodd" clip-rule="evenodd" d="M8.642 1.526l.973-.01 10.124.004c.154.001.25.003.345.006a9.545 9.545 0 011.504.14c.504.094.973.25 1.43.495.45.241.862.556 1.219.932.357.375.656.808.884 1.281.234.482.381.975.472 1.506.089.522.119 1.055.132 1.583.007.243.01.485.01.728l.002.431v9.567c0 .288 0 .576-.002.864a33.91 33.91 0 01-.01.727 11.09 11.09 0 01-.132 1.583 5.523 5.523 0 01-.472 1.506 5.056 5.056 0 01-.884 1.282c-.357.375-.769.69-1.218.93-.458.246-.927.402-1.43.497a9.556 9.556 0 01-1.505.14l-1.512.012-9.586-.006a17.675 17.675 0 01-.344-.007 9.556 9.556 0 01-1.505-.14 4.894 4.894 0 01-1.43-.495 4.823 4.823 0 01-1.218-.931 5.068 5.068 0 01-.885-1.282 5.55 5.55 0 01-.471-1.506A11.085 11.085 0 013 19.78c-.007-.242-.01-.485-.01-.727l-.002-.432V9.054l.001-.863c.001-.243.004-.485.01-.728.014-.528.043-1.06.133-1.583.09-.53.238-1.024.471-1.506.23-.473.528-.906.885-1.281a4.81 4.81 0 012.648-1.428 9.545 9.545 0 011.505-.139z" fill="#fff"/></mask><g mask="url(#ya)"><path d="M25.737 1.513H2.988V25.73h22.75V1.514z" fill="#19AA1E"/><path fill-rule="evenodd" clip-rule="evenodd" d="M2.988 1.513h22.75V9.46L2.987 5.675V1.513z" fill="#FFB919"/><path fill-rule="evenodd" clip-rule="evenodd" d="M2.988 23.08l22.75-3.783v6.432H2.987V23.08z" fill="#82D714"/><path fill-rule="evenodd" clip-rule="evenodd" d="M2.988 5.197l7.94 1.32a6.095 6.095 0 013.435-1.03c1.758 0 3.337.7 4.486 1.93.146.155.282.318.41.486l6.478 1.078v.957l-5.82-.968c.433.883.666 1.867.666 2.872 0 1.297-.273 2.59-.836 3.89l-.017.039-.24.546h-.566c-1.168 0-1.943.372-2.45 1.031-.398.518-.628 1.216-.706 1.978l-.002.023-.011.122-.005.053-.01.104c-.029.34-.049.628-.059.863l10.056-1.672v.957L2.988 23.56v-.958l10.068-1.674-.005-.215-.001-.06-.001-.032-.002-.048c-.009-.26-.031-.595-.067-1l-.007-.076-.012-.133c-.072-.766-.3-1.473-.696-1.998-.502-.664-1.27-1.042-2.429-1.05h-.601l-.24-.545c-.575-1.312-.853-2.619-.853-3.93a6.502 6.502 0 011.83-4.525L2.989 6.154v-.957z" fill="#fff"/><path fill-rule="evenodd" clip-rule="evenodd" d="M14.363 6.433c3.176 0 5.332 2.602 5.332 5.41 0 1.127-.231 2.3-.77 3.528-3.125 0-3.897 2.383-4.043 3.882l-.009.1c-.05.535-.078.964-.086 1.288l-.846.14v-.029a18.33 18.33 0 00-.09-1.427l-.003-.027c-.135-1.496-.89-3.926-4.047-3.926-.539-1.23-.77-2.402-.77-3.53 0-2.807 2.156-5.409 5.332-5.409z" fill="#0073FA"/></g><path fill-rule="evenodd" clip-rule="evenodd" d="M36.258 7.379c-2.772 0-4.852 1.797-4.834 4.919H34c-.036-1.249.71-2.46 2.257-2.46 1.173 0 1.92.833 1.92 1.892 0 1.098-.818 1.703-2.133 2.384-1.724.89-2.755 1.305-4.621 1.968v3.594h9.597v-2.46h-6.114c.891-.395 1.758-.829 2.542-1.229 2.08-1.06 3.306-2.251 3.306-4.39 0-2.572-1.813-4.218-4.497-4.218zm8.673 2.649h4.976v-2.46h-7.464v12.108h2.488v-9.648zm8.886-2.46H51.33v12.108h2.47l4.64-7.738v7.738h2.487V7.568h-2.488l-4.62 7.738V7.568zm19.603 7.568h-2.577c-.39 1.343-1.581 2.27-2.985 2.27-2.044 0-3.377-1.873-3.377-3.784 0-1.91 1.297-3.784 3.448-3.784 1.421 0 2.523.927 2.914 2.27h2.577c-.373-2.705-2.381-4.73-5.562-4.73-3.52 0-5.865 2.63-5.865 6.244s2.346 6.243 5.865 6.243c3.18 0 5.19-1.986 5.562-4.73z" fill="#fff"/></svg><svg fill="none" viewBox="0 0 48 48" id="services--services-icon" xmlns="http://www.w3.org/2000/svg"><path d="M24 47.998c13.255 0 24-10.744 24-23.999C48 10.745 37.255 0 24 0S0 10.745 0 24c0 13.254 10.745 23.998 24 23.998z" fill="#fff"/><path d="M11.168 16.73v.855h.569v-.855h-.57zm0 0v.855h.569v-.855h-.57zM24 0C10.745 0 0 10.745 0 24c0 1.956.234 3.857.676 5.677a13.145 13.145 0 015.38-.258s-.698-.76-2.14-.88c0 0 1.179-3.54 4.66-4.962 1.176-.48 2.616-.719 4.363-.496 0 0-.359-.367-1.028-.68a4.503 4.503 0 00-.883-.305s1.126-2.732 3.618-4a5.538 5.538 0 01.971-.39c.792-.238 1.69-.32 2.705-.158 0 0-.714-.88-1.835-1.047 0 0 .032-.312.172-.8a7.62 7.62 0 013.917-4.725s.525-3.054 3.174-3.054c2.648 0 3.174 3.054 3.174 3.054a7.611 7.611 0 013.89 4.638c.16.538.198.887.198.887-1.121.168-1.835 1.047-1.835 1.047 1.232-.199 2.295-.033 3.2.331a6.11 6.11 0 01.863.43c2.222 1.338 3.233 3.787 3.233 3.787a4.493 4.493 0 00-.722.234c-.77.324-1.188.751-1.188.751 1.895-.24 3.43.06 4.66.624.1.047.2.094.297.145.03.016.063.032.094.05 2.951 1.57 3.972 4.64 3.972 4.64-1.44.122-2.139.879-2.139.879a13.199 13.199 0 015.842.385c.464-1.86.707-3.803.707-5.805C47.998 10.745 37.253 0 24 0zM10.14 16.197v2.196h-.622v-.277h-.486v.468h-.62v-2.387h1.727zm-.687-.278v-.533h1.944v.533H9.453zm2.903 2.475h-.621v-.276h-.569v1.02h-.619v-2.94h1.809v2.196zm.426-2.286c-.789-.335-1.726-.884-2.313-1.564a5.47 5.47 0 01-.575.508 10.6 10.6 0 01-2.012 1.196l-.17-.319c.498-.32.98-.684 1.418-1.079.315-.29.614-.596.85-.952.073-.112.136-.226.184-.338l.767.404a3.14 3.14 0 01-.156.23c.138.121.287.229.442.326a6.06 6.06 0 001.077.525c.245.093.499.177.754.239l-.266.824zm.264-6.535h-2.138c.2.221.406.436.616.646.413.406.856.802 1.334 1.12l-.527.664c-.464-.439-.853-.923-1.22-1.434a19.172 19.172 0 01-.306-.44v2.662h-.851v-2.65c-.088.128-.176.256-.267.383-.369.51-.755.995-1.22 1.433l-.527-.664c.706-.478 1.328-1.086 1.907-1.72H7.713v-.81h2.24V7.575h.853v1.186h2.24v.811zm-1.311 7.157h-.569v.855h.569v-.855zm-2.217 0h-.486v.855h.486v-.855z" fill="url(#zpaint0_linear_421_10327)"/><path d="M40.194 31.601c-2.939 0-6.772-1.872-8.929-3.108v-.857h-.952v-2.23h5.672v-.92c.685.019 2.031-.055 3.237-.783a4.538 4.538 0 001.706-1.834c.03-.059.059-.116.086-.176-.008.007-.07.054-.188.122-.406.237-1.479.738-3.306.738a7.982 7.982 0 01-1.771-.224c-1.976-.452-4.089-1.502-5.44-2.272v-.753h-.27v-1.316h2.338v-.778c.16-.047 1.048-.35 1.641-1.403.145-.258.273-.56.367-.915 0 0-.402.296-1.104.532a5.54 5.54 0 01-1.762.286c-.213 0-.449-.033-.704-.096-1.636-.398-4.037-1.988-6.084-3.53a1.013 1.013 0 00-.62-1.71.48.48 0 00.187-.391c0-.346-.3-1.674-.3-1.674s-.3 1.328-.3 1.674c0 .203.103.325.188.392a1.014 1.014 0 00-.621 1.71c-2.277 1.714-4.993 3.487-6.606 3.617a1.775 1.775 0 01-.184.008 5.52 5.52 0 01-2.046-.39c-.525-.21-.82-.426-.82-.426.068.253.152.48.246.684.585 1.242 1.591 1.585 1.76 1.635v.778h2.34v1.317h-.272v.752c-1.427.814-3.706 1.94-5.775 2.343a7.49 7.49 0 01-1.435.153c-2.358 0-3.46-.834-3.494-.86a4.57 4.57 0 001.595 1.884c1.256.847 2.715.93 3.438.908v.922h5.672v2.23h-.952v.856c-2.155 1.237-5.99 3.109-8.927 3.109-2.938 0-4.285-1.057-4.285-1.057 1.849 3.93 6.404 3.428 6.713 3.389v.848h1.198v5.382h7.83v-3.063h9.477v3.063h7.83v-5.382h1.196v-.848c.309.039 4.864.54 6.714-3.389 0-.003-1.348 1.053-4.284 1.053zM16.86 36.184h-3.73v-1.4h3.73v1.4zm10.162-18.196h1.588v1.316h-1.588v-1.316zm1.588 7.42v2.23h-1.316v-2.23h1.316zm-6.569-7.42h3.915v1.316h-1.385v-.806h-1.145v.806H22.04v-1.316zm-2.654 0h1.588v1.316h-1.588v-1.316zm0 7.42h1.317v2.23h-1.317v-2.23zm3.76 10.776H19.26v-1.4h3.889v1.4zm.279-9.518v.97H22.04v-2.23h3.915v2.23h-1.385v-.97h-1.145zm5.312 9.518H24.85v-1.4h3.89v1.4zm6.129 0h-3.73v-1.4h3.73v1.4zM9.232 40.175v2.162h-.716c.058.05.115.097.174.146l.134.112.06.049.15.12.044.036.145.114c.061.048.123.097.186.144l.23.174a23.885 23.885 0 0013.739 4.76c.099.002.196.005.295.006h.018c.1.002.203.002.306.002.102 0 .203 0 .305-.002h.018a23.877 23.877 0 0013.825-4.612c.07-.051.14-.104.21-.154.076-.058.154-.115.229-.174.063-.047.125-.096.187-.144l.144-.114a.995.995 0 00.043-.034l.173-.14c.06-.047.117-.096.178-.145.058-.047.117-.097.175-.146v-2.157H9.232v-.003zm4.452 2.16h-2.75v-.834h2.75v.834zm12.051 0h-2.75v-.834h2.75v.834zm12.05 0h-2.747v-.834h2.748v.834z" fill="#1E1E1C"/><defs><linearGradient id="zpaint0_linear_421_10327" x1="4.245" y1="5.694" x2="26.412" y2="35.798" gradientUnits="userSpaceOnUse"><stop stop-color="#8A5C2A"/><stop offset=".514" stop-color="#C2A650" stop-opacity=".81"/><stop offset=".619" stop-color="#D1BA5A" stop-opacity=".92"/><stop offset=".697" stop-color="#C8AD53" stop-opacity=".86"/><stop offset="1" stop-color="#A37C36"/></linearGradient></defs></svg></svg>